<svg id="Layer_1" data-name="Layer 1" xmlns="http://www.w3.org/2000/svg" viewBox="0 0 150 50"><path d="M46.32,20.18c1.82,0,3.07.93,3.07,2.46a1.79,1.79,0,0,1-.21.91,1.77,1.77,0,0,1-.65.68,2.57,2.57,0,0,1,1.26.94,2.51,2.51,0,0,1,.46,1.5,2.89,2.89,0,0,1-3.12,2.88H44l-.07-.07V20.24l.07-.06Zm-.84,3.61h.83c.89,0,1.3-.33,1.3-1.07s-.41-1-1.3-1h-.83Zm0,4.19h1.58a1.31,1.31,0,1,0,0-2.62H45.48Z" fill="#fff"/><path d="M58,26.4A3.35,3.35,0,0,1,56,29.5a3.35,3.35,0,0,1-3.65-.73,3.36,3.36,0,0,1-.72-3.65A3.37,3.37,0,0,1,56,23.3a3.32,3.32,0,0,1,1.81,1.82A3.28,3.28,0,0,1,58,26.4Zm-5.1,0a1.87,1.87,0,0,0,.11.7,1.73,1.73,0,0,0,.37.59,1.77,1.77,0,0,0,.58.4,1.81,1.81,0,0,0,.69.14,1.76,1.76,0,0,0,.68-.14,1.67,1.67,0,0,0,.58-.4,1.73,1.73,0,0,0,.37-.59,1.69,1.69,0,0,0,.11-.7,1.64,1.64,0,0,0-.11-.69,1.88,1.88,0,0,0-.37-.6,1.82,1.82,0,0,0-.58-.4,1.76,1.76,0,0,0-.68-.14,1.81,1.81,0,0,0-.69.14,1.94,1.94,0,0,0-.58.4,1.88,1.88,0,0,0-.37.6,1.82,1.82,0,0,0-.11.69Z" fill="#fff"/><path d="M65.15,23.32v1.32l-.06.06h-.7a2.4,2.4,0,0,1,.16.83,2.33,2.33,0,0,1-.19,1,2.28,2.28,0,0,1-.55.82,2.5,2.5,0,0,1-.83.53A2.47,2.47,0,0,1,62,28a1.93,1.93,0,0,1-.75-.15.31.31,0,0,0-.13.27c0,.74,4.09.3,4.09,2.89,0,1.26-1.23,2.08-3.11,2.08s-3.37-.51-3.37-2a2.34,2.34,0,0,1,1.35-1.86,1.18,1.18,0,0,1-.35-.42,1.13,1.13,0,0,1-.13-.54,1.34,1.34,0,0,1,.17-.59,1.3,1.3,0,0,1,.41-.46,2.51,2.51,0,0,1-.55-.78,2.34,2.34,0,0,1-.17-.94,2.49,2.49,0,0,1,.76-1.76A2.54,2.54,0,0,1,62,23.05a2.89,2.89,0,0,1,1,.21h2.07ZM60.36,31c0,.44.5.71,1.77.71,1,0,1.48-.34,1.48-.75,0-.78-1.7-1-2.37-1.23A1.7,1.7,0,0,0,60.36,31Zm.56-5.48a1.12,1.12,0,0,0,.19.59,1,1,0,0,0,.49.38,1.07,1.07,0,0,0,1.16-.25,1.12,1.12,0,0,0,.28-.54,1.06,1.06,0,0,0-.46-1.1,1,1,0,0,0-1.34.15,1.12,1.12,0,0,0-.31.77Z" fill="#fff"/><path d="M71.85,23.32v1.32l-.07.06h-.7a2.41,2.41,0,0,1,.17.83,2.5,2.5,0,0,1-.19,1,2.57,2.57,0,0,1-.55.82A2.45,2.45,0,0,1,68.7,28a1.88,1.88,0,0,1-.74-.15.29.29,0,0,0-.1.12.83.83,0,0,0,0,.15c0,.74,4.1.3,4.1,2.89,0,1.26-1.23,2.08-3.11,2.08s-3.37-.51-3.37-2a2.32,2.32,0,0,1,1.35-1.86,1.32,1.32,0,0,1-.36-.42,1.25,1.25,0,0,1-.12-.54,1.31,1.31,0,0,1,.58-1.05,2.21,2.21,0,0,1-.72-1.72,2.45,2.45,0,0,1,.76-1.76,2.5,2.5,0,0,1,1.78-.72,2.89,2.89,0,0,1,1,.21h2.08ZM67.05,31c0,.44.51.71,1.77.71,1,0,1.49-.34,1.49-.75,0-.78-1.7-1-2.37-1.23A1.69,1.69,0,0,0,67.05,31Zm.57-5.48a1,1,0,0,0,.19.59,1,1,0,0,0,.49.38,1,1,0,0,0,.61.05.94.94,0,0,0,.54-.3,1.06,1.06,0,0,0,.29-.54,1,1,0,0,0-.07-.62,1.07,1.07,0,0,0-.39-.48,1,1,0,0,0-1.35.15,1.11,1.11,0,0,0-.3.77Z" fill="#fff"/><path d="M78.72,29a4.7,4.7,0,0,1-2.49.79,3.45,3.45,0,0,1-1.35-.22,3.31,3.31,0,0,1-1.15-.73A3.2,3.2,0,0,1,73,27.69a3.47,3.47,0,0,1-.29-1.34,3.42,3.42,0,0,1,.21-1.27,3.19,3.19,0,0,1,.7-1.08,3.11,3.11,0,0,1,1.07-.72,3.2,3.2,0,0,1,1.26-.23,3,3,0,0,1,2.9,3.11,1.51,1.51,0,0,1-.07.56l-.11.07H74.25a1.86,1.86,0,0,0,2,1.55,3.63,3.63,0,0,0,2.42-1l.07.07Zm-1.49-3.35a1.32,1.32,0,0,0-.45-.82,1.35,1.35,0,0,0-.88-.33,1.56,1.56,0,0,0-1,.3,1.63,1.63,0,0,0-.61.85Z" fill="#fff"/><path d="M86.34,20.18l.07.06v9.24l-.07.07H84.91l-.07-.07v-.2a3,3,0,0,1-1.6.47,3.35,3.35,0,0,1-3.35-3.35,3.3,3.3,0,0,1,1-2.36,3.35,3.35,0,0,1,2.37-1,3.11,3.11,0,0,1,1.6.47V20.24l.07-.06Zm-1.49,5.1a2,2,0,0,0-.7-.52,2.13,2.13,0,0,0-.85-.21,1.69,1.69,0,0,0-.7.15,1.66,1.66,0,0,0-.58.41,1.77,1.77,0,0,0-.37.6,1.87,1.87,0,0,0-.11.7,1.92,1.92,0,0,0,.11.71,1.77,1.77,0,0,0,.37.6,1.8,1.8,0,0,0,.58.41,1.86,1.86,0,0,0,.7.14,1.83,1.83,0,0,0,.86-.19,2,2,0,0,0,.69-.55Z" fill="#fff"/><path d="M98,20.18l.07.06v1.43l-.07.07H93.6v2h3.22l.06.07v1.43l-.06.07H93.59v4.13l-.07.07H92.1L92,29.48V20.24l.07-.06Z" fill="#fff"/><path d="M99.69,20.58l1,1v.13l-1,1h-.13l-1-1v-.13l1-1Zm.64,2.68.07.06v6.16l-.07.07H98.91l-.06-.07V23.32l.06-.06Z" fill="#fff"/><path d="M103.82,23.26l.06.06v.2a3.66,3.66,0,0,1,1.68-.47,2.7,2.7,0,0,1,3,2.95v3.48l-.07.07h-1.42l-.06-.07v-3.3c0-1.08-.54-1.63-1.54-1.63a2.32,2.32,0,0,0-.87.17,2.43,2.43,0,0,0-.73.5v4.26l-.06.07H102.4l-.07-.07V23.32l.07-.06Z" fill="#fff"/><path d="M110.87,23.46a3.66,3.66,0,0,1,1.68-.41,2.5,2.5,0,0,1,2.7,2.68v3.75l-.06.07h-1.44l-.06-.07v-.2a2.84,2.84,0,0,1-1.54.47c-1.09,0-2.21-.54-2.21-1.86,0-1.77,1.83-2.32,3.75-2.42a1.07,1.07,0,0,0-1.21-1,3.79,3.79,0,0,0-2.19.78l-.07-.07Zm2.82,3.2c-1.41.06-2.15.48-2.15,1.07,0,.41.34.61.79.61a2.54,2.54,0,0,0,1.36-.4Z" fill="#fff"/><path d="M118.52,23.26l.07.06v.2a3.58,3.58,0,0,1,1.66-.47,2.71,2.71,0,0,1,3,2.95v3.48l-.07.07h-1.42l-.07-.07v-3.3c0-1.08-.53-1.63-1.54-1.63a2.19,2.19,0,0,0-1.59.67v4.26l-.07.07h-1.42l-.06-.07V23.32l.06-.06Z" fill="#fff"/><path d="M130.3,25.37a3.2,3.2,0,0,0-2.08-.82,1.83,1.83,0,0,0-.77.08,1.74,1.74,0,0,0-.67.39,1.86,1.86,0,0,0-.46.62,1.89,1.89,0,0,0,0,1.52,1.9,1.9,0,0,0,.46.63,1.85,1.85,0,0,0,.67.38,1.83,1.83,0,0,0,.77.08,3.14,3.14,0,0,0,2.08-.82l.06.07v1.58a3.56,3.56,0,0,1-2.14.67,3.35,3.35,0,1,1,0-6.7,3.62,3.62,0,0,1,2.14.67v1.59Z" fill="#fff"/><path d="M137.55,29a4.7,4.7,0,0,1-2.49.79,3.45,3.45,0,0,1-1.35-.22,3.31,3.31,0,0,1-1.15-.73,3.28,3.28,0,0,1-.78-1.12,3.37,3.37,0,0,1-.28-1.33,3.22,3.22,0,0,1,.2-1.27,3.35,3.35,0,0,1,.7-1.08,3.15,3.15,0,0,1,2.34-.95,3,3,0,0,1,2.89,3.11,1.75,1.75,0,0,1-.06.56l-.11.07h-4.38a1.83,1.83,0,0,0,.69,1.16,1.81,1.81,0,0,0,1.29.39,3.63,3.63,0,0,0,2.42-1l.07.07Zm-1.49-3.35a1.33,1.33,0,0,0-1.32-1.15,1.6,1.6,0,0,0-1.61,1.15Z" fill="#fff"/><path d="M25.25,37.88a12.87,12.87,0,1,0-9.11-3.77,12.93,12.93,0,0,0,9.11,3.77Z" fill="#fff"/><path d="M28.28,18.82H22.21L15.89,25l6.32,6.2h6.07L34.61,25Z" fill="#101722"/><path d="M25.25,29a4,4,0,0,1-2.79-1.17A4,4,0,0,1,21.3,25h1.86a2.15,2.15,0,0,0,1.3,1.93,2.05,2.05,0,0,0,1.2.12,2.1,2.1,0,0,0,1.06-.58,2.09,2.09,0,0,0-1.47-3.56V21a3.92,3.92,0,0,1,1.51.31,3.81,3.81,0,0,1,1.27.86,4,4,0,0,1,0,5.62,3.84,3.84,0,0,1-1.27.87A3.91,3.91,0,0,1,25.25,29Z" fill="#fff"/></svg>