<svg id="Layer_1" data-name="Layer 1" xmlns="http://www.w3.org/2000/svg" viewBox="0 0 150 50"><path d="M10.56,18.17V31.83l-1.79,1V17.14Z" fill="#fff"/><path d="M36,17.14l-1.79,1L22.38,11.35V9.28Z" fill="#fff"/><path d="M36,32.86,22.38,40.72V38.65L34.2,31.83Z" fill="#fff"/><path d="M22.38,38.65v2.07L8.77,32.86l1.79-1Z" fill="#fff" opacity="0.5" style="isolation:isolate"/><path d="M36,17.14V32.86l-1.79-1V18.17Z" fill="#fff" opacity="0.5" style="isolation:isolate"/><path d="M22.38,9.28v2.07L10.56,18.17l-1.79-1Z" fill="#fff" opacity="0.5" style="isolation:isolate"/><path d="M22.38,18l4.68,1.41a.29.29,0,0,1,.16.15.3.3,0,0,1,0,.21.31.31,0,0,1-.13.17.26.26,0,0,1-.21,0l-4.51-1.36L17.87,20a.27.27,0,0,1-.21,0,.26.26,0,0,1-.13-.17.31.31,0,0,1,0-.21.28.28,0,0,1,.15-.15Z" fill="#fff" fill-rule="evenodd"/><path d="M29.14,20.22a.31.31,0,0,0-.09-.17.32.32,0,0,0-.17-.09.32.32,0,0,0-.19,0,.35.35,0,0,0-.13.14l-2.72,5.29H18.92l-2.71-5.29a.33.33,0,0,0-.13-.13.31.31,0,0,0-.36,0,.31.31,0,0,0-.09.18,13.24,13.24,0,0,0,.26,5.13A11.4,11.4,0,0,0,22.25,33l.13.06.13-.06a11.39,11.39,0,0,0,6.35-7.67A13.3,13.3,0,0,0,29.14,20.22Zm-12.67,5a13.19,13.19,0,0,1-.36-4l2.36,4.61,3.2,6.2A10.67,10.67,0,0,1,16.47,25.21Zm5.91,6.91L19.23,26h6.31Zm5.91-6.91a10.73,10.73,0,0,1-5.21,6.84l3.21-6.19,2.36-4.6A13.12,13.12,0,0,1,28.29,25.21Z" fill="#fff" fill-rule="evenodd"/><path d="M45.36,30.35a2,2,0,0,0,.64.43,1.8,1.8,0,0,0,.76.14H56.6V29.59H46.76a.62.62,0,0,1-.64-.64v-7.9a.47.47,0,0,1,.05-.24.57.57,0,0,1,.13-.21.6.6,0,0,1,.21-.14.57.57,0,0,1,.25-.06H56.6V19.07H46.76a1.93,1.93,0,0,0-.75.15,2.16,2.16,0,0,0-.65.43,1.83,1.83,0,0,0-.42.64,2,2,0,0,0-.15.76V29a1.8,1.8,0,0,0,.14.76,2.12,2.12,0,0,0,.43.64ZM64.23,19.07V30.92H75V29.59H65.56V25.67h7.62V24.33H65.56V20.41H75V19.07ZM82.65,30.92V19.09h9.88a2,2,0,0,1,2,2v3.48a2.12,2.12,0,0,1-.14.75,2.16,2.16,0,0,1-.43.65,2.12,2.12,0,0,1-.64.43,1.83,1.83,0,0,1-.76.14H90.71l3.72,4.4H92.67L89,26.51H84v4.42Zm2-5.76h7.9a.51.51,0,0,0,.24,0A.66.66,0,0,0,93,25a.72.72,0,0,0,.14-.2.67.67,0,0,0,0-.24V21.06a.67.67,0,0,0,0-.24.9.9,0,0,0-.14-.2.75.75,0,0,0-.2-.15.69.69,0,0,0-.24,0h-7.9a.75.75,0,0,0-.26,0,1,1,0,0,0-.21.15.86.86,0,0,0-.13.2.69.69,0,0,0,0,.24v3.48a.69.69,0,0,0,0,.24.86.86,0,0,0,.13.2.67.67,0,0,0,.47.18Zm22.16-4.75V30.92h1.34V20.41h5.25V19.07H101.53v1.34Zm13.63-1.34h1.35V30.92h-1.35Zm9.47,0V30.92h1.35V25.67h3.82l4.41,5.25h1.73l-5-5.91,5-5.91v0h-1.71l-4.41,5.26h-3.82V19.07Z" fill="#fff" fill-rule="evenodd"/><path d="M121.79,31h-1.4V19.05h1.4Zm-1.35-.05h1.3V19.1h-1.3Zm20.79.05h-1.77l-4.41-5.24h-3.78V31h-1.4V19.05h1.4V24.3h3.78l4.41-5.25h1.75v.05h0L136.26,25l5,5.89Zm-1.74-.05h1.67l-5-5.9,0,0,4.93-5.88h-1.66l-4.42,5.25h-3.85V19.1h-1.3V30.9h1.3V25.65h3.86ZM108.16,31h-1.39V20.43h-5.26V19.05h11.9v1.38h-5.25Zm-1.34-.05h1.29V20.38h5.25V19.1H101.55v1.28h5.27ZM94.46,31h-1.8L89,26.54l-4.95,0V31H82.63V19.06h9.9a2,2,0,0,1,1.4.6,1.94,1.94,0,0,1,.59,1.4v3.48a1.8,1.8,0,0,1-.14.76,2.07,2.07,0,0,1-1.09,1.09,2,2,0,0,1-.76.15H90.77l3.69,4.36Zm-1.77-.05H94.4l-3.74-4.41h1.87a1.85,1.85,0,0,0,.74-.15,1.79,1.79,0,0,0,.63-.42,2,2,0,0,0,.43-.64,2.07,2.07,0,0,0,.14-.74V21.06a1.94,1.94,0,0,0-.58-1.37,2,2,0,0,0-1.37-.58H82.68V30.9H84V26.47l5,0h0ZM75.07,31H64.2V19.05H75.06v1.38H65.59V24.3H73.2v1.4H65.59v3.86h9.47ZM64.26,30.9H75V29.61H65.54v-4h7.61v-1.3H65.54v-4H75V19.1H64.25ZM56.63,31H46.76A2.07,2.07,0,0,1,46,30.8a2.13,2.13,0,0,1-1.08-1.08,2.07,2.07,0,0,1-.15-.77v-7.9a2,2,0,0,1,.15-.77,2,2,0,0,1,.44-.65A1.94,1.94,0,0,1,46,19.2a2,2,0,0,1,.76-.15h9.87v1.38H46.76a.69.69,0,0,0-.24.05.66.66,0,0,0-.2.14.5.5,0,0,0-.13.19.69.69,0,0,0,0,.24V29a.59.59,0,0,0,0,.23.57.57,0,0,0,.13.21.63.63,0,0,0,.2.13.67.67,0,0,0,.24,0h9.87Zm-11.24-.62a1.79,1.79,0,0,0,.63.42,1.93,1.93,0,0,0,.75.15h9.81V29.61H46.76a.67.67,0,0,1-.48-.18.71.71,0,0,1-.19-.48v-7.9a.7.7,0,0,1,0-.25.6.6,0,0,1,.14-.21.62.62,0,0,1,.22-.15.6.6,0,0,1,.26-.05h9.82V19.1H46.76a2.07,2.07,0,0,0-.74.14,2,2,0,0,0-.64.43,2,2,0,0,0-.57,1.38V29a2,2,0,0,0,.15.75,1.88,1.88,0,0,0,.42.63Zm47.14-5.14h-7.9a.71.71,0,0,1-.48-.19.6.6,0,0,1-.14-.21.56.56,0,0,1-.05-.25V21.06a.56.56,0,0,1,.05-.25.6.6,0,0,1,.14-.21.71.71,0,0,1,.22-.15.75.75,0,0,1,.26-.05h7.9a.56.56,0,0,1,.25.05.8.8,0,0,1,.21.15.6.6,0,0,1,.14.21.74.74,0,0,1,.05.25v3.48a.74.74,0,0,1-.05.25A.77.77,0,0,1,93,25a.7.7,0,0,1-.21.14.74.74,0,0,1-.25.05Zm-7.9-4.74a.69.69,0,0,0-.24.05.48.48,0,0,0-.2.14.5.5,0,0,0-.13.19.68.68,0,0,0,0,.23v3.48a.64.64,0,0,0,0,.23.5.5,0,0,0,.13.19.62.62,0,0,0,.44.18h7.9a.59.59,0,0,0,.23-.05A.63.63,0,0,0,93,25a.64.64,0,0,0,.13-.19.62.62,0,0,0,0-.23V21.06a.66.66,0,0,0,0-.23.64.64,0,0,0-.13-.19.56.56,0,0,0-.2-.14.46.46,0,0,0-.23-.05Z" fill="#fff"/></svg>