<svg id="Layer_1" data-name="Layer 1" xmlns="http://www.w3.org/2000/svg" viewBox="0 0 150 50"><path d="M54.35,22.74a7.16,7.16,0,0,1,.48-2.82,7,7,0,0,1,1.54-2.41,7,7,0,0,1,2.36-1.62,7.35,7.35,0,0,1,2.82-.56A6.23,6.23,0,0,1,68,20l-2.29.77a4,4,0,0,0-4.15-3.12c-2.36,0-4.72,1.71-4.72,5.18s2.3,5.12,4.74,5.12a4.29,4.29,0,0,0,4.25-3.14l2.22.72a6.4,6.4,0,0,1-6.49,4.73,7.3,7.3,0,0,1-2.85-.54,7.11,7.11,0,0,1-3.92-4.08A7.11,7.11,0,0,1,54.35,22.74Z" fill="#fff"/><path d="M72.44,29.87H70.1V15.29h2.34V21a3.47,3.47,0,0,1,1.25-.93,3.38,3.38,0,0,1,1.53-.3c2.42,0,3.59,1.73,3.59,3.89v6.2H76.54v-5.8a2,2,0,0,0-.06-.84A1.89,1.89,0,0,0,75.35,22a1.81,1.81,0,0,0-.83-.13,1.92,1.92,0,0,0-.82.18,2.2,2.2,0,0,0-.69.48,2,2,0,0,0-.42.73,1.94,1.94,0,0,0-.1.83Z" fill="#fff"/><path d="M84,24.26l2.51-.39c.57-.08.73-.36.73-.71,0-.82-.56-1.49-1.86-1.49a1.86,1.86,0,0,0-.74.09,1.83,1.83,0,0,0-.65.37,1.85,1.85,0,0,0-.45.59,2,2,0,0,0-.17.73L81.27,23c.18-1.7,1.72-3.21,4.13-3.21,3,0,4.18,1.72,4.18,3.71v4.86a8.35,8.35,0,0,0,.12,1.58H87.52a5.81,5.81,0,0,1-.1-1.25,3.33,3.33,0,0,1-1.3,1.17,3.42,3.42,0,0,1-1.72.38,3.2,3.2,0,0,1-1.23-.15,3,3,0,0,1-1.07-.62,3.14,3.14,0,0,1-.74-1,2.94,2.94,0,0,1-.29-1.2C81.07,25.46,82.36,24.5,84,24.26Zm3.24,1.57v-.44l-2.56.38a1.36,1.36,0,0,0-.93.4,1.34,1.34,0,0,0-.38.93,1.31,1.31,0,0,0,.11.52,1.51,1.51,0,0,0,.32.43,1.37,1.37,0,0,0,.47.27,1.35,1.35,0,0,0,.53.05,2.24,2.24,0,0,0,1-.12,2.4,2.4,0,0,0,.85-.55,2.3,2.3,0,0,0,.6-1.87Z" fill="#fff"/><path d="M93.55,15.09a1.51,1.51,0,0,1,.59.11,1.56,1.56,0,0,1,.5.33A1.43,1.43,0,0,1,95,16a1.52,1.52,0,0,1,.12.59,1.54,1.54,0,0,1-1.52,1.52,1.51,1.51,0,0,1-1.08-.45,1.53,1.53,0,0,1,1-2.6ZM92.41,29.92V20.07h2.31v9.8Z" fill="#fff"/><path d="M100.08,29.87H97.74v-9.8H100v1.3a3.2,3.2,0,0,1,1.23-1.19,3.25,3.25,0,0,1,1.67-.4c2.39,0,3.54,1.73,3.54,3.89v6.2h-2.33v-5.8a1.91,1.91,0,0,0-2-2.18,2,2,0,0,0-.84.19,2,2,0,0,0-.7.51,2,2,0,0,0-.42.76,2.09,2.09,0,0,0-.08.86Z" fill="#fff"/><path d="M109.32,29.87V15.29h2.34V29.87Z" fill="#fff"/><path d="M115.84,15.09a1.53,1.53,0,0,1,1.08.45,1.5,1.5,0,0,1-.5,2.47,1.44,1.44,0,0,1-.87.09,1.46,1.46,0,0,1-.78-.42,1.54,1.54,0,0,1-.42-.77,1.47,1.47,0,0,1,.09-.88,1.51,1.51,0,0,1,1.4-.94Zm-1.15,14.83V20.07H117v9.8Z" fill="#fff"/><path d="M122.37,29.87H120v-9.8h2.27v1.3a3.29,3.29,0,0,1,1.24-1.19,3.25,3.25,0,0,1,1.67-.4c2.4,0,3.55,1.73,3.55,3.89v6.2h-2.34v-5.8a1.84,1.84,0,0,0-.06-.84,1.88,1.88,0,0,0-.42-.74,2.06,2.06,0,0,0-.7-.47,1.86,1.86,0,0,0-.84-.13,2,2,0,0,0-.84.19,2.11,2.11,0,0,0-.7.51,2.18,2.18,0,0,0-.42.76,2.08,2.08,0,0,0-.07.86Z" fill="#fff"/><path d="M136.76,24.21l4.12,5.66H138l-2.88-4-1.21,1.27v2.78H131.6V15.29h2.32V24l3.77-4h3.11Z" fill="#fff"/><path d="M26.65,11.35l10.11,5.81V28.81L26.68,34.65l-10.12-5.8V17.2Zm0-8.56L22.94,4.94,12.83,10.79,9.12,12.94V33.15l3.71,2.13L23,41.08l3.71,2.13,3.71-2.15,10.08-5.85,3.72-2.14V12.85l-3.72-2.13L30.34,4.92,26.63,2.79Z" fill="#fff"/></svg>