<svg xmlns="http://www.w3.org/2000/svg" viewBox="0 0 125.63 125.63"><path d="M126.81,60.32v7.36c-.09.84-.19,1.68-.28,2.53A62.13,62.13,0,0,1,111.59,105,61.59,61.59,0,0,1,74.7,125.86c-2.33.4-4.68.64-7,1H60.32l-2.41-.28a62,62,0,0,1-35.29-15.27A61.45,61.45,0,0,1,2.14,74.69c-.4-2.32-.64-4.67-1-7V60.32c.19-1.61.34-3.23.57-4.84A61.92,61.92,0,0,1,16.41,23,61.61,61.61,0,0,1,53.3,2.14c2.33-.4,4.68-.64,7-1h7.36c1.62.19,3.24.34,4.85.57A61.91,61.91,0,0,1,105.1,16.5a61.57,61.57,0,0,1,20.76,36.81C126.26,55.63,126.5,58,126.81,60.32Zm-62.68,11c.42.5.7.91,1.05,1.25q8.31,8.34,16.64,16.66a12.66,12.66,0,0,0,1.28,1.15,5.15,5.15,0,0,0,7.22-1c1.75-2.23,1.48-5-.77-7.28Q81,73.54,72.38,65l-1.09-1.15a12,12,0,0,0,1.18-.89L89.21,46.2a13.35,13.35,0,0,0,1.23-1.37,5.11,5.11,0,0,0-.13-6.26c-2.07-2.63-5.55-2.72-8.14-.14Q73.56,47,65,55.59c-.31.31-.64.6-1,.94l-1-1L46.22,38.81A13.87,13.87,0,0,0,45,37.66a5.14,5.14,0,0,0-7.3,1c-1.73,2.24-1.43,5,.84,7.28L55.57,63c.31.31.61.64,1,1l-1,1L38.84,81.76A13.85,13.85,0,0,0,37.68,83a5.14,5.14,0,0,0,.83,7.23c2.25,1.83,5.06,1.56,7.37-.73Q54.43,81,63,72.44C63.28,72.13,63.61,71.83,64.13,71.33Z" transform="translate(-1.19 -1.19)" fill="#00aeef"/></svg>