<svg id="Layer_1" data-name="Layer 1" xmlns="http://www.w3.org/2000/svg" viewBox="0 0 150 50"><path d="M29.07,27.18a1.16,1.16,0,0,1-1.2.08,1.79,1.79,0,0,1-.69-1.65V23.17c0-1.18-.46-2-1.24-2.25-1.32-.38-2.32,1.23-2.69,1.84l-2.33,3.78V21.92c0-1.06-.37-1.7-1-1.89-.43-.13-1.08-.07-1.71.89L13,29.31A9.26,9.26,0,0,1,11.89,25a9,9,0,1,1,18.05,0v.05a2.28,2.28,0,0,1-.87,2.14ZM32,25h0V25a11,11,0,1,0-11,11.25,10.9,10.9,0,0,0,7.5-3,1,1,0,0,0,0-1.44,1,1,0,0,0-1.4-.07l0,0a8.92,8.92,0,0,1-12.85-.61l4.71-7.56V27c0,1.67.65,2.21,1.2,2.37s1.37.05,2.25-1.37L25,23.84l.23-.35v2.12A3.74,3.74,0,0,0,26.9,29a3.13,3.13,0,0,0,3.23-.13A4.23,4.23,0,0,0,32,25ZM47.3,21.18a1,1,0,0,1,.49.84,1,1,0,0,1-.93.95,1.28,1.28,0,0,1-.35-.07,3.62,3.62,0,0,0-2.1-.72,3.17,3.17,0,0,0-3.11,3.37,3.15,3.15,0,0,0,3.11,3.35A3.44,3.44,0,0,0,46.75,28a.91.91,0,0,1,.55-.18.88.88,0,0,1,.88.89.93.93,0,0,1-.44.77,5.15,5.15,0,1,1-3.32-9.13A5.08,5.08,0,0,1,47.3,21.18Zm5.16,2.16A3.62,3.62,0,0,1,56,27a3.68,3.68,0,0,1-3.55,3.71A3.74,3.74,0,0,1,48.78,27,3.67,3.67,0,0,1,52.46,23.34Zm0,5.56A1.75,1.75,0,0,0,54,27a1.63,1.63,0,0,0-1.57-1.78A1.66,1.66,0,0,0,50.77,27,1.78,1.78,0,0,0,52.45,28.9Zm4.77.68V24.45a1,1,0,0,1,1-1,1,1,0,0,1,1,1v5.13a1,1,0,0,1-1,1A1,1,0,0,1,57.22,29.58Zm-.16-8.08a1.17,1.17,0,0,1,1.15-1.2,1.19,1.19,0,0,1,1.18,1.2,1.17,1.17,0,0,1-1.18,1.16A1.15,1.15,0,0,1,57.06,21.5Zm6,5.3v2.78a1,1,0,0,1-1,1,1,1,0,0,1-1-1V24.22a.8.8,0,0,1,.78-.79.78.78,0,0,1,.76.79,3,3,0,0,1,2.19-.88c2,0,2.87,1.51,2.87,3.21v3a1,1,0,1,1-2,0V26.8c0-.88-.11-1.61-1.36-1.61-.88,0-1.25.73-1.25,1.61Zm11.09,1.06a.65.65,0,0,1-.51-.25l-2.33-2.53v4.5a1,1,0,0,1-1,1,1,1,0,0,1-1-1V20.67a.41.41,0,0,1,.38-.25c.17,0,.31.15.42.25l3.71,4.18a.54.54,0,0,0,.31.2.58.58,0,0,0,.32-.2l3.71-4.18a.65.65,0,0,1,.42-.25.39.39,0,0,1,.37.25v8.91a1,1,0,0,1-1,1,1,1,0,0,1-1-1v-4.5l-2.33,2.53a.67.67,0,0,1-.48.25Zm9.59,1A1.78,1.78,0,0,0,85.38,27a1.7,1.7,0,0,0-1.66-1.81A1.65,1.65,0,0,0,82.14,27,1.76,1.76,0,0,0,83.72,28.9Zm2.12.91,0-.23a2.89,2.89,0,0,1-2.42,1.11A3.48,3.48,0,0,1,80.14,27a3.45,3.45,0,0,1,3.35-3.64,3.11,3.11,0,0,1,2.32,1.11l0-.23a.78.78,0,0,1,.76-.79.8.8,0,0,1,.78.79v5.59a.8.8,0,0,1-.78.79.78.78,0,0,1-.76-.79Zm7.07-4.62H92.7a1.39,1.39,0,0,0-1.5,1.61v2.78a1,1,0,0,1-1,1,1,1,0,0,1-1-1V24.22a.8.8,0,0,1,.78-.79.77.77,0,0,1,.76.79,2.84,2.84,0,0,1,2-.88h.19a.93.93,0,0,1,0,1.85Zm7.69,3.92a.9.9,0,0,1,.14.48,1.05,1.05,0,0,1-1,1,1.23,1.23,0,0,1-.88-.56l-2.3-2.67v2.21a1,1,0,1,1-2,0V21.44a1,1,0,1,1,2,0v5.07L98.87,24a1.23,1.23,0,0,1,.86-.54,1,1,0,0,1,1,1,.84.84,0,0,1-.13.46l-1.81,2,1.85,2.24Zm3.91-3.89c-.55,0-1.43.29-1.43,1.13H106c0-.86-.92-1.13-1.45-1.13Zm2.61,2.4h-4c0,1.2,1.15,1.38,1.66,1.38a3.44,3.44,0,0,0,1.3-.25,1,1,0,0,1,.52-.16.83.83,0,0,1,.81.83.86.86,0,0,1-.44.71,3.66,3.66,0,0,1-2.17.56,3.37,3.37,0,0,1-3.69-3.62c0-2,1-3.73,3.4-3.73a3.29,3.29,0,0,1,3.43,3.5.79.79,0,0,1-.78.78Zm5.55,3.07h-.54c-1.52,0-2.41-.67-2.41-3.05V25.19h-.51a.94.94,0,0,1-.9-.92.93.93,0,0,1,.9-.93h.51v-1.9a1,1,0,0,1,1-1,1,1,0,0,1,1,1v1.9h.83a.92.92,0,0,1,.9.93.93.93,0,0,1-.9.92h-.83v2.06c0,1.36.07,1.65.67,1.65h.28a.88.88,0,0,1,.88.89.9.9,0,0,1-.88.9Zm9.67-9.51a1.07,1.07,0,0,1,.49.84,1,1,0,0,1-.93.95,1.35,1.35,0,0,1-.36-.07,3.57,3.57,0,0,0-2.1-.72,3.16,3.16,0,0,0-3.1,3.37,3.15,3.15,0,0,0,3.1,3.35,3.46,3.46,0,0,0,2.35-.95.91.91,0,0,1,.55-.18.88.88,0,0,1,.88.89,1,1,0,0,1-.44.77,5.16,5.16,0,1,1-3.32-9.13,5.1,5.1,0,0,1,2.88.88Zm5,7.72a1.78,1.78,0,0,0,1.66-1.9,1.7,1.7,0,0,0-1.66-1.81A1.65,1.65,0,0,0,125.81,27a1.76,1.76,0,0,0,1.58,1.9Zm2.12.91,0-.23a2.89,2.89,0,0,1-2.42,1.11A3.48,3.48,0,0,1,123.81,27a3.45,3.45,0,0,1,3.35-3.64,3.11,3.11,0,0,1,2.32,1.11l0-.23a.78.78,0,0,1,.76-.79.8.8,0,0,1,.78.79v5.59a.8.8,0,0,1-.78.79A.78.78,0,0,1,129.51,29.81Zm7-.91a1.76,1.76,0,0,0,1.59-1.9,1.66,1.66,0,0,0-1.59-1.81A1.7,1.7,0,0,0,134.87,27,1.78,1.78,0,0,0,136.53,28.9Zm-1.66,1.2v2.54a1,1,0,0,1-1,1,1,1,0,0,1-1-1V24.22a.77.77,0,1,1,1.54.07,3.18,3.18,0,0,1,2.35-.95A3.45,3.45,0,0,1,140.11,27a3.48,3.48,0,0,1-3.25,3.71,3.65,3.65,0,0,1-2-.59Z" fill="#fff" fill-rule="evenodd"/></svg>