<svg id="Layer_1" data-name="Layer 1" xmlns="http://www.w3.org/2000/svg" viewBox="0 0 150 50"><g id="Coin_Gecko_Vector_Text" data-name="Coin Gecko Vector Text"><path d="M63.28,21.16a3,3,0,0,0-3.11-2.48c-2.68,0-3.79,2.36-3.79,4.76s1.11,4.75,3.79,4.75c1.94,0,3-1.45,3.18-3.27h2.14A5.12,5.12,0,0,1,60.17,30c-3.74,0-6-3-6-6.54s2.23-6.55,6-6.55c2.81,0,5,1.57,5.29,4.27Z" fill="#fff"/><path d="M66.78,25.14c0-2.76,1.66-4.75,4.56-4.75s4.56,2,4.56,4.75-1.66,4.78-4.56,4.78S66.78,27.93,66.78,25.14Zm7.13,0c0-1.55-.79-3.18-2.57-3.18s-2.57,1.63-2.57,3.18.79,3.2,2.57,3.2S73.91,26.72,73.91,25.14Z" fill="#fff"/><path d="M77.62,17.19h2v1.89h-2Zm0,3.44h2v9h-2Z" fill="#fff"/><path d="M81.78,20.63h1.89V22l0,0a3.25,3.25,0,0,1,2.82-1.61c2,0,3.2,1.05,3.2,3.07v6.21h-2V24c0-1.42-.6-2-1.77-2a2.21,2.21,0,0,0-2.19,2.38v5.33h-2Z" fill="#fff"/><path d="M103,29.67h-1.4l-.33-1.47A4.5,4.5,0,0,1,97.5,30c-3.74,0-6-3-6-6.54s2.24-6.54,6-6.54c2.72,0,5,1.45,5.35,4.27h-2.13a3,3,0,0,0-3.22-2.49c-2.67,0-3.79,2.36-3.79,4.76s1.12,4.76,3.79,4.76a3.18,3.18,0,0,0,3.5-3.43H97.68V23.1H103Z" fill="#fff"/><path d="M106.65,25.67a2.4,2.4,0,0,0,2.43,2.67,2.09,2.09,0,0,0,2.2-1.5h1.89a4,4,0,0,1-4.09,3.08c-2.83,0-4.43-2-4.43-4.76,0-2.57,1.69-4.77,4.38-4.77,2.85,0,4.59,2.57,4.26,5.28Zm4.65-1.31a2.33,2.33,0,1,0-4.65,0Z" fill="#fff"/><path d="M120.92,23.66a1.92,1.92,0,0,0-2.07-1.7c-1,0-2.48.54-2.48,3.29,0,1.5.66,3.09,2.4,3.09a2.15,2.15,0,0,0,2.15-2.06h2a3.89,3.89,0,0,1-4.14,3.64c-2.84,0-4.39-2-4.39-4.67s1.48-4.86,4.46-4.86c2.09,0,3.88,1.05,4.07,3.27Z" fill="#fff"/><path d="M124.59,17.19h2v7.1l3.6-3.66h2.45L129.18,24,133,29.67h-2.44l-2.76-4.39-1.19,1.16v3.24h-2Z" fill="#fff"/><path d="M133.51,25.14c0-2.76,1.66-4.75,4.56-4.75s4.57,2,4.57,4.75-1.67,4.78-4.57,4.78S133.51,27.93,133.51,25.14Zm7.13,0c0-1.55-.79-3.18-2.57-3.18s-2.57,1.63-2.57,3.18.79,3.2,2.57,3.2S140.64,26.72,140.64,25.14Z" fill="#fff"/></g><g id="Coin_Gecko_AI" data-name="Coin Gecko AI"><path d="M43.12,24.92a17.88,17.88,0,1,1-18-17.8h0A17.89,17.89,0,0,1,43.12,24.92Z" fill="#8dc63f"/><path d="M41.78,24.93A16.54,16.54,0,1,1,25.17,8.47h0A16.54,16.54,0,0,1,41.78,24.93Z" fill="#f9e988"/><path d="M25.54,9.54a8.94,8.94,0,0,1,3.18,0,9.66,9.66,0,0,1,3,1,18.42,18.42,0,0,1,2.57,1.88c.81.66,1.61,1.33,2.38,2.07a12.3,12.3,0,0,1,2,2.46,14.2,14.2,0,0,1,1.42,2.87,13.15,13.15,0,0,1,.59,6.3h-.11a28.84,28.84,0,0,0-1.55-5.91,25,25,0,0,0-1.22-2.75,28.53,28.53,0,0,0-1.61-2.58,9.51,9.51,0,0,0-2.16-2.18,12.92,12.92,0,0,0-2.74-1.35c-.93-.37-1.86-.75-2.83-1s-2-.49-3-.69Z" fill="#fff"/><path d="M33.63,19.09c-1.2-.35-2.45-.84-3.71-1.33a2.57,2.57,0,0,0-.91-1.2c-.83-.71-2.37-.69-3.71-.37A9.22,9.22,0,0,0,21,16.06C9.54,19.2,16,26.89,11.83,34.61c.59,1.27,7,8.66,16.35,6.68,0,0-3.19-7.66,4-11.33C38,27,42.22,21.43,33.63,19.09Z" fill="#8bc53f"/><path d="M35,24.12a.7.7,0,1,1-1.39,0,.7.7,0,1,1,1.39,0Z" fill="#fff"/><path d="M25.3,16.18a17.18,17.18,0,0,1,4.62,1.57c-.64-1.88-2.82-2.13-4.62-1.57Z" fill="#009345"/><path d="M26.09,20.93a3.2,3.2,0,1,1-3.19-3.2h0a3.19,3.19,0,0,1,3.19,3.2Z" fill="#fff"/><path d="M25.15,21a2.25,2.25,0,1,1-2.25-2.25h0A2.25,2.25,0,0,1,25.15,21Z" fill="#58595b"/><path d="M37.63,25.53a16,16,0,0,1-9.72,3.21c-1.95,0-2.35-2.07-3.64-1.06a9.26,9.26,0,0,1-4.89,1.61,6.07,6.07,0,0,1-5.73-5.17c-.34,4-.51,6.92-2,10.29,3,4.77,10.09,8.45,16.54,6.86-.7-4.84,3.53-9.57,5.91-12a32.14,32.14,0,0,0,3.54-3.74Z" fill="#8bc53f"/><path d="M37.53,25.65a11.93,11.93,0,0,1-2.74,1.75,16.84,16.84,0,0,1-3.07,1.12,9.78,9.78,0,0,1-3.28.38,4.46,4.46,0,0,1-3-1.32l0,0a5.73,5.73,0,0,0,3,.83,14.38,14.38,0,0,0,3.14-.26,17,17,0,0,0,3.06-.95,11.49,11.49,0,0,0,2.81-1.55Z" fill="#58595b"/></g></svg>