<?xml version="1.0" encoding="utf-8"?>
<!-- Generator: Adobe Illustrator 24.1.1, SVG Export Plug-In . SVG Version: 6.00 Build 0)  -->
<svg version="1.1" id="Layer_1" xmlns="http://www.w3.org/2000/svg" xmlns:xlink="http://www.w3.org/1999/xlink" x="0px" y="0px"
	 viewBox="0 0 300 200" style="enable-background:new 0 0 300 200;" xml:space="preserve">
<style type="text/css">
	.st0{display:none;fill:#450085;}
	.st1{fill:none;}
	.st2{fill:#FFFFFF;}
	.st3{fill:#028000;}
	.st4{fill:#A18600;}
	.st5{fill:#255D87;}
	.st6{fill:#800303;}
</style>
<rect x="-6.5" y="-12.9" class="st0" width="313" height="225.4"/>
<g>
	<path class="st1" d="M161,30.6c0-0.2,0-0.3,0-0.3c0-0.1-0.1-0.1-0.3-0.1s-0.4,0-0.7,0h-0.7c-0.4,0-0.6,0.2-0.6,0.5v0.2h2.3V30.6z"
		/>
	<path class="st1" d="M169.2,189.9c-0.1,0.1-0.1,0.2-0.1,0.3c0,0.2,0,0.3,0.1,0.3c0.1,0,0.2,0.1,0.3,0.1h1.7c0.2,0,0.3,0,0.3,0
		c0,0,0-0.1,0-0.3v-0.4h-2C169.4,189.8,169.3,189.8,169.2,189.9z"/>
	<path class="st1" d="M169.1,16.2h1.9c0.4,0,0.7-0.2,0.7-0.6V14c0-0.2,0-0.3-0.1-0.4c-0.1-0.1-0.3-0.1-0.6-0.1h-0.1
		c-0.6,0-1.1,0-1.4,0c-0.3,0-0.6,0.1-0.8,0.1v2.2c0,0.2,0,0.3,0.1,0.4S168.9,16.2,169.1,16.2z"/>
	<path class="st1" d="M188.7,109c0-7.4,5.3-13.6,12.4-15c-2.3-7-6-13.4-10.8-18.9l-10.6-2.5l3.8-4c-5.4-4.3-11.6-7.6-18.4-9.6
		c-1.4,7.1-7.6,12.4-15,12.4c-7.4,0-13.7-5.3-15-12.4c-5,1.5-9.8,3.7-14.1,6.5l-3.4,9.5l-3.5-4.2c-6.8,6.2-12,14.1-14.9,23
		c6.9,1.5,12.1,7.6,12.1,15c0,7.7-5.7,14-13,15.1c2.3,9,7,17.2,13.3,23.7l10.6,1.8l-3.6,4.4c5,3.7,10.6,6.5,16.7,8.2
		c1.4-7.1,7.6-12.4,15-12.4c7.4,0,13.7,5.3,15,12.4c5.6-1.6,10.8-4.1,15.4-7.4l3.6-10.2l3.6,4.2c6.7-6.6,11.7-15,14.2-24.5
		C194.4,123.1,188.7,116.8,188.7,109z"/>
	<path class="st1" d="M142.6,32.3h1.6c0.2,0,0.3,0,0.3,0c0,0,0-0.1,0-0.3v-1.8c-0.2,0-0.3,0-0.5,0c-0.2,0-0.3,0-0.6,0
		c-0.2,0-0.5,0-0.8,0h-0.1c-0.4,0-0.6,0.2-0.6,0.5v1.3C142.1,32.2,142.2,32.3,142.6,32.3z"/>
	<path class="st1" d="M180.9,14c0-0.2,0-0.3,0-0.4c0-0.1-0.1-0.1-0.3-0.1c-0.2,0-0.5,0-0.9,0h-0.8c-0.4,0-0.7,0.2-0.7,0.6v0.2h2.7
		V14z"/>
	<path class="st1" d="M66.1,109.3h-1.4c-0.2,0-0.4,0-0.4,0.1s-0.1,0.2-0.1,0.4v1.4c0,0.3,0.2,0.5,0.6,0.5h1.4c0.4,0,0.6-0.2,0.6-0.5
		v-1.4c0-0.2,0-0.3-0.1-0.4S66.3,109.3,66.1,109.3z"/>
	<path class="st1" d="M121.1,16.2h1.7c0.4,0,0.7-0.2,0.7-0.6V14c0-0.2,0-0.3-0.1-0.4c-0.1-0.1-0.3-0.1-0.5-0.1h-1.7
		c-0.2,0-0.4,0-0.5,0.1c-0.1,0.1-0.2,0.2-0.2,0.4v1.6C120.4,16,120.6,16.2,121.1,16.2z"/>
	<path class="st1" d="M131.5,186.6H129v1.9h2.5c0.3,0,0.4-0.1,0.6-0.2c0.1-0.1,0.2-0.3,0.2-0.5v-0.6c0-0.2,0-0.4-0.1-0.5
		C132,186.6,131.8,186.6,131.5,186.6z"/>
	<path class="st1" d="M140.4,14c0-0.2,0-0.3,0-0.4c0-0.1-0.1-0.1-0.3-0.1c-0.2,0-0.5,0-0.9,0h-0.8c-0.4,0-0.7,0.2-0.7,0.6v0.2h2.7
		V14z"/>
	<path class="st1" d="M134,31.9c-0.1,0.1-0.1,0.2-0.1,0.3c0,0.2,0,0.3,0.1,0.3c0.1,0,0.2,0.1,0.3,0.1h1.7c0.2,0,0.3,0,0.3,0
		c0,0,0-0.1,0-0.3v-0.4h-2C134.2,31.8,134.1,31.8,134,31.9z"/>
	<path class="st1" d="M141.9,189.9c-0.1,0.1-0.1,0.2-0.1,0.3c0,0.2,0,0.3,0.1,0.3c0.1,0,0.2,0.1,0.3,0.1h1.7c0.2,0,0.3,0,0.3,0
		c0,0,0-0.1,0-0.3v-0.4h-2C142,189.8,141.9,189.8,141.9,189.9z"/>
	<path class="st1" d="M287.5,111.1c-0.1,0.1-0.1,0.2-0.1,0.3c0,0.2,0,0.3,0.1,0.3c0.1,0,0.2,0.1,0.3,0.1h1.7c0.2,0,0.3,0,0.3,0
		s0-0.1,0-0.3V111h-2C287.7,111,287.6,111,287.5,111.1z"/>
	<path class="st1" d="M259.9,111.1c-0.1,0.1-0.1,0.2-0.1,0.3c0,0.2,0,0.3,0.1,0.3c0.1,0,0.2,0.1,0.3,0.1h1.7c0.2,0,0.3,0,0.3,0
		c0,0,0-0.1,0-0.3V111h-2C260.1,111,260,111,259.9,111.1z"/>
	<path class="st1" d="M238.6,109.8c0-0.2,0-0.3,0-0.3c0-0.1-0.1-0.1-0.3-0.1c-0.1,0-0.4,0-0.7,0h-0.7c-0.4,0-0.6,0.2-0.6,0.5v0.2
		h2.3V109.8z"/>
	<path class="st2" d="M110.1,18h3.6c0.8,0,1.4,0,1.9-0.1c0.5-0.1,0.8-0.2,1-0.3c0.2-0.1,0.3-0.2,0.3-0.2l-0.9-1.5
		c-0.1,0-0.6,0.1-1.3,0.1c-0.7,0-1.7,0-3.1,0h-0.6c-0.5,0-0.8-0.1-0.9-0.3c-0.1-0.2-0.2-0.4-0.2-0.7v-2.4c0-0.3,0.1-0.6,0.2-0.7
		c0.2-0.2,0.5-0.2,0.9-0.2h0.7c1,0,1.9,0,2.6,0c0.7,0,1.1,0.1,1.4,0.1l0.4-1.8c0-0.1-0.2-0.1-0.5-0.2c-0.3-0.1-0.8-0.1-1.5-0.1h-4.1
		c-0.9,0-1.6,0.2-2.1,0.7c-0.5,0.5-0.7,1.2-0.7,2.2v2.6c0,1,0.2,1.7,0.7,2.1C108.4,17.8,109.1,18,110.1,18z"/>
	<path class="st2" d="M118.6,17.7c0.3,0.2,0.8,0.3,1.4,0.3h3.9c0.6,0,1.1-0.1,1.4-0.3c0.3-0.2,0.5-0.4,0.6-0.7s0.1-0.7,0.1-1.1v-2.1
		c0-0.4,0-0.7-0.1-1.1s-0.3-0.6-0.6-0.7c-0.3-0.2-0.8-0.3-1.4-0.3H120c-0.6,0-1.1,0.1-1.4,0.3c-0.3,0.2-0.5,0.4-0.6,0.7
		s-0.2,0.7-0.2,1.1v2.1c0,0.4,0,0.8,0.1,1.1S118.3,17.5,118.6,17.7z M120.4,14c0-0.2,0.1-0.3,0.2-0.4c0.1-0.1,0.3-0.1,0.5-0.1h1.7
		c0.2,0,0.4,0,0.5,0.1c0.1,0.1,0.1,0.2,0.1,0.4v1.6c0,0.4-0.2,0.6-0.7,0.6h-1.7c-0.4,0-0.7-0.2-0.7-0.6V14z"/>
	<path class="st2" d="M130.1,14.1c0-0.3,0.1-0.5,0.2-0.6c0.1-0.1,0.3-0.1,0.6-0.1h0.2c0.4,0,0.7,0,1.1,0.1c0.3,0.1,0.6,0.2,0.9,0.3
		c0.3,0.1,0.4,0.2,0.5,0.3l0.7-1.8c-0.1,0-0.2-0.1-0.4-0.2c-0.2-0.1-0.5-0.2-0.9-0.3c-0.4-0.1-0.8-0.1-1.2-0.1
		c-0.7,0-1.3,0.1-1.7,0.4l-0.5-0.3h-2V18h2.5V14.1z"/>
	<path class="st2" d="M135.9,17.7c0.3,0.2,0.8,0.3,1.4,0.3h3c0.7,0,1.3,0,1.7-0.1s0.7-0.1,0.8-0.2c0.2-0.1,0.2-0.2,0.2-0.3l-0.8-1.3
		c-0.3,0-0.8,0.1-1.4,0.1c-0.6,0-1.3,0-2.1,0h-0.4c-0.5,0-0.7-0.2-0.7-0.6v-0.2c0.2,0,0.5,0,0.9,0.1c0.4,0,1.1,0.1,1.9,0.1h2.5v-1.8
		c0-0.4-0.1-0.8-0.2-1.1c-0.1-0.3-0.4-0.6-0.8-0.7c-0.4-0.2-0.9-0.3-1.7-0.3h-2.9c-0.6,0-1.1,0.1-1.4,0.3c-0.3,0.2-0.6,0.4-0.7,0.8
		c-0.1,0.3-0.2,0.7-0.2,1v2.1c0,0.4,0.1,0.8,0.2,1.1C135.4,17.3,135.6,17.5,135.9,17.7z M137.7,14c0-0.4,0.2-0.6,0.7-0.6h0.8
		c0.4,0,0.7,0,0.9,0c0.2,0,0.3,0.1,0.3,0.1c0,0.1,0,0.2,0,0.4v0.2h-2.7V14z"/>
	<polygon class="st2" points="150.4,18 153.1,18 153.1,11.6 156.5,11.6 156.5,9.7 147,9.7 147,11.6 150.4,11.6 	"/>
	<path class="st2" d="M160.2,18c-0.4,0.6-1,1-1.8,1h-0.2c-0.3,0-0.6,0-0.9-0.1c-0.3-0.1-0.6-0.2-0.9-0.3l-0.6,1.7
		c0.2,0.1,0.4,0.2,0.9,0.3c0.4,0.1,0.9,0.1,1.4,0.1h0.4c0.9,0,1.6-0.2,2.2-0.7c0.6-0.4,1.1-1.1,1.6-2.1c0.2-0.4,0.4-0.8,0.6-1.2
		s0.5-1,0.7-1.5c0.2-0.5,0.5-1,0.7-1.5c0.2-0.5,0.4-0.9,0.6-1.3l0.2-0.9h-2.8l-1.2,3.7l-0.2,0.9h-0.1l-0.2-0.9l-1.2-3.7h-2.8
		l2.7,6.3H160.2z"/>
	<path class="st2" d="M168.7,17.8c0.3,0,0.7,0.1,1.2,0.1s1,0.1,1.5,0.1h0.4c0.6,0,1.1-0.1,1.5-0.3s0.6-0.4,0.7-0.7s0.2-0.7,0.2-1.1
		v-2.1c0-0.4,0-0.7-0.1-1s-0.3-0.6-0.6-0.8c-0.3-0.2-0.8-0.3-1.4-0.3h-0.4c-0.7,0-1.4,0-1.8,0.1c-0.5,0-0.9,0.1-1.4,0.1l-0.3-0.2h-2
		v8.9h2.5V17.8z M168.7,13.6c0.2,0,0.4,0,0.8-0.1c0.3,0,0.8,0,1.4,0h0.1c0.3,0,0.5,0,0.6,0.1c0.1,0.1,0.1,0.2,0.1,0.4v1.6
		c0,0.4-0.2,0.6-0.7,0.6h-1.9c-0.2,0-0.3,0-0.4-0.1s-0.1-0.2-0.1-0.4V13.6z"/>
	<path class="st2" d="M176.5,17.7c0.3,0.2,0.8,0.3,1.4,0.3h3c0.7,0,1.3,0,1.7-0.1s0.7-0.1,0.8-0.2c0.2-0.1,0.2-0.2,0.2-0.3l-0.8-1.3
		c-0.3,0-0.8,0.1-1.4,0.1c-0.6,0-1.3,0-2.1,0h-0.4c-0.5,0-0.7-0.2-0.7-0.6v-0.2c0.2,0,0.5,0,0.9,0.1c0.4,0,1.1,0.1,1.9,0.1h2.5v-1.8
		c0-0.4-0.1-0.8-0.2-1.1c-0.1-0.3-0.4-0.6-0.8-0.7c-0.4-0.2-0.9-0.3-1.7-0.3h-2.9c-0.6,0-1.1,0.1-1.4,0.3c-0.3,0.2-0.6,0.4-0.7,0.8
		c-0.1,0.3-0.2,0.7-0.2,1v2.1c0,0.4,0.1,0.8,0.2,1.1C175.9,17.3,176.2,17.5,176.5,17.7z M178.2,14c0-0.4,0.2-0.6,0.7-0.6h0.8
		c0.4,0,0.7,0,0.9,0c0.2,0,0.3,0.1,0.3,0.1c0,0.1,0,0.2,0,0.4v0.2h-2.7V14z"/>
	<path class="st2" d="M189.9,16.4h-1c-1.1,0-1.9,0-2.4,0c-0.6,0-0.9-0.1-1-0.1l-0.6,1.5c0,0.1,0.1,0.1,0.4,0.2
		c0.3,0.1,0.7,0.1,1.3,0.1h4.3c0.7,0,1.1-0.1,1.4-0.3c0.3-0.2,0.5-0.4,0.6-0.7c0.1-0.3,0.1-0.6,0.1-0.9v-0.3c0-0.6-0.2-1-0.5-1.3
		c-0.3-0.3-0.9-0.5-1.6-0.5H188c-0.2,0-0.4,0-0.4-0.1c-0.1-0.1-0.1-0.1-0.1-0.3s0-0.2,0.1-0.3c0.1-0.1,0.2-0.1,0.4-0.1h1
		c1.1,0,1.9,0,2.5,0c0.6,0,1,0.1,1.1,0.1l0.1-1.5c0-0.1-0.1-0.1-0.4-0.2s-0.6-0.1-1.2-0.1h-4.1c-0.6,0-1.1,0.1-1.4,0.3
		c-0.3,0.2-0.5,0.4-0.6,0.7c-0.1,0.3-0.1,0.6-0.1,0.9v0.3c0,0.7,0.2,1.1,0.6,1.4c0.4,0.3,0.9,0.4,1.6,0.4h2.8c0.2,0,0.4,0,0.4,0.1
		s0.1,0.1,0.1,0.3c0,0.1,0,0.2-0.1,0.3C190.3,16.3,190.1,16.4,189.9,16.4z"/>
	<polygon class="st2" points="29.4,107.1 29.4,113.2 31.7,113.2 31.7,110.5 35.7,110.5 35.7,108.9 31.7,108.9 31.7,107.8 37,107.8 
		37,106.1 29.3,106.1 	"/>
	<path class="st2" d="M39.2,105.3c-0.4,0-0.7,0.1-0.9,0.2c-0.2,0.1-0.3,0.4-0.3,0.8c0,0.7,0.4,1,1.2,1c0.8,0,1.2-0.3,1.2-1
		c0-0.4-0.1-0.7-0.3-0.8C39.9,105.3,39.6,105.3,39.2,105.3z"/>
	<rect x="38.1" y="107.8" class="st2" width="2.2" height="5.4"/>
	<path class="st2" d="M46.8,109.8h-2.5c-0.2,0-0.3,0-0.4-0.1c-0.1,0-0.1-0.1-0.1-0.2c0-0.1,0-0.2,0.1-0.2c0.1,0,0.2-0.1,0.4-0.1h0.9
		c0.9,0,1.6,0,2.1,0c0.5,0,0.8,0.1,1,0.1l0.1-1.3c0-0.1-0.1-0.1-0.3-0.2c-0.2-0.1-0.5-0.1-1-0.1h-3.6c-0.5,0-0.9,0.1-1.2,0.2
		c-0.3,0.1-0.4,0.3-0.5,0.6c-0.1,0.2-0.1,0.5-0.1,0.8v0.2c0,0.6,0.2,1,0.5,1.2c0.3,0.2,0.8,0.3,1.4,0.3H46c0.2,0,0.3,0,0.4,0.1
		c0.1,0,0.1,0.1,0.1,0.3c0,0.1,0,0.2-0.1,0.2c-0.1,0-0.2,0.1-0.4,0.1h-0.9c-0.9,0-1.6,0-2.1,0c-0.5,0-0.8-0.1-0.9-0.1l-0.5,1.3
		c0,0.1,0.1,0.1,0.3,0.2c0.2,0.1,0.6,0.1,1.1,0.1h3.6c0.6,0,1-0.1,1.2-0.2c0.3-0.2,0.4-0.4,0.5-0.6c0.1-0.2,0.1-0.5,0.1-0.8v-0.2
		c0-0.5-0.1-0.9-0.4-1.1C47.9,109.9,47.5,109.8,46.8,109.8z"/>
	<path class="st2" d="M55,109.8h-2.5c-0.2,0-0.3,0-0.4-0.1c-0.1,0-0.1-0.1-0.1-0.2c0-0.1,0-0.2,0.1-0.2c0.1,0,0.2-0.1,0.4-0.1h0.9
		c0.9,0,1.6,0,2.1,0c0.5,0,0.8,0.1,1,0.1l0.1-1.3c0-0.1-0.1-0.1-0.3-0.2c-0.2-0.1-0.5-0.1-1-0.1h-3.6c-0.5,0-0.9,0.1-1.2,0.2
		c-0.3,0.1-0.4,0.3-0.5,0.6c-0.1,0.2-0.1,0.5-0.1,0.8v0.2c0,0.6,0.2,1,0.5,1.2c0.3,0.2,0.8,0.3,1.4,0.3h2.4c0.2,0,0.3,0,0.4,0.1
		c0.1,0,0.1,0.1,0.1,0.3c0,0.1,0,0.2-0.1,0.2c-0.1,0-0.2,0.1-0.4,0.1h-0.9c-0.9,0-1.6,0-2.1,0c-0.5,0-0.8-0.1-0.9-0.1l-0.5,1.3
		c0,0.1,0.1,0.1,0.3,0.2c0.2,0.1,0.6,0.1,1.1,0.1H55c0.6,0,1-0.1,1.2-0.2c0.3-0.2,0.4-0.4,0.5-0.6c0.1-0.2,0.1-0.5,0.1-0.8v-0.2
		c0-0.5-0.1-0.9-0.4-1.1C56.1,109.9,55.6,109.8,55,109.8z"/>
	<rect x="58.2" y="107.8" class="st2" width="2.2" height="5.4"/>
	<path class="st2" d="M59.3,105.3c-0.4,0-0.7,0.1-0.9,0.2c-0.2,0.1-0.3,0.4-0.3,0.8c0,0.7,0.4,1,1.2,1c0.8,0,1.2-0.3,1.2-1
		c0-0.4-0.1-0.7-0.3-0.8C60.1,105.3,59.8,105.3,59.3,105.3z"/>
	<path class="st2" d="M68.2,108.1c-0.3-0.2-0.7-0.2-1.2-0.2h-3.3c-0.5,0-0.9,0.1-1.2,0.2c-0.3,0.2-0.4,0.4-0.5,0.6
		c-0.1,0.3-0.1,0.6-0.1,0.9v1.8c0,0.4,0,0.7,0.1,0.9c0.1,0.3,0.3,0.5,0.5,0.6c0.3,0.2,0.7,0.2,1.2,0.2H67c0.5,0,0.9-0.1,1.2-0.2
		c0.3-0.2,0.4-0.4,0.5-0.6c0.1-0.3,0.1-0.6,0.1-0.9v-1.8c0-0.3,0-0.6-0.1-0.9C68.7,108.4,68.5,108.2,68.2,108.1z M66.7,111.2
		c0,0.3-0.2,0.5-0.6,0.5h-1.4c-0.4,0-0.6-0.2-0.6-0.5v-1.4c0-0.2,0-0.3,0.1-0.4s0.2-0.1,0.4-0.1h1.4c0.2,0,0.4,0,0.4,0.1
		s0.1,0.2,0.1,0.4V111.2z"/>
	<path class="st2" d="M77,108.4c-0.1-0.2-0.2-0.3-0.5-0.4s-0.5-0.2-0.9-0.2H75c-0.4,0-0.9,0-1.3,0.1c-0.5,0-0.9,0.1-1.2,0.2
		l-0.5-0.2h-1.7v5.4h2.2v-3.6c0-0.1,0-0.2,0.1-0.2c0,0,0.1,0,0.3,0h1.6c0.4,0,0.6,0.2,0.6,0.5v3.4h2.2v-3.8c0-0.1,0-0.3,0-0.4
		C77.1,108.8,77,108.6,77,108.4z"/>
	<polygon class="st2" points="227.6,110.3 225.5,106.1 222.6,106.1 222.7,107.1 222.7,113.2 225,113.2 225,109.2 225.1,109.2 
		225.6,110.5 226.5,112.5 228.7,112.5 229.6,110.5 230.1,109.2 230.2,109.2 230.2,113.2 232.5,113.2 232.5,106.1 229.8,106.1 	"/>
	<path class="st2" d="M239,111.6c-0.5,0-1.1,0-1.8,0h-0.4c-0.4,0-0.6-0.2-0.6-0.5V111c0.2,0,0.4,0,0.8,0.1c0.4,0,0.9,0,1.6,0h2.1
		v-1.5c0-0.4-0.1-0.7-0.2-0.9c-0.1-0.3-0.4-0.5-0.7-0.6c-0.3-0.1-0.8-0.2-1.4-0.2H236c-0.5,0-0.9,0.1-1.2,0.2s-0.5,0.4-0.6,0.6
		c-0.1,0.3-0.2,0.6-0.2,0.9v1.8c0,0.4,0.1,0.7,0.2,0.9c0.1,0.3,0.3,0.5,0.6,0.6c0.3,0.2,0.7,0.2,1.2,0.2h2.6c0.6,0,1.1,0,1.4-0.1
		c0.3-0.1,0.6-0.1,0.7-0.2c0.1-0.1,0.2-0.1,0.2-0.2l-0.7-1.1C240,111.6,239.6,111.6,239,111.6z M236.3,109.8c0-0.3,0.2-0.5,0.6-0.5
		h0.7c0.3,0,0.6,0,0.7,0c0.1,0,0.2,0.1,0.3,0.1c0,0.1,0,0.2,0,0.3v0.2h-2.3V109.8z"/>
	<path class="st2" d="M247,111.6c-0.4,0-0.9,0-1.5,0h-0.6c-0.2,0-0.4,0-0.5-0.1s-0.1-0.2-0.1-0.4v-1.4c0-0.2,0-0.3,0.1-0.4
		c0.1-0.1,0.2-0.1,0.4-0.1h0.7c0.5,0,1,0,1.5,0c0.4,0,0.7,0.1,0.9,0.1l0.4-1.3c-0.1-0.1-0.3-0.2-0.7-0.2c-0.4-0.1-1.1-0.1-2-0.1H244
		c-0.5,0-0.9,0.1-1.2,0.2s-0.5,0.4-0.6,0.6c-0.1,0.3-0.2,0.6-0.2,0.9v1.8c0,0.4,0.1,0.7,0.2,0.9c0.1,0.3,0.3,0.5,0.6,0.6
		c0.3,0.2,0.7,0.2,1.2,0.2h2.3c0.8,0,1.4-0.1,1.8-0.2c0.4-0.1,0.6-0.2,0.6-0.3l-0.7-1.1C247.7,111.6,247.4,111.6,247,111.6z"/>
	<path class="st2" d="M256.2,108.4c-0.1-0.2-0.2-0.3-0.5-0.4s-0.5-0.2-0.9-0.2h-0.6c-0.4,0-0.9,0-1.3,0.1s-0.9,0.1-1.2,0.2v-2.6
		h-2.2v7.8h2.2v-3.6c0-0.1,0-0.2,0.1-0.2c0,0,0.1,0,0.3,0h1.6c0.4,0,0.6,0.2,0.6,0.5v3.4h2.2v-3.8c0-0.1,0-0.3,0-0.4
		C256.4,108.8,256.3,108.6,256.2,108.4z"/>
	<path class="st2" d="M263.8,108.1c-0.3-0.2-0.7-0.2-1.2-0.2h-1.2c-0.6,0-1.2,0-1.7,0c-0.5,0-0.9,0.1-1.2,0.1
		c-0.3,0.1-0.4,0.1-0.4,0.2l0.1,1.3c0.1,0,0.4,0,0.9-0.1c0.5,0,1.1,0,2,0h0.6c0.3,0,0.5,0.1,0.5,0.2c0,0.1,0.1,0.2,0.1,0.3v0.2
		c-0.3,0-0.6-0.1-1.1-0.1s-0.8,0-1.3,0h-0.4c-0.7,0-1.2,0.1-1.5,0.4c-0.3,0.3-0.5,0.7-0.5,1.2c0,0.6,0.2,1.1,0.5,1.3
		c0.3,0.3,0.8,0.4,1.5,0.4h0.4c0.5,0,1,0,1.4-0.1c0.4-0.1,0.7-0.1,0.9-0.2l0.5,0.2h1.7v-3.6c0-0.3-0.1-0.6-0.2-0.9
		C264.2,108.4,264,108.2,263.8,108.1z M262.3,111.4c0,0.2,0,0.3,0,0.3c0,0-0.1,0-0.3,0h-1.7c-0.2,0-0.3,0-0.3-0.1
		c-0.1,0-0.1-0.1-0.1-0.3c0-0.2,0-0.3,0.1-0.3c0.1-0.1,0.2-0.1,0.3-0.1h2V111.4z"/>
	<path class="st2" d="M272.6,108.4c-0.1-0.2-0.2-0.3-0.5-0.4s-0.5-0.2-0.9-0.2h-0.6c-0.4,0-0.9,0-1.3,0.1c-0.5,0-0.9,0.1-1.2,0.2
		l-0.5-0.2h-1.7v5.4h2.2v-3.6c0-0.1,0-0.2,0.1-0.2c0,0,0.1,0,0.3,0h1.6c0.4,0,0.6,0.2,0.6,0.5v3.4h2.2v-3.8c0-0.1,0-0.3,0-0.4
		C272.8,108.8,272.7,108.6,272.6,108.4z"/>
	<rect x="274.3" y="107.8" class="st2" width="2.2" height="5.4"/>
	<path class="st2" d="M275.4,105.3c-0.4,0-0.7,0.1-0.9,0.2c-0.2,0.1-0.3,0.4-0.3,0.8c0,0.7,0.4,1,1.2,1c0.8,0,1.2-0.3,1.2-1
		c0-0.4-0.1-0.7-0.3-0.8C276.1,105.3,275.8,105.3,275.4,105.3z"/>
	<path class="st2" d="M282.9,111.6c-0.4,0-0.9,0-1.5,0h-0.6c-0.2,0-0.4,0-0.5-0.1s-0.1-0.2-0.1-0.4v-1.4c0-0.2,0-0.3,0.1-0.4
		c0.1-0.1,0.2-0.1,0.4-0.1h0.7c0.5,0,1,0,1.5,0c0.4,0,0.7,0.1,0.9,0.1l0.4-1.3c-0.1-0.1-0.3-0.2-0.7-0.2c-0.4-0.1-1.1-0.1-2-0.1
		h-1.5c-0.5,0-0.9,0.1-1.2,0.2s-0.5,0.4-0.6,0.6c-0.1,0.3-0.2,0.6-0.2,0.9v1.8c0,0.4,0.1,0.7,0.2,0.9c0.1,0.3,0.3,0.5,0.6,0.6
		c0.3,0.2,0.7,0.2,1.2,0.2h2.3c0.8,0,1.4-0.1,1.8-0.2c0.4-0.1,0.6-0.2,0.6-0.3l-0.7-1.1C283.6,111.6,283.3,111.6,282.9,111.6z"/>
	<path class="st2" d="M291.4,108.1c-0.3-0.2-0.7-0.2-1.2-0.2h-1.2c-0.6,0-1.2,0-1.7,0s-0.9,0.1-1.2,0.1s-0.4,0.1-0.4,0.2l0.1,1.3
		c0.1,0,0.4,0,0.9-0.1c0.5,0,1.1,0,2,0h0.6c0.3,0,0.5,0.1,0.5,0.2c0,0.1,0.1,0.2,0.1,0.3v0.2c-0.3,0-0.6-0.1-1.1-0.1
		c-0.4,0-0.8,0-1.3,0h-0.4c-0.7,0-1.2,0.1-1.5,0.4s-0.5,0.7-0.5,1.2c0,0.6,0.2,1.1,0.5,1.3c0.3,0.3,0.8,0.4,1.5,0.4h0.4
		c0.5,0,1,0,1.4-0.1c0.4-0.1,0.7-0.1,0.9-0.2l0.5,0.2h1.7v-3.6c0-0.3-0.1-0.6-0.2-0.9C291.8,108.4,291.6,108.2,291.4,108.1z
		 M289.9,111.4c0,0.2,0,0.3,0,0.3s-0.1,0-0.3,0h-1.7c-0.2,0-0.3,0-0.3-0.1c-0.1,0-0.1-0.1-0.1-0.3c0-0.2,0-0.3,0.1-0.3
		c0.1-0.1,0.2-0.1,0.3-0.1h2V111.4z"/>
	<polygon class="st2" points="293.5,105.6 293.6,106.6 293.6,113.2 295.8,113.2 295.8,105.6 	"/>
	<path class="st2" d="M134.1,185.6c-0.2-0.2-0.4-0.4-0.7-0.5c-0.3-0.1-0.8-0.2-1.3-0.2h-5.6l0.1,1v6.1h2.3V190c0.2,0,0.5,0,1,0.1
		c0.4,0,0.9,0,1.4,0h0.8c0.6,0,1.1-0.1,1.4-0.3c0.3-0.2,0.6-0.5,0.7-0.8s0.2-0.7,0.2-1.1v-0.9c0-0.3,0-0.6-0.1-0.8
		C134.4,186,134.3,185.8,134.1,185.6z M132.2,187.9c0,0.2-0.1,0.4-0.2,0.5c-0.1,0.1-0.3,0.2-0.6,0.2H129v-1.9h2.5
		c0.3,0,0.5,0.1,0.6,0.2c0.1,0.1,0.1,0.3,0.1,0.5V187.9z"/>
	<polygon class="st2" points="136.1,185.3 136.1,192 138.3,192 138.3,184.4 136,184.4 	"/>
	<path class="st2" d="M145.7,186.8c-0.3-0.2-0.7-0.2-1.2-0.2h-1.2c-0.6,0-1.2,0-1.7,0c-0.5,0-0.9,0.1-1.2,0.1
		c-0.3,0.1-0.4,0.1-0.4,0.2l0.1,1.3c0.1,0,0.4-0.1,0.9-0.1s1.1,0,2,0h0.6c0.3,0,0.5,0.1,0.5,0.2c0,0.1,0.1,0.2,0.1,0.3v0.2
		c-0.3,0-0.6-0.1-1.1-0.1c-0.4,0-0.8,0-1.3,0h-0.4c-0.7,0-1.2,0.1-1.5,0.4c-0.3,0.3-0.5,0.7-0.5,1.2c0,0.6,0.2,1.1,0.5,1.3
		c0.3,0.3,0.8,0.4,1.5,0.4h0.4c0.5,0,1,0,1.4-0.1c0.4-0.1,0.7-0.1,0.9-0.2l0.5,0.2h1.7v-3.6c0-0.3-0.1-0.6-0.2-0.9
		C146.1,187.2,145.9,187,145.7,186.8z M144.2,190.2c0,0.2,0,0.3,0,0.3c0,0-0.1,0-0.3,0h-1.7c-0.2,0-0.3,0-0.3-0.1
		c-0.1,0-0.1-0.1-0.1-0.3c0-0.2,0-0.3,0.1-0.3c0.1-0.1,0.2-0.1,0.3-0.1h2V190.2z"/>
	<path class="st2" d="M152.8,188.6h-2.5c-0.2,0-0.3,0-0.4-0.1c-0.1,0-0.1-0.1-0.1-0.2c0-0.1,0-0.2,0.1-0.2c0.1,0,0.2-0.1,0.4-0.1
		h0.9c0.9,0,1.6,0,2.1,0c0.5,0,0.8,0.1,1,0.1l0.1-1.3c0-0.1-0.1-0.1-0.3-0.2c-0.2-0.1-0.5-0.1-1-0.1h-3.6c-0.5,0-0.9,0.1-1.2,0.2
		c-0.3,0.1-0.4,0.3-0.5,0.6c-0.1,0.2-0.1,0.5-0.1,0.8v0.2c0,0.6,0.2,1,0.5,1.2c0.3,0.2,0.8,0.3,1.4,0.3h2.4c0.2,0,0.3,0,0.4,0.1
		c0.1,0,0.1,0.1,0.1,0.3c0,0.1,0,0.2-0.1,0.2c-0.1,0-0.2,0.1-0.4,0.1h-0.9c-0.9,0-1.6,0-2.1,0c-0.5,0-0.8-0.1-0.9-0.1l-0.5,1.3
		c0,0.1,0.1,0.1,0.3,0.2c0.2,0.1,0.6,0.1,1.1,0.1h3.6c0.6,0,1-0.1,1.2-0.2c0.3-0.2,0.4-0.3,0.5-0.6c0.1-0.2,0.1-0.5,0.1-0.8v-0.2
		c0-0.5-0.1-0.9-0.4-1.1S153.4,188.6,152.8,188.6z"/>
	<path class="st2" d="M165.5,187.2c-0.1-0.2-0.2-0.3-0.5-0.4c-0.2-0.1-0.5-0.2-0.9-0.2h-0.6c-0.4,0-0.7,0-1,0
		c-0.3,0-0.5,0.1-0.6,0.1c-0.2,0.1-0.3,0.1-0.4,0.2c-0.1-0.1-0.3-0.2-0.5-0.3c-0.2-0.1-0.4-0.1-0.7-0.1h-0.6c-0.3,0-0.7,0-0.9,0
		c-0.3,0-0.6,0.1-0.8,0.1l-0.3-0.1h-1.7v5.4h2.2v-3.6c0-0.1,0-0.2,0.1-0.2s0.1,0,0.3,0h0.6c0.4,0,0.6,0.2,0.6,0.5v3.4h2.2v-3.6
		c0-0.1,0-0.2,0.1-0.2s0.1,0,0.3,0h0.7c0.4,0,0.6,0.2,0.6,0.5v3.4h2.2v-3.8c0-0.1,0-0.3,0-0.4C165.6,187.5,165.6,187.4,165.5,187.2z
		"/>
	<path class="st2" d="M173,186.8c-0.3-0.2-0.7-0.2-1.2-0.2h-1.2c-0.6,0-1.2,0-1.7,0c-0.5,0-0.9,0.1-1.2,0.1
		c-0.3,0.1-0.4,0.1-0.4,0.2l0.1,1.3c0.1,0,0.4-0.1,0.9-0.1c0.5,0,1.1,0,2,0h0.6c0.3,0,0.5,0.1,0.5,0.2c0,0.1,0.1,0.2,0.1,0.3v0.2
		c-0.3,0-0.6-0.1-1.1-0.1c-0.4,0-0.8,0-1.3,0h-0.4c-0.7,0-1.2,0.1-1.5,0.4s-0.5,0.7-0.5,1.2c0,0.6,0.2,1.1,0.5,1.3
		c0.3,0.3,0.8,0.4,1.5,0.4h0.4c0.5,0,1,0,1.4-0.1c0.4-0.1,0.7-0.1,0.9-0.2l0.5,0.2h1.7v-3.6c0-0.3-0.1-0.6-0.2-0.9
		C173.5,187.2,173.3,187,173,186.8z M171.6,190.2c0,0.2,0,0.3,0,0.3c0,0-0.1,0-0.3,0h-1.7c-0.2,0-0.3,0-0.3-0.1
		c-0.1,0-0.1-0.1-0.1-0.3c0-0.2,0-0.3,0.1-0.3c0.1-0.1,0.2-0.1,0.3-0.1h2V190.2z"/>
	<polygon class="st2" points="123.2,26.9 120.3,26.9 120.4,27.9 120.4,34 122.7,34 122.7,29.9 122.8,29.9 123.3,31.2 124.2,33.3 
		126.4,33.3 127.3,31.2 127.8,29.9 127.9,29.9 127.9,34 130.2,34 130.2,26.9 127.4,26.9 125.3,31.1 	"/>
	<path class="st2" d="M135.3,30.7c-0.4,0-0.8,0-1.3,0h-0.4c-0.7,0-1.2,0.1-1.5,0.4c-0.3,0.3-0.5,0.7-0.5,1.2c0,0.6,0.2,1.1,0.5,1.3
		c0.3,0.3,0.8,0.4,1.5,0.4h0.4c0.5,0,1,0,1.4-0.1c0.4-0.1,0.7-0.1,0.9-0.2l0.5,0.2h1.7v-3.6c0-0.3-0.1-0.6-0.2-0.9
		c-0.1-0.3-0.3-0.5-0.6-0.6c-0.3-0.2-0.7-0.2-1.2-0.2h-1.2c-0.6,0-1.2,0-1.7,0c-0.5,0-0.9,0.1-1.2,0.1c-0.3,0.1-0.4,0.1-0.4,0.2
		l0.1,1.3c0.1,0,0.4,0,0.9-0.1c0.5,0,1.1,0,2,0h0.6c0.3,0,0.5,0.1,0.5,0.2c0,0.1,0.1,0.2,0.1,0.3v0.2
		C136.1,30.8,135.7,30.7,135.3,30.7z M136.4,32.2c0,0.2,0,0.3,0,0.3c0,0-0.1,0-0.3,0h-1.7c-0.2,0-0.3,0-0.3-0.1
		c-0.1,0-0.1-0.1-0.1-0.3c0-0.2,0-0.3,0.1-0.3c0.1-0.1,0.2-0.1,0.3-0.1h2V32.2z"/>
	<path class="st2" d="M141.7,28.6c-0.4,0-0.7,0.1-1,0.2c-0.2,0.1-0.4,0.3-0.6,0.4c-0.1,0.2-0.2,0.4-0.3,0.6s-0.1,0.4-0.1,0.6v1.7
		c0,0.4,0,0.7,0.1,0.9c0.1,0.3,0.3,0.5,0.5,0.6c0.3,0.1,0.7,0.2,1.2,0.2h0.3c0.6,0,1.1,0,1.6-0.1c0.4,0,0.8-0.1,1-0.2v0.5
		c0,0.2,0,0.3-0.1,0.4c-0.1,0.1-0.2,0.1-0.5,0.1h-1.8c-0.6,0-1,0-1.3-0.1c-0.3-0.1-0.5-0.1-0.6-0.1l-0.6,1.3c0,0.1,0.1,0.1,0.2,0.2
		c0.1,0.1,0.3,0.1,0.6,0.2c0.3,0,0.7,0.1,1.2,0.1c0.5,0,1.2,0,2,0h1c0.8,0,1.3-0.2,1.7-0.5s0.5-0.8,0.5-1.3v-5.7h-1.7l-0.3,0.2
		c-0.1,0-0.3,0-0.5-0.1s-0.5,0-0.8-0.1c-0.4,0-0.8,0-1.4,0H141.7z M142.1,30.6c0-0.3,0.2-0.5,0.6-0.5h0.1c0.3,0,0.6,0,0.8,0
		c0.2,0,0.4,0,0.6,0c0.2,0,0.3,0,0.5,0V32c0,0.2,0,0.3,0,0.3c0,0-0.1,0-0.3,0h-1.6c-0.4,0-0.6-0.2-0.6-0.5V30.6z"/>
	<path class="st2" d="M155.2,34v-3.8c0-0.1,0-0.3,0-0.4c0-0.2-0.1-0.3-0.2-0.5s-0.2-0.3-0.5-0.4s-0.5-0.2-0.9-0.2H153
		c-0.4,0-0.9,0-1.3,0.1c-0.5,0-0.9,0.1-1.2,0.2l-0.5-0.2h-1.7V34h2.2v-3.6c0-0.1,0-0.2,0.1-0.2c0,0,0.1,0,0.3,0h1.6
		c0.4,0,0.6,0.2,0.6,0.5V34H155.2z"/>
	<path class="st2" d="M159.5,31.9c0.4,0,0.9,0,1.6,0h2.1v-1.5c0-0.4-0.1-0.7-0.2-0.9c-0.1-0.3-0.4-0.5-0.7-0.6
		c-0.3-0.1-0.8-0.2-1.4-0.2h-2.5c-0.5,0-0.9,0.1-1.2,0.2c-0.3,0.2-0.5,0.4-0.6,0.6c-0.1,0.3-0.2,0.6-0.2,0.9v1.8
		c0,0.4,0.1,0.7,0.2,0.9c0.1,0.3,0.3,0.5,0.6,0.6c0.3,0.2,0.7,0.2,1.2,0.2h2.6c0.6,0,1.1,0,1.4-0.1c0.3-0.1,0.6-0.1,0.7-0.2
		c0.1-0.1,0.2-0.1,0.2-0.2l-0.7-1.1c-0.3,0-0.7,0-1.2,0.1s-1.1,0-1.8,0h-0.4c-0.4,0-0.6-0.2-0.6-0.5v-0.2
		C158.8,31.8,159.1,31.8,159.5,31.9z M158.7,30.6c0-0.3,0.2-0.5,0.6-0.5h0.7c0.3,0,0.6,0,0.7,0s0.2,0.1,0.3,0.1c0,0.1,0,0.2,0,0.3
		v0.2h-2.3V30.6z"/>
	<path class="st2" d="M164.9,28.5c-0.1,0.1-0.2,0.1-0.3,0.1H164v1.5h1v2.3c0,0.5,0.1,0.9,0.3,1.2s0.6,0.4,1.2,0.4h0.7
		c0.4,0,0.8,0,1.1,0s0.6-0.1,0.8-0.1l-0.2-1.4h-1.2c-0.2,0-0.3,0-0.4-0.1c-0.1-0.1-0.1-0.2-0.1-0.4v-1.9h2v-1.5h-2V27h-2l-0.2,1.3
		C165,28.4,165,28.5,164.9,28.5z"/>
	<rect x="170.3" y="28.6" class="st2" width="2.2" height="5.4"/>
	<path class="st2" d="M172.4,26.3c-0.2-0.1-0.5-0.2-0.9-0.2c-0.4,0-0.7,0.1-0.9,0.2c-0.2,0.1-0.3,0.4-0.3,0.8c0,0.7,0.4,1,1.2,1
		c0.8,0,1.2-0.3,1.2-1C172.6,26.7,172.6,26.4,172.4,26.3z"/>
	<path class="st2" d="M174,30.4v1.8c0,0.4,0.1,0.7,0.2,0.9c0.1,0.3,0.3,0.5,0.6,0.6c0.3,0.2,0.7,0.2,1.2,0.2h2.3
		c0.8,0,1.4-0.1,1.8-0.2c0.4-0.1,0.6-0.2,0.6-0.3l-0.7-1.1c-0.2,0-0.5,0-0.9,0.1s-0.9,0-1.5,0h-0.6c-0.2,0-0.4,0-0.5-0.1
		s-0.1-0.2-0.1-0.4v-1.4c0-0.2,0-0.3,0.1-0.4s0.2-0.1,0.4-0.1h0.7c0.5,0,1,0,1.5,0c0.4,0,0.7,0.1,0.9,0.1l0.4-1.3
		c-0.1-0.1-0.3-0.2-0.7-0.2s-1.1-0.1-2-0.1h-1.5c-0.5,0-0.9,0.1-1.2,0.2c-0.3,0.2-0.5,0.4-0.6,0.6C174,29.8,174,30.1,174,30.4z"/>
	<path class="st2" d="M204,93.7c-0.5,0-1,0-1.4,0.1c-2.3-7.4-6.2-14-11.2-19.7l-3.1-10.5l-3.7,3.9c-5.6-4.5-12.1-8-19.3-10
		c0-0.5,0.1-0.9,0.1-1.4c0-8.4-6.9-15.3-15.3-15.3c-8.4,0-15.3,6.9-15.3,15.3c0,0.5,0,0.9,0.1,1.4c-4.7,1.4-9.2,3.3-13.3,5.8
		l-12,2.2l3.5,4.1c-7.1,6.4-12.5,14.6-15.5,23.9c-0.6-0.1-1.1-0.1-1.7-0.1c-8.4,0-15.3,6.9-15.3,15.3c0,8.4,6.9,15.3,15.3,15.3
		c0.3,0,0.5,0,0.8,0c2.4,9.3,7.1,17.7,13.6,24.5L114,159l3.3-4c5.2,3.8,11.1,6.7,17.4,8.6c0,0.5-0.1,0.9-0.1,1.4
		c0,8.4,6.9,15.3,15.3,15.3c8.4,0,15.3-6.9,15.3-15.3c0-0.5,0-0.9-0.1-1.4c5.8-1.7,11.3-4.3,16.1-7.7l10.8-2l-3.5-4
		c7-6.9,12.2-15.7,14.7-25.5c0.2,0,0.4,0,0.6,0c8.4,0,15.3-6.9,15.3-15.3S212.4,93.7,204,93.7z M204,122.5c-7.5,0-13.5-6-13.5-13.5
		s6-13.5,13.5-13.5s13.5,6,13.5,13.5S211.4,122.5,204,122.5z M136.5,56.1c0-7.5,6-13.5,13.5-13.5s13.5,6,13.5,13.5
		c0,7.5-6,13.5-13.5,13.5S136.5,63.6,136.5,56.1z M95.8,95.3c7.5,0,13.5,6,13.5,13.5c0,7.5-6,13.5-13.5,13.5
		c-7.5,0-13.5-6-13.5-13.5C82.3,101.4,88.3,95.3,95.8,95.3z M163.5,164.9c0,7.5-6,13.5-13.5,13.5s-13.5-6-13.5-13.5
		s6-13.5,13.5-13.5S163.5,157.5,163.5,164.9z M187.7,148.6l-3.6-4.2l-3.6,10.2c-4.7,3.2-9.9,5.7-15.4,7.4c-1.4-7.1-7.6-12.4-15-12.4
		c-7.4,0-13.7,5.3-15,12.4c-6.1-1.8-11.7-4.6-16.7-8.2l3.6-4.4l-10.6-1.8c-6.3-6.5-10.9-14.7-13.3-23.7c7.4-1.1,13-7.4,13-15.1
		c0-7.3-5.2-13.5-12.1-15c2.9-8.9,8.1-16.8,14.9-23l3.5,4.2l3.4-9.5c4.3-2.8,9-5,14.1-6.5c1.4,7.1,7.6,12.4,15,12.4
		c7.4,0,13.7-5.3,15-12.4c6.8,2,13,5.3,18.4,9.6l-3.8,4l10.6,2.5c4.8,5.4,8.5,11.8,10.8,18.9c-7,1.4-12.4,7.6-12.4,15
		c0,7.7,5.8,14.1,13.2,15.1C199.4,133.6,194.4,142,187.7,148.6z"/>
	<path class="st3" d="M150,151.4c-7.5,0-13.5,6-13.5,13.5s6,13.5,13.5,13.5s13.5-6,13.5-13.5S157.5,151.4,150,151.4z M162.4,165.6
		l-6.4-0.4l1.2,1.4l3.7,1.4l-3.4-1.1l1.9,2.1l-3.8-3.8l-2.3-0.2c0,0.3-0.1,0.7-0.2,1l3,1.1l-3.1-1c-0.1,0.2-0.2,0.4-0.3,0.6l1.4,1.2
		l2.6-0.2l-1.6,0.3l0.1,0l3.1,1.3l-3.7-1.2l-0.4,0.1l4.5,4l-3.2-2.4l2.4,4.2l-1.4-2.1l-0.4,3.3l0.1-3.8l-1.6-2.3l-1-0.7l0.6,3.3
		l-0.9-3.5l-1.2-0.9c-0.4,0.3-0.8,0.6-1.3,0.7l0.2,0.9l1.4,1.9l-1.3-1.5l0.3,1.9l-0.8-3.1c-0.2,0-0.4,0.1-0.6,0.1
		c-0.1,0-0.3,0-0.4,0l0.1,2.3l0,0l0,0l0.1,1.2l1.5,1.5l3.9-0.4l-3.6,0.7l3.1,3.1l-4.8-4.2l0.3,4.3l-0.7-4.7l0,0l0,0l-0.2-1l-1.4,1.2
		l-1.4,3.7l1.1-3.4l-2.1,1.9l3.7-3.7l-0.4-2.6c-0.3-0.1-0.6-0.4-0.9-0.6l-1.2,0.9l-0.9,3.5l0.6-3.3l-1,0.7l-1.6,2.3l0.1,3.8
		l-0.4-3.3L142,174l2.4-4.2l-3.2,2.4l4.5-4l-0.4-0.1l-3.7,1.2l3.1-1.3l0.1,0l-1.6-0.3l2.6,0.2l1.4-1.2c-0.2-0.3-0.4-0.6-0.5-1
		l-4.3,0.9l4.2-1.1c0-0.2-0.1-0.4-0.1-0.6c0-0.1,0-0.2,0-0.3l-4.2,0.3l-1.2,1.3l-0.4,3.9l0-3.5l-2.6,2.9l2.6-3.4l0,0l0,0l0.9-1.2
		l-4.4,0.3l6.5-1l-1.3-1.5l-3.7-1.4l3.4,1.1l-1.9-2.1l3.9,3.8l2.5-0.4c0.1-0.1,0.1-0.3,0.2-0.4l-3.9-1.7l4,1.5
		c0.1-0.2,0.2-0.3,0.3-0.4l-0.9-1.2l-3.5-0.9l3.2,0.6l-0.7-1l-2.3-1.6l-3.8,0.1l3.3-0.4l-2.1-1.4l4.1,2.4l-2.4-3.2l4,4.5l0.1-0.4
		l-1.2-3.7l1.3,3.1l0,0.1l0.3-1.6l-0.2,2.6l1.2,1.4c0.2-0.1,0.3-0.2,0.5-0.3l-0.1-2.1l0.4,2c0.2-0.1,0.4-0.1,0.6-0.2l0.6-4.2
		l-1.4-1.2l-3.8-0.6l3.4,0.2l-2.9-2.5l3.3,2.6l0.1,0l0,0.1l1.3,1l0.6-4.5l-0.3,6.8l1.8-1.6l1.4-3.7l-1.1,3.4l2.1-1.9l-4.2,4.2
		l-0.1,1.9c0.4,0,0.7,0.1,1,0.3l0.8-2.9l-0.5,3c0.2,0.1,0.4,0.3,0.6,0.5l1.2-0.9l0.9-3.5l-0.6,3.2l1-0.7l1.6-2.3l-0.1-3.8l0.4,3.4
		l1.4-2.1l-2.4,4.1l3.2-2.4l-4.5,4l0.4,0.1l3.7-1.2l-3.1,1.3l-0.1,0l1.6,0.3l-2.6-0.2l-1.4,1.2c0.1,0.2,0.2,0.4,0.3,0.6l2.8-0.7
		l-2.7,0.8c0,0.1,0.1,0.3,0.1,0.4l4.3,0.7l1.2-1.3l0.8-3.7l-0.4,3.3l2.5-2.8l-2.6,3.3l0,0.1l-0.1,0l-0.9,1.2L162.4,165.6z"/>
	<path class="st2" d="M158.9,163.8l0-0.1l2.6-3.3l-2.5,2.8l0.4-3.3l-0.8,3.7l-1.2,1.3l-4.3-0.7c0-0.1-0.1-0.3-0.1-0.4l2.7-0.8
		l-2.8,0.7c-0.1-0.2-0.2-0.4-0.3-0.6l1.4-1.2l2.6,0.2l-1.6-0.3l0.1,0l3.1-1.3l-3.7,1.2l-0.4-0.1l4.5-4l-3.2,2.4l2.4-4.1l-1.4,2.1
		l-0.4-3.4l0.1,3.8l-1.6,2.3l-1,0.7l0.6-3.2l-0.9,3.5l-1.2,0.9c-0.2-0.2-0.4-0.3-0.6-0.5l0.5-3l-0.8,2.9c-0.3-0.1-0.7-0.2-1-0.3
		l0.1-1.9l4.2-4.2l-2.1,1.9l1.1-3.4l-1.4,3.7l-1.8,1.6l0.3-6.8l-0.6,4.5l-1.3-1l0-0.1l-0.1,0l-3.3-2.6l2.9,2.5l-3.4-0.2l3.8,0.6
		l1.4,1.2l-0.6,4.2c-0.2,0-0.4,0.1-0.6,0.2l-0.4-2l0.1,2.1c-0.2,0.1-0.3,0.2-0.5,0.3l-1.2-1.4l0.2-2.6l-0.3,1.6l0-0.1l-1.3-3.1
		l1.2,3.7l-0.1,0.4l-4-4.5l2.4,3.2l-4.1-2.4l2.1,1.4l-3.3,0.4l3.8-0.1l2.3,1.6l0.7,1l-3.2-0.6l3.5,0.9l0.9,1.2
		c-0.1,0.1-0.2,0.3-0.3,0.4l-4-1.5l3.9,1.7c-0.1,0.1-0.1,0.3-0.2,0.4l-2.5,0.4l-3.9-3.8l1.9,2.1l-3.4-1.1l3.7,1.4l1.3,1.5l-6.5,1
		l4.4-0.3l-0.9,1.2l0,0l0,0l-2.6,3.4l2.6-2.9l0,3.5l0.4-3.9l1.2-1.3l4.2-0.3c0,0.1,0,0.2,0,0.3c0,0.2,0,0.4,0.1,0.6l-4.2,1.1
		l4.3-0.9c0.1,0.4,0.2,0.7,0.5,1l-1.4,1.2l-2.6-0.2l1.6,0.3l-0.1,0l-3.1,1.3l3.7-1.2l0.4,0.1l-4.5,4l3.2-2.4L142,174l1.4-2.1
		l0.4,3.3l-0.1-3.8l1.6-2.3l1-0.7l-0.6,3.3l0.9-3.5l1.2-0.9c0.3,0.2,0.6,0.5,0.9,0.6l0.4,2.6l-3.7,3.7l2.1-1.9l-1.1,3.4l1.4-3.7
		l1.4-1.2l0.2,1l0,0l0,0l0.7,4.7l-0.3-4.3l4.8,4.2l-3.1-3.1l3.6-0.7l-3.9,0.4l-1.5-1.5l-0.1-1.2l0,0l0,0l-0.1-2.3c0.1,0,0.3,0,0.4,0
		c0.2,0,0.4,0,0.6-0.1l0.8,3.1l-0.3-1.9l1.3,1.5l-1.4-1.9l-0.2-0.9c0.5-0.1,0.9-0.4,1.3-0.7l1.2,0.9l0.9,3.5l-0.6-3.3l1,0.7l1.6,2.3
		l-0.1,3.8l0.4-3.3l1.4,2.1l-2.4-4.2l3.2,2.4l-4.5-4l0.4-0.1l3.7,1.2l-3.1-1.3l-0.1,0l1.6-0.3l-2.6,0.2l-1.4-1.2
		c0.1-0.2,0.2-0.4,0.3-0.6l3.1,1l-3-1.1c0.1-0.3,0.2-0.6,0.2-1l2.3,0.2l3.8,3.8l-1.9-2.1l3.4,1.1l-3.7-1.4l-1.2-1.4l6.4,0.4
		l-4.5-0.7L158.9,163.8L158.9,163.8z"/>
	<path class="st4" d="M202.9,103.4c-0.4,0.1-0.7,0.2-1,0.3c-2.9,1.2-4.3,4.4-3.1,7.3c0.9,2.1,2.9,3.5,5.2,3.5v0c1.5,0,2.9-0.6,4-1.6
		c1.1-1.1,1.7-2.5,1.7-4c0-0.4,0-0.7-0.1-1.1C208.9,104.8,206,102.8,202.9,103.4z M206.3,110.4c-0.3,0.4-0.7,0.8-1.2,1
		c-0.2,0.1-0.3,0.1-0.5,0.1c-1.5,0.3-3-0.6-3.3-2.1c-0.2-1.1,0.2-2.2,1.2-2.8c0.4-0.3,1-0.5,1.5-0.5v0c0.5,0,1.1,0.2,1.5,0.5
		C206.8,107.4,207.1,109.2,206.3,110.4z"/>
	<path class="st4" d="M204,95.5c-7.5,0-13.5,6-13.5,13.5s6,13.5,13.5,13.5s13.5-6,13.5-13.5S211.4,95.5,204,95.5z M211.5,113.2
		c-0.3,0.6-0.7,1.1-1.2,1.6l1,1.3l0.1,0.2v0.2l-0.1,0.2l-0.1,0.1l-2,1.5c-0.1,0.1-0.2,0.1-0.3,0.1s-0.2-0.1-0.3-0.2l-1-1.4
		c-0.6,0.3-1.2,0.5-1.9,0.6v1.7v0c0,0.2-0.2,0.4-0.5,0.4h-2.5c-0.1,0-0.2,0-0.3-0.1c-0.1-0.1-0.1-0.2-0.1-0.3v-1.7
		c-0.6-0.1-1.3-0.3-1.9-0.6l-1,1.4c-0.1,0.1-0.2,0.2-0.3,0.2c-0.1,0-0.2,0-0.3-0.1l-2-1.5l-0.1-0.1l-0.1-0.2v-0.2l0.1-0.2l1-1.4
		c-0.5-0.5-0.9-1-1.2-1.6l-1.6,0.5c-0.1,0-0.2,0-0.4,0c-0.1-0.1-0.2-0.2-0.2-0.3l-0.8-2.4v-0.2l0-0.2l0.1-0.1l0.2-0.1l1.5-0.5
		c0-0.4-0.1-0.8-0.1-1.1c0-0.3,0-0.6,0-0.9l-1.5-0.5l-0.2-0.1l-0.1-0.1l0-0.2v-0.2l0.8-2.4c0.1-0.2,0.3-0.4,0.6-0.3l1.4,0.5
		c0.3-0.6,0.7-1.2,1.2-1.7l-0.9-1.2l-0.1-0.2v-0.2l0.1-0.2l0.1-0.1l2-1.4c0.1-0.1,0.2-0.1,0.3-0.1c0.1,0,0.2,0.1,0.3,0.2l0.9,1.2
		c0.6-0.3,1.3-0.5,2-0.7V99v-0.2l0.1-0.1l0.2-0.1h0.2h2.5c0.1,0,0.2,0,0.3,0.1c0.1,0.1,0.1,0.2,0.1,0.3v1.4c0.7,0.1,1.4,0.4,2,0.7
		l0.8-1.1c0.1-0.1,0.2-0.2,0.3-0.2c0.1,0,0.2,0,0.4,0.1l2,1.5l0.1,0.1l0.1,0.2v0.2l-0.1,0.2l-0.9,1.2c0.5,0.5,0.9,1.1,1.2,1.7
		l1.4-0.5c0.1,0,0.2,0,0.4,0c0.1,0.1,0.2,0.2,0.2,0.3l0.8,2.4c0,0.1,0,0.2,0,0.4l-0.1,0.1l-0.2,0.1l-1.5,0.5c0,0.3,0,0.6,0,0.9
		c0,0.4,0,0.8-0.1,1.2l1.5,0.5l0,0l0.2,0.1l0.1,0.1l0,0.2v0.2l-0.8,2.4c0,0.1-0.1,0.2-0.2,0.3c-0.1,0-0.2,0-0.3,0L211.5,113.2z"/>
	<path class="st2" d="M213.5,113.7c0.1-0.1,0.2-0.2,0.2-0.3l0.8-2.4v-0.2l0-0.2l-0.1-0.1l-0.2-0.1l0,0l-1.5-0.5
		c0-0.4,0.1-0.8,0.1-1.2c0-0.3,0-0.6,0-0.9l1.5-0.5l0.2-0.1l0.1-0.1c0-0.1,0-0.2,0-0.4l-0.8-2.4c0-0.1-0.1-0.2-0.2-0.3
		c-0.1,0-0.2,0-0.4,0l-1.4,0.5c-0.3-0.6-0.7-1.2-1.2-1.7l0.9-1.2l0.1-0.2v-0.2l-0.1-0.2l-0.1-0.1l-2-1.5c-0.1-0.1-0.2-0.1-0.4-0.1
		c-0.1,0-0.2,0.1-0.3,0.2l-0.8,1.1c-0.6-0.3-1.3-0.5-2-0.7V99c0-0.1-0.1-0.2-0.1-0.3c-0.1-0.1-0.2-0.1-0.3-0.1h-2.5h-0.2l-0.2,0.1
		l-0.1,0.1V99v1.4c-0.7,0.1-1.4,0.4-2,0.7l-0.9-1.2c-0.1-0.1-0.2-0.2-0.3-0.2c-0.1,0-0.2,0-0.3,0.1l-2,1.4l-0.1,0.1l-0.1,0.2v0.2
		l0.1,0.2l0.9,1.2c-0.5,0.5-0.9,1.1-1.2,1.7l-1.4-0.5c-0.2-0.1-0.5,0.1-0.6,0.3l-0.8,2.4v0.2l0,0.2l0.1,0.1l0.2,0.1l1.5,0.5
		c0,0.3,0,0.6,0,0.9c0,0.4,0,0.8,0.1,1.1l-1.5,0.5l-0.2,0.1l-0.1,0.1l0,0.2v0.2l0.8,2.4c0,0.1,0.1,0.2,0.2,0.3c0.1,0,0.2,0,0.4,0
		l1.6-0.5c0.3,0.6,0.7,1.1,1.2,1.6l-1,1.4l-0.1,0.2v0.2l0.1,0.2l0.1,0.1l2,1.5c0.1,0.1,0.2,0.1,0.3,0.1c0.1,0,0.2-0.1,0.3-0.2l1-1.4
		c0.6,0.3,1.2,0.5,1.9,0.6v1.7c0,0.1,0.1,0.2,0.1,0.3c0.1,0.1,0.2,0.1,0.3,0.1h2.5c0.2,0,0.4-0.2,0.5-0.4v0v-1.7
		c0.6-0.1,1.3-0.3,1.9-0.6l1,1.4c0.1,0.1,0.2,0.2,0.3,0.2s0.2,0,0.3-0.1l2-1.5l0.1-0.1l0.1-0.2v-0.2l-0.1-0.2l-1-1.3
		c0.5-0.5,0.8-1,1.2-1.6l1.6,0.5C213.2,113.7,213.3,113.7,213.5,113.7z M208,112.9c-1.1,1-2.5,1.6-4,1.6v0c-2.3,0-4.3-1.4-5.2-3.5
		c-1.2-2.9,0.2-6.1,3.1-7.3c0.3-0.1,0.7-0.2,1-0.3c3-0.6,6,1.4,6.6,4.4c0.1,0.4,0.1,0.7,0.1,1.1C209.6,110.4,209,111.8,208,112.9z"
		/>
	<path class="st2" d="M205.5,106.6c-0.5-0.3-1-0.5-1.5-0.5v0c-0.5,0-1.1,0.2-1.5,0.5c-0.9,0.6-1.4,1.7-1.2,2.8
		c0.3,1.5,1.8,2.5,3.3,2.1c0.2,0,0.3-0.1,0.5-0.1c0.5-0.2,0.9-0.6,1.2-1C207.1,109.2,206.8,107.4,205.5,106.6z"/>
	<path class="st5" d="M93.9,106.4c0.1-0.1,0.3-0.2,0.4-0.3c0.1-0.1,0.2-0.1,0.4-0.2c-0.2-0.1-0.5-0.2-0.7-0.3
		C94,105.9,93.9,106.1,93.9,106.4z"/>
	<path class="st5" d="M92.9,108.1c-0.4,0.3-0.8,0.5-1.2,0.8c0.4,0.2,0.8,0.5,1.2,0.7c0-0.3,0-0.6,0-0.8
		C92.9,108.5,92.9,108.3,92.9,108.1z"/>
	<path class="st5" d="M98.5,112.4c3.2,1.3,5.6,1.8,6.5,1.5l0.2-0.1c0.2-0.5-1.2-2.2-4.5-4.4c-0.7,0.5-1.4,0.9-2.1,1.4
		C98.6,111.2,98.6,111.8,98.5,112.4z"/>
	<path class="st5" d="M94.8,107c-0.3,0.2-0.7,0.4-1,0.6c0,0.4,0,0.8-0.1,1.3c0,0.4,0,0.9,0,1.3c0.4,0.2,0.8,0.4,1.2,0.6h0
		c0.3,0.2,0.6,0.3,0.9,0.4c0.3-0.2,0.6-0.3,0.9-0.5l0,0c0.3-0.2,0.7-0.4,1-0.6c0-0.4,0-0.8,0.1-1.2c0-0.5,0-0.9,0-1.3
		c-0.4-0.2-0.8-0.4-1.2-0.6c-0.3-0.2-0.6-0.3-0.9-0.4C95.4,106.6,95.1,106.8,94.8,107z"/>
	<path class="st5" d="M93.1,105.3c-2.6-1-4.7-1.6-5.8-1.6c-0.3,0-0.5,0-0.7,0.1l-0.2,0.1c-0.1,0.2,0.1,0.7,0.8,1.4
		c0.2-0.1,0.4-0.2,0.7-0.2c0.8,0,1.4,0.6,1.4,1.4c0,0.2-0.1,0.4-0.1,0.5c0.5,0.4,1.1,0.9,1.8,1.3c0.7-0.5,1.4-0.9,2.1-1.4
		C93,106.4,93,105.9,93.1,105.3z"/>
	<path class="st5" d="M93.8,112.2c0.3-0.2,0.7-0.3,1-0.5c-0.1-0.1-0.2-0.1-0.3-0.1c-0.3-0.1-0.5-0.3-0.8-0.4
		C93.8,111.5,93.8,111.9,93.8,112.2z"/>
	<path class="st5" d="M90.9,109.4c-3.2,2.3-4.6,4.1-4.3,4.6l0.2,0.1c0.9,0.3,3.1-0.2,6.1-1.6c0-0.7,0-1.3,0-2
		C92.2,110.3,91.5,109.9,90.9,109.4z"/>
	<path class="st5" d="M98.8,107c0.6,0.4,1.3,0.8,1.9,1.2c0.6-0.4,1.1-0.8,1.5-1.2c-0.1-0.2-0.2-0.4-0.1-0.6c0-0.7,0.6-1.3,1.3-1.3
		c0.2,0,0.5,0.1,0.7,0.2c0.7-0.8,1-1.4,0.9-1.7l-0.2-0.1c-0.1,0-0.3-0.1-0.5-0.1c-1.1,0-3.1,0.5-5.5,1.6
		C98.8,105.6,98.8,106.3,98.8,107z"/>
	<path class="st5" d="M97.6,112c0-0.3,0.1-0.5,0.1-0.8c-0.2,0.1-0.3,0.2-0.5,0.3c-0.1,0.1-0.2,0.1-0.4,0.2
		C97.1,111.8,97.4,111.9,97.6,112z"/>
	<path class="st5" d="M99.9,108.7c-0.4-0.2-0.7-0.5-1.1-0.7c0,0.3,0,0.6,0,0.8c0,0.2,0,0.4,0,0.6C99.1,109.2,99.5,109,99.9,108.7z"
		/>
	<path class="st5" d="M97.8,105.4c-0.3,0.2-0.7,0.3-1,0.5c0.1,0.1,0.2,0.1,0.3,0.2c0.3,0.1,0.5,0.3,0.8,0.4
		C97.8,106.1,97.8,105.8,97.8,105.4z"/>
	<path class="st5" d="M95.7,105.4c0.7-0.4,1.4-0.7,2-1c-0.2-3.5-0.8-5.8-1.4-6.4l-0.2-0.1c-0.3,0-0.7,0.7-1.1,2
		c0.3,0.3,0.5,0.6,0.5,1.1c0,0.6-0.5,1.2-1.1,1.3c-0.1,0.7-0.3,1.6-0.4,2.5C94.6,104.9,95.2,105.1,95.7,105.4z"/>
	<path class="st5" d="M95.9,112.2c-0.7,0.4-1.4,0.7-2,1c0.2,3.5,0.8,5.8,1.4,6.5l0.2,0.1c0.5,0,1.6-2.4,2.1-6.8
		C97,112.7,96.4,112.5,95.9,112.2z"/>
	<path class="st5" d="M95.8,122.3c7.5,0,13.5-6,13.5-13.5c0-7.5-6-13.5-13.5-13.5c-7.5,0-13.5,6-13.5,13.5
		C82.3,116.3,88.3,122.3,95.8,122.3z M92.9,100.8c0-0.7,0.6-1.3,1.3-1.3c0.5-1.5,1.1-2.6,2-2.6h0c0.3,0,0.6,0.1,0.8,0.4
		c0.8,0.9,1.4,3.4,1.6,6.7c2.9-1.2,5.2-1.8,6.4-1.4c0.4,0.1,0.6,0.3,0.8,0.6c0.4,0.7-0.1,1.7-1.1,2.8c0.1,0.2,0.1,0.3,0.1,0.5
		c0,0.7-0.7,1.3-1.4,1.3c-0.2,0-0.3,0-0.5-0.1c-0.4,0.4-0.9,0.7-1.4,1.1c2.8,1.9,5.2,4.1,4.5,5.4c-0.1,0.3-0.4,0.5-0.8,0.6
		c-0.3,0.1-0.6,0.1-1,0.1c-1.4,0-3.5-0.6-5.9-1.5c-0.5,3.7-1.4,7.4-3,7.4h0c-0.3,0-0.6-0.1-0.8-0.4c-0.9-1-1.4-3.6-1.6-6.7
		c-2.3,1-4.3,1.6-5.6,1.6c-0.3,0-0.6,0-0.8-0.1c-0.4-0.1-0.6-0.3-0.8-0.6c-0.7-1.3,1.4-3.4,4.3-5.6c-0.6-0.4-1.2-0.8-1.7-1.2
		c-0.2,0.1-0.4,0.1-0.6,0.1c-0.7,0-1.3-0.7-1.3-1.4c0-0.1,0-0.3,0.1-0.4c-0.9-0.9-1.3-1.8-1-2.5c0.1-0.3,0.4-0.5,0.8-0.6
		c1.2-0.4,3.8,0.1,6.9,1.4c0.1-0.8,0.2-1.5,0.4-2.3C93.1,101.8,92.9,101.3,92.9,100.8z"/>
	<path class="st2" d="M86.3,102.9c-0.4,0.1-0.6,0.3-0.8,0.6c-0.3,0.7,0.1,1.5,1,2.5c0,0.1-0.1,0.2-0.1,0.4c0,0.7,0.6,1.4,1.3,1.4
		c0.2,0,0.4,0,0.6-0.1c0.5,0.4,1.1,0.8,1.7,1.2c-2.9,2.1-5,4.3-4.3,5.6c0.2,0.3,0.4,0.5,0.8,0.6c0.2,0.1,0.5,0.1,0.8,0.1
		c1.3,0,3.3-0.6,5.6-1.6c0.2,3.1,0.7,5.7,1.6,6.7c0.3,0.3,0.5,0.4,0.8,0.4h0c1.6,0,2.5-3.7,3-7.4c2.4,1,4.5,1.5,5.9,1.5
		c0.4,0,0.7,0,1-0.1c0.4-0.1,0.6-0.3,0.8-0.6c0.6-1.3-1.7-3.5-4.5-5.4c0.5-0.4,1-0.7,1.4-1.1c0.2,0.1,0.3,0.1,0.5,0.1
		c0.7,0,1.4-0.6,1.4-1.3c0-0.2,0-0.3-0.1-0.5c1-1.1,1.5-2.1,1.1-2.8c-0.2-0.3-0.4-0.5-0.8-0.6c-1.2-0.3-3.5,0.2-6.4,1.4
		c-0.2-3.3-0.8-5.8-1.6-6.7c-0.3-0.3-0.5-0.4-0.8-0.4h0c-0.8,0-1.5,1.1-2,2.6c-0.7,0-1.3,0.6-1.3,1.3c0,0.5,0.3,1,0.7,1.2
		c-0.1,0.7-0.3,1.5-0.4,2.3C90.1,103.1,87.5,102.5,86.3,102.9z M89,107c0.1-0.2,0.1-0.3,0.1-0.5c0-0.8-0.6-1.4-1.4-1.4
		c-0.2,0-0.5,0.1-0.7,0.2c-0.6-0.7-0.9-1.2-0.8-1.4l0.2-0.1c0.2-0.1,0.4-0.1,0.7-0.1c1.2,0,3.2,0.5,5.8,1.6
		c-0.1,0.6-0.1,1.2-0.1,1.7c-0.7,0.4-1.4,0.9-2.1,1.4C90.1,107.9,89.5,107.4,89,107z M98.8,108c0.4,0.2,0.8,0.5,1.1,0.7
		c-0.4,0.3-0.8,0.5-1.2,0.8c0-0.2,0-0.4,0-0.6C98.7,108.6,98.8,108.3,98.8,108z M96.6,106.9c0.4,0.2,0.8,0.4,1.2,0.6
		c0,0.4,0,0.9,0,1.3c0,0.4,0,0.8-0.1,1.2c-0.3,0.2-0.6,0.4-1,0.6l0,0c-0.3,0.2-0.6,0.3-0.9,0.5c-0.3-0.1-0.6-0.3-0.9-0.4h0
		c-0.4-0.2-0.8-0.4-1.2-0.6c0-0.4,0-0.9,0-1.3c0-0.4,0-0.9,0.1-1.3c0.3-0.2,0.6-0.4,1-0.6c0.3-0.2,0.6-0.3,0.9-0.5
		C96.1,106.6,96.3,106.7,96.6,106.9z M96.8,105.9c0.4-0.2,0.7-0.4,1-0.5c0,0.3,0,0.7,0,1.1c-0.3-0.1-0.5-0.3-0.8-0.4
		C97,106,96.9,106,96.8,105.9z M97.7,111.2c0,0.3,0,0.5-0.1,0.8c-0.2-0.1-0.5-0.2-0.8-0.3c0.1-0.1,0.2-0.1,0.4-0.2
		C97.4,111.4,97.5,111.3,97.7,111.2z M91.7,108.9c0.4-0.3,0.8-0.5,1.2-0.8c0,0.2,0,0.4,0,0.7c0,0.3,0,0.5,0,0.8
		C92.4,109.3,92.1,109.1,91.7,108.9z M94.8,111.7c-0.4,0.2-0.7,0.3-1,0.5c0-0.3,0-0.7,0-1.1c0.3,0.1,0.5,0.3,0.8,0.4
		C94.6,111.6,94.7,111.6,94.8,111.7z M94.4,106.2c-0.1,0.1-0.3,0.2-0.4,0.3c0-0.3,0-0.5,0.1-0.8c0.2,0.1,0.5,0.2,0.7,0.3
		C94.6,106,94.5,106.1,94.4,106.2z M86.8,114.2l-0.2-0.1c-0.3-0.5,1.1-2.3,4.3-4.6c0.6,0.4,1.3,0.8,2,1.2c0,0.7,0,1.3,0,2
		C89.9,113.9,87.6,114.4,86.8,114.2z M95.4,119.8l-0.2-0.1c-0.6-0.6-1.2-3-1.4-6.5c0.7-0.3,1.3-0.6,2-1c0.6,0.3,1.1,0.5,1.7,0.8
		C97,117.4,96,119.8,95.4,119.8z M105.2,113.7l-0.2,0.1c-0.9,0.3-3.3-0.2-6.5-1.5c0.1-0.6,0.1-1.2,0.2-1.7c0.7-0.4,1.4-0.9,2.1-1.4
		C104,111.4,105.5,113.2,105.2,113.7z M104.3,103.4c0.2,0,0.4,0,0.5,0.1l0.2,0.1c0.1,0.2-0.2,0.8-0.9,1.7c-0.2-0.1-0.4-0.2-0.7-0.2
		c-0.7,0-1.3,0.6-1.3,1.3c0,0.2,0,0.5,0.1,0.6c-0.5,0.4-1,0.8-1.5,1.2c-0.6-0.4-1.3-0.8-1.9-1.2c0-0.7,0-1.4,0-2
		C101.2,103.9,103.2,103.4,104.3,103.4z M94.5,102.2c0.6-0.1,1.1-0.6,1.1-1.3c0-0.4-0.2-0.8-0.5-1.1c0.4-1.3,0.8-2,1.1-2l0.2,0.1
		c0.6,0.6,1.2,3,1.4,6.4c-0.7,0.3-1.3,0.6-2,1c-0.6-0.3-1.1-0.5-1.7-0.7C94.2,103.7,94.3,102.9,94.5,102.2z"/>
	<path class="st6" d="M150,69.6c7.5,0,13.5-6,13.5-13.5c0-7.5-6-13.5-13.5-13.5s-13.5,6-13.5,13.5C136.5,63.6,142.5,69.6,150,69.6z
		 M146.4,51.8h-4.6v-2l0.1-0.1h0.1h4.3h0.1l0.1,0.1V51.8z M146.3,52.5v5.3c0,2,1.7,3.6,3.7,3.6c2,0,3.6-1.6,3.6-3.6v-5.3h4.7l0,5.3
		c0,1.1-0.2,2.1-0.7,3.1c-0.4,1-1,1.8-1.8,2.5c-0.8,0.7-1.7,1.3-2.6,1.7c-2.1,0.9-4.4,0.9-6.5,0c-1-0.4-1.9-1-2.6-1.7
		c-0.8-0.7-1.4-1.6-1.8-2.5c-0.4-1-0.7-2.1-0.7-3.1v-5.4H146.3z M158.3,49.8v2h-4.6v-2l0.1-0.1h0.1h4.3h0.1L158.3,49.8z"/>
	<polygon class="st2" points="153.8,49.6 153.7,49.6 153.7,49.8 153.7,51.8 158.3,51.8 158.3,49.8 158.3,49.6 158.1,49.6 	"/>
	<polygon class="st2" points="146.2,49.7 141.9,49.7 141.8,49.7 141.8,49.8 141.8,51.8 146.4,51.8 146.4,49.8 146.3,49.7 	"/>
	<path class="st2" d="M141.7,57.9c0,1.1,0.2,2.1,0.7,3.1c0.4,1,1,1.8,1.8,2.5c0.8,0.7,1.7,1.3,2.6,1.7c2.1,0.9,4.4,0.9,6.5,0
		c1-0.4,1.9-1,2.6-1.7c0.8-0.7,1.4-1.6,1.8-2.5c0.4-1,0.6-2.1,0.7-3.1l0-5.3h-4.7v5.3c0,2-1.6,3.6-3.6,3.6c-2,0-3.6-1.6-3.7-3.6
		v-5.3h-4.6V57.9z"/>
</g>
</svg>
