<svg id="Layer_1" data-name="Layer 1" xmlns="http://www.w3.org/2000/svg" viewBox="0 0 150 50"><path d="M25.91,31.48H24.4l-1.81-1.66V29l1.87-1.79V24.34l2.45-1.6,2.79,2.11ZM19.65,27l.27-2.66L19,22h5.41l-.9,2.39L23.78,27H19.65Zm1.23,2.82L19.07,31.5H17.54l-3.82-6.65,2.82-2.09L19,24.34v2.83L20.88,29ZM17.52,17h8.37l1,4.26H16.54Zm4.19-5.3L11.08,17.86V30.14l10.63,6.13,10.63-6.13V17.86Z" fill="#fff"/><path d="M44.28,29.69a4.82,4.82,0,0,1-4.88-4.9,4.89,4.89,0,0,1,4.9-5,4.71,4.71,0,0,1,3.77,1.62l-1.34,1.45a3.17,3.17,0,0,0-2.45-1.17,2.85,2.85,0,0,0-2.73,3,2.88,2.88,0,0,0,2.83,3.06,3.36,3.36,0,0,0,2.45-1.17l1.3,1.3a4.87,4.87,0,0,1-3.85,1.75" fill="#fff"/><path d="M52.24,29.69H50.07V19.85h2.17v2.3a3.34,3.34,0,0,1,3.35-2.3v2.3h-.13c-1.89,0-3.22,1.23-3.22,3.75v3.79Z" fill="#fff"/><polygon points="66.95 19.8 62.15 32.33 59.96 32.33 61 29.69 56.89 19.8 59.21 19.8 62 27.11 64.69 19.8 66.95 19.8" fill="#fff"/><path d="M73.34,21.7a2.83,2.83,0,0,0-2.75,3.05,2.84,2.84,0,0,0,2.75,3,2.77,2.77,0,0,0,2.7-3,2.79,2.79,0,0,0-2.7-3.05m.49,8A3.85,3.85,0,0,1,70.63,28v4.32H68.46V19.8h2.17v1.77a3.81,3.81,0,0,1,3.2-1.77c2.24,0,4.41,1.77,4.41,4.92s-2.15,5-4.41,5" fill="#fff"/><path d="M83,21.87v4.64a1,1,0,0,0,1.17,1.18H85v1.93H83.52c-1.57,0-2.7-.7-2.7-2.76v-5h-1.2V20h1.2v-2.6H83V20h2v1.85Z" fill="#fff"/><path d="M91.85,21.7a2.84,2.84,0,0,0-2.85,3,2.92,2.92,0,0,0,2.87,3.07,2.84,2.84,0,0,0,2.86-3,2.88,2.88,0,0,0-2.88-3.07m0,8a4.89,4.89,0,0,1-5-4.9,5,5,0,0,1,5.05-5,4.9,4.9,0,0,1,5,4.93,5,5,0,0,1-5.07,4.94" fill="#fff"/><path d="M117.66,21.7a2.84,2.84,0,0,0-2.86,3,2.92,2.92,0,0,0,2.88,3.07,2.84,2.84,0,0,0,2.85-3,2.89,2.89,0,0,0-2.87-3.07m0,8a4.89,4.89,0,0,1-5-4.9,5,5,0,0,1,5-5,4.9,4.9,0,0,1,5,4.93,5,5,0,0,1-5.07,4.94" fill="#fff"/><path d="M135.59,19.8c2.07,0,3.33,1.3,3.33,3.62v6.25h-2.17V24.09c0-1.52-.71-2.31-1.92-2.31s-2,.84-2,2.35v5.56h-2.17v-5.6c0-1.47-.72-2.31-1.92-2.31s-2,.9-2,2.37v5.54h-2.17V19.82h2.17v1.62a3.42,3.42,0,0,1,2.88-1.62,3,3,0,0,1,2.81,1.67,3.87,3.87,0,0,1,3.21-1.69" fill="#fff"/><polygon points="100.91 27.69 100.91 28.79 100.84 28.9 99.89 29.43 99.76 29.43 98.82 28.9 98.76 28.79 98.76 27.69 98.82 27.58 99.76 27.05 99.89 27.05 100.84 27.58 100.91 27.69" fill="#fff"/><path d="M107.49,29.67a4.94,4.94,0,0,1,.22-9.87,4.78,4.78,0,0,1,3.74,1.71l-1.36,1.42a3.2,3.2,0,0,0-2.43-1.23,2.83,2.83,0,0,0-2.77,3,2.86,2.86,0,0,0,2.77,3.11,3.26,3.26,0,0,0,2.47-1.13L111.41,28a4.83,4.83,0,0,1-3.92,1.69" fill="#fff"/></svg>