<svg xmlns="http://www.w3.org/2000/svg" viewBox="0 0 120.72 120.72"><path d="M123.37,90.64c-2.88-10.28-9.51-16.86-19.8-19.71-.95-.27-1.26-.63-1.26-1.64q.06-21.44,0-42.88c0-5.34-3-9.48-7.81-10.75a14.51,14.51,0,0,0-3.29-.39c-3.55,0-7.09,0-10.79,0V11.87c0-4-2-6.46-5.86-7.46a1.35,1.35,0,0,1-.31-.2H31.89l-1.44.47A6.89,6.89,0,0,0,25.69,11c-.05,1.36,0,2.72,0,4.22-2.36,0-4.57,0-6.78,0a46.66,46.66,0,0,0-6.27.2,10.35,10.35,0,0,0-8.75,8.7,8.24,8.24,0,0,1-.24.85v90.16c1,5.49,4.28,8.73,9.76,9.76h85c1.68-.29,3.38-.47,5-.88A27.39,27.39,0,0,0,124.14,100c0-.42.15-.83.22-1.25V96.16C124,94.32,123.87,92.44,123.37,90.64ZM33.62,9.8H70.71c.77,0,1.54,0,2.31,0,1.41,0,1.93.53,2,1.95,0,2.22,0,4.45,0,6.67,0,1.83-.46,2.29-2.27,2.29H33.44c-1.93,0-2.31-.4-2.32-2.34v-6C31.12,10.12,31.43,9.8,33.62,9.8ZM78.76,119.34q-31.85,0-63.69,0c-2.12,0-4-.5-5-2.43a7.82,7.82,0,0,1-.8-3.54Q9.19,77.16,9.22,41q0-7.24,0-14.51c0-3.67,2-5.72,5.71-5.74,3.3,0,6.59,0,9.89,0a1.13,1.13,0,0,1,1.3.87,6.7,6.7,0,0,0,6.7,4.64q20.22.08,40.45,0A6.68,6.68,0,0,0,80,21.54a1.06,1.06,0,0,1,1.18-.84c3.47,0,6.94,0,10.4,0A5.13,5.13,0,0,1,96.87,26q0,21.71,0,43.4c0,.17,0,.34,0,.56-12.24.84-21.27,6.44-25.53,18-4.51,12.24-.9,22.7,8.78,31.38C79.57,119.3,79.17,119.34,78.76,119.34Zm18.14,0a21.89,21.89,0,1,1,21.87-21.75A21.84,21.84,0,0,1,96.9,119.34Z" transform="translate(-3.64 -4.21)" fill="#00aeef"/><path d="M44,42.47a6.61,6.61,0,0,0,1.78.19c7,0,14,0,20.93,0H87.59a7.52,7.52,0,0,0,1.78-.16,2.68,2.68,0,0,0,0-5.19,7.08,7.08,0,0,0-1.66-.16h-42a6.13,6.13,0,0,0-1.77.19,2.5,2.5,0,0,0-1.87,2.48A2.57,2.57,0,0,0,44,42.47Z" transform="translate(-3.64 -4.21)" fill="#00aeef"/><path d="M45.25,53.58c7.19,0,14.38,0,21.58,0h5.65c5.35,0,10.7,0,16,0a2.69,2.69,0,0,0,2.86-2.66,2.77,2.77,0,0,0-2.9-2.78c-.3,0-.6,0-.9,0H45.85a10.89,10.89,0,0,0-1.28,0,2.68,2.68,0,0,0-2.44,2.92C42.23,52.66,43.35,53.58,45.25,53.58Z" transform="translate(-3.64 -4.21)" fill="#00aeef"/><path d="M33.17,92.11a4.41,4.41,0,0,0-1.68,1.11c-2.83,2.79-5.63,5.62-8.69,8.67-1.12-1.19-2.11-2.31-3.17-3.36-1.34-1.34-2.91-1.43-4.09-.31s-1.14,2.79.22,4.18c1.56,1.59,3.14,3.16,4.72,4.73s3.12,1.72,4.84,0q5-5,10-10a7,7,0,0,0,.69-.75,2.64,2.64,0,0,0,.09-3.23A2.47,2.47,0,0,0,33.17,92.11Z" transform="translate(-3.64 -4.21)" fill="#00aeef"/><path d="M32,65.34c-.39.34-.74.71-1.1,1.08l-8.08,8.07c-.59-.66-1.06-1.21-1.56-1.74s-1.07-1.1-1.63-1.63c-1.37-1.32-2.92-1.43-4.09-.29s-1.12,2.8.24,4.18c1.59,1.61,3.2,3.21,4.8,4.81s3,1.62,4.65,0q5.1-5.07,10.16-10.16c.15-.15.31-.3.45-.46a2.76,2.76,0,0,0,0-3.82A2.67,2.67,0,0,0,32,65.34Z" transform="translate(-3.64 -4.21)" fill="#00aeef"/><path d="M20.94,52.76a2.62,2.62,0,0,0,3.9,0q5.49-5.4,10.9-10.89a2.73,2.73,0,1,0-3.88-3.83c-2.27,2.21-4.49,4.47-6.72,6.71-.72.72-1.42,1.46-2.31,2.38-1.23-1.31-2.3-2.53-3.46-3.65a2.7,2.7,0,0,0-3.91,0,2.65,2.65,0,0,0,0,3.81C17.28,49.16,19.1,51,20.94,52.76Z" transform="translate(-3.64 -4.21)" fill="#00aeef"/><path d="M66.56,70a2.72,2.72,0,1,0,.06-5.44c-7.23,0-14.46,0-21.69,0a3.2,3.2,0,0,0-2.31,1.25,3.6,3.6,0,0,0-.17,2.62A2.27,2.27,0,0,0,44.88,70H55.79C59.38,70,63,70.05,66.56,70Z" transform="translate(-3.64 -4.21)" fill="#00aeef"/><path d="M66.69,75.57c-3.64,0-7.27,0-10.91,0h0c-3.59,0-7.19,0-10.78,0a2.64,2.64,0,0,0-2.88,2.74A2.68,2.68,0,0,0,44.94,81c7.23,0,14.46,0,21.68,0A3.52,3.52,0,0,0,69,79.61,2.62,2.62,0,0,0,66.69,75.57Z" transform="translate(-3.64 -4.21)" fill="#00aeef"/><path d="M61.05,102.93c-2.65-.07-5.3,0-7.95,0s-5.38,0-8.08,0a2.7,2.7,0,0,0-2.9,2.75,2.64,2.64,0,0,0,2.79,2.73c5.42,0,10.85.08,16.28,0A3.52,3.52,0,0,0,63.58,107C64.8,105.19,63.38,103,61.05,102.93Z" transform="translate(-3.64 -4.21)" fill="#00aeef"/><path d="M45.15,97.44q7.88,0,15.76,0A2.79,2.79,0,0,0,64,94.72c0-1.6-1.2-2.71-3.05-2.72-2.61,0-5.22,0-7.82,0s-5.3,0-7.95,0c-1.91,0-3.05,1-3.05,2.7A2.72,2.72,0,0,0,45.15,97.44Z" transform="translate(-3.64 -4.21)" fill="#00aeef"/><path d="M100.52,97.23a2.59,2.59,0,0,1-.9-2.12c0-2.74,0-5.47,0-8.21,0-2-1.12-3.14-2.81-3.11s-2.66,1.2-2.7,3.09c0,1.71,0,3.42,0,5.13a49,49,0,0,0,0,5,5,5,0,0,0,1.07,2.61c1.55,1.76,3.27,3.37,5,5,1.35,1.31,3,1.37,4.09.22s1.09-2.74-.22-4.09C102.91,99.56,101.74,98.36,100.52,97.23Z" transform="translate(-3.64 -4.21)" fill="#00aeef"/></svg>