<svg xmlns="http://www.w3.org/2000/svg" viewBox="0 0 150 50"><path d="M21,35.61H16.51a2.42,2.42,0,0,1-2.3-1.31c-1.56-2.73-3.15-5.44-4.72-8.16a2.15,2.15,0,0,1,0-2.28c1.58-2.74,3.18-5.47,4.75-8.22a2.34,2.34,0,0,1,2.2-1.25H25.6A2.45,2.45,0,0,1,28,15.74c1.51,2.68,3.06,5.34,4.61,8a2.43,2.43,0,0,1-.07,2.65C31,29,29.49,31.53,28,34.13a2.59,2.59,0,0,1-2.5,1.48C24,35.59,22.53,35.61,21,35.61Zm.06-3.4a2.12,2.12,0,0,0,.29.06,7.27,7.27,0,1,0-5.79-2.47c.63.67.9.68,1.57,0,1-1,2-2,3-2.95a1.5,1.5,0,0,1,.89-.36,1.57,1.57,0,0,0,1.47-1.44,1.52,1.52,0,0,0-1.4-1.57,1.4,1.4,0,0,0-1.52,1.26c0,.87-.59,1.18-1.08,1.65a2.9,2.9,0,1,1,3,1.45c-.36.08-.47.22-.45.56s0,.59,0,1a12.66,12.66,0,0,0,1.27-.24A4.36,4.36,0,1,0,17.19,27a.83.83,0,0,1,0,.67,4.69,4.69,0,0,1-.78.76,5.73,5.73,0,0,1-.19-6.77A5.82,5.82,0,0,1,26.88,25.2a5.6,5.6,0,0,1-1.17,3.32,6,6,0,0,1-4.62,2.34Z" fill="#fff"/><path d="M38.62,31.82V18.32c.07-.05.1-.1.14-.1,2,0,4.05-.08,6.05.15a6.41,6.41,0,0,1,5.61,5.26C50.9,27,49.6,29.71,46.78,31a8.83,8.83,0,0,1-3,.76C42.06,31.91,40.37,31.82,38.62,31.82Zm2.81-11.09v8.58a20.34,20.34,0,0,0,2.07,0,4.07,4.07,0,0,0,3.76-2.52,4.26,4.26,0,0,0-.69-4.69C45.19,20.56,43.32,20.68,41.43,20.73Z" fill="#fff"/><path d="M95.8,26.52l1.89,2.6,1.93,2.7c-1.08,0-2,0-2.93,0-.2,0-.42-.27-.56-.47-.91-1.2-1.82-2.4-2.66-3.64a1.37,1.37,0,0,0-1.4-.68,10.41,10.41,0,0,1-1.13,0v4.79H88.16V18.18c1.13,0,2.23,0,3.33,0a18,18,0,0,1,3.29.22,4,4,0,0,1,3.31,3.41,4.13,4.13,0,0,1-2,4.51A2,2,0,0,0,95.8,26.52ZM91,20.66v3.85l.32,0c.75,0,1.5,0,2.25,0a1.83,1.83,0,0,0,1.78-1.82,1.9,1.9,0,0,0-1.7-2C92.76,20.62,91.89,20.66,91,20.66Z" fill="#fff"/><path d="M118.69,22.48V16.36h2.77V31.79H119l-.08-1.1a4.28,4.28,0,0,1-3.71,1.39,5,5,0,0,1-3.48-1.93A5.78,5.78,0,0,1,112,23C113.73,21.09,116.2,20.87,118.69,22.48Zm-5.19,4.24a2.61,2.61,0,0,0,2.59,2.82,2.57,2.57,0,0,0,2.69-2.65,2.65,2.65,0,1,0-5.28-.17Z" fill="#fff"/><path d="M65.74,31v4.56H63V21.64h2.51l.06,1.17a4.2,4.2,0,0,1,3.93-1.38,4.9,4.9,0,0,1,3,1.63,5.82,5.82,0,0,1,.26,7.05C71.12,32.29,68.81,32.61,65.74,31ZM71,26.77a2.67,2.67,0,0,0-2.62-2.87,2.59,2.59,0,0,0-2.65,2.67,2.65,2.65,0,1,0,5.27.2Z" fill="#fff"/><path d="M75.52,21.62h2.53v1.2a4.24,4.24,0,0,1,3.74-1.41,4.8,4.8,0,0,1,3.43,1.86,5.79,5.79,0,0,1-.14,7.11c-1.81,2-4.18,2.24-6.76.63v4.54h-2.8Zm2.71,5.13a2.54,2.54,0,0,0,2.58,2.79,2.67,2.67,0,0,0,2.69-2.81,2.68,2.68,0,0,0-2.67-2.83A2.58,2.58,0,0,0,78.23,26.75Z" fill="#fff"/><path d="M58.27,31.85,58.15,31l-.55.35a4.39,4.39,0,0,1-4.41.32,2.69,2.69,0,0,1-1.64-2.58,2.49,2.49,0,0,1,1.63-2.55,9,9,0,0,1,2.32-.45,23.22,23.22,0,0,1,2.36,0,1.68,1.68,0,0,0-1.94-2.25,4,4,0,0,0-2.58,1.32l-.68-.76L52,23.52a4.69,4.69,0,0,1,3-2,4.71,4.71,0,0,1,4.45.81,3.93,3.93,0,0,1,1.38,3c0,1.95,0,3.91,0,5.86,0,.48-.13.68-.63.65S59,31.85,58.27,31.85Zm-.3-4c-1,.06-2,.06-2.9.21a1.06,1.06,0,0,0-.65.79,1.14,1.14,0,0,0,.45.93,1.91,1.91,0,0,0,2.07,0A2.08,2.08,0,0,0,58,27.83Z" fill="#fff"/><path d="M106.55,31.85l-.09-.88-.55.36a4.44,4.44,0,0,1-4.3.42A2.82,2.82,0,0,1,99.83,29a2.61,2.61,0,0,1,1.93-2.57,10.11,10.11,0,0,1,2.28-.32c.72,0,1.44,0,2.14,0A1.73,1.73,0,0,0,104,23.88,24.68,24.68,0,0,0,101.48,25l-1.27-1.46a4.89,4.89,0,0,1,2.44-1.8,5.44,5.44,0,0,1,4.12,0,3.82,3.82,0,0,1,2.31,3.59c0,1.95,0,3.9,0,5.85,0,.49-.14.68-.64.65S107.21,31.85,106.55,31.85Zm-.32-4a27.93,27.93,0,0,0-2.81.2,1.2,1.2,0,0,0-.73.79,1.14,1.14,0,0,0,.43.93,1.9,1.9,0,0,0,2.12,0A2,2,0,0,0,106.23,27.83Z" fill="#fff"/><path d="M129.83,31.8l-.06-.82-.49.3a4.36,4.36,0,0,1-4.48.4,2.72,2.72,0,0,1-1.64-2.91,2.52,2.52,0,0,1,2-2.38,10.24,10.24,0,0,1,2.21-.31c.72,0,1.45,0,2.15,0,.18-1.09-.09-1.74-.83-2.12-.93-.47-2.48,0-3.72,1.23l-1.42-1.67a5.35,5.35,0,0,1,3.25-2c2.28-.47,4.15.21,5.08,1.93a4.43,4.43,0,0,1,.54,1.87c.06,2,0,4.09,0,6.14a2,2,0,0,1-.06.37Zm-.32-4c-1,.07-1.89.07-2.8.22a1.16,1.16,0,0,0-.7.76,1.09,1.09,0,0,0,.36.9,2,2,0,0,0,3.14-1.88Z" fill="#fff"/><path d="M140.84,24.05c-.39,0-.74,0-1.08,0a2.47,2.47,0,0,0-2.4,2.46c0,1.74,0,3.47,0,5.28h-2.77V21.61h2.46l.1,1.07a3.72,3.72,0,0,1,3.69-1.07Z" fill="#fff"/></svg>