<?xml version="1.0" encoding="utf-8"?>
<svg version="1.2" baseProfile="tiny" id="Layer_1" xmlns="http://www.w3.org/2000/svg" xmlns:xlink="http://www.w3.org/1999/xlink"
	 x="0px" y="0px" viewBox="0 0 128 128" xml:space="preserve">
<path fill="#00AEEF" d="M120.9,93c0,0.1-0.1,0.2-0.2,0.3c-8.7,6.4-18.4,11.3-28.7,14.5H92c-0.1,0-0.2-0.1-0.3-0.2
	c-2.2-3-4.1-6.2-5.9-9.5c0-0.1,0-0.1,0-0.2c0-0.2,0.1-0.3,0.2-0.3c3.1-1.2,6.1-2.6,9-4.3c0.1-0.1,0.2-0.2,0.2-0.3
	c0-0.1-0.1-0.2-0.2-0.3c-0.6-0.4-1.2-0.9-1.8-1.4c-0.1-0.1-0.2-0.1-0.3-0.1c0,0-0.1,0-0.2,0c-18.3,8.6-39.4,8.6-57.7,0
	c0,0-0.1,0-0.1,0c-0.1,0-0.2,0-0.2,0.1c-0.6,0.5-1.2,0.9-1.8,1.4c-0.1,0.1-0.1,0.2-0.1,0.3c0,0.1,0.1,0.3,0.2,0.3
	c2.9,1.7,5.9,3.1,9,4.3c0.1,0.1,0.2,0.2,0.2,0.3c0,0.1,0,0.1,0,0.2c-1.7,3.3-3.7,6.5-5.9,9.5c-0.1,0.1-0.2,0.1-0.3,0.2H36
	c-10.4-3.2-20.1-8.1-28.8-14.5c-0.1-0.1-0.1-0.1-0.1-0.2c-2-21.4,2.1-43.1,17-65.3c0-0.1,0.1-0.1,0.1-0.1c7.4-3.4,15.3-5.8,23.4-7.2
	h0.1c0.1,0,0.3,0.1,0.3,0.2c1.1,1.9,2.1,3.9,3,6c4.3-0.7,8.6-1,13-1c4.4,0,8.8,0.3,13.2,1c0.9-2,1.8-4.1,2.9-6
	c0.1-0.1,0.2-0.2,0.3-0.2h0.1c8.1,1.4,15.9,3.8,23.3,7.2c0.1,0,0.1,0.1,0.2,0.1C116.9,46.7,123.3,68.2,120.9,93z M55.3,68.4
	C55.4,62,50.8,56.8,45,56.8S34.6,62,34.6,68.4S39.3,79.9,45,79.9S55.3,74.7,55.3,68.4z M93.4,68.4c0.1-6.3-4.5-11.6-10.3-11.6
	S72.8,62,72.8,68.4s4.7,11.6,10.3,11.6S93.4,74.7,93.4,68.4z"/>
</svg>
