<svg xmlns="http://www.w3.org/2000/svg" viewBox="0 0 122.38 122.06"><path d="M125.19,66.4c-.32,2.4-.57,4.81-1,7.19-2.49,15.12-9,28-21,37.84a59.11,59.11,0,0,1-29.5,12.85c-14.24,2.07-27.79-.09-40.4-7.11C19,109.18,9.9,97,5.44,81.29A69.61,69.61,0,0,1,3,67.32a7.21,7.21,0,0,0-.21-.92v-6c.31-2.28.53-4.57.95-6.83A60.24,60.24,0,0,1,30.34,13.14a58.2,58.2,0,0,1,37.48-10C87.91,4.59,103.68,13.87,115,30.49a58.55,58.55,0,0,1,10,29,7.18,7.18,0,0,0,.2.92ZM64,7C32.83,7.23,7.27,29.12,6.64,64.47c-.56,31.27,25.72,57.1,57.28,57.16s58-25.73,57.44-57.12C120.79,29,95,7.23,64,7Z" transform="translate(-2.81 -2.97)" fill="#fff"/><path d="M115.47,57.7c0,1.15-.66,1.69-1.68,2-2.77.86-5.54,1.73-8.29,2.63-1.44.47-2,1.84-1.15,2.87a3.31,3.31,0,0,0,1.49.89c2.48.83,5,1.6,7.49,2.39,2.06.65,2.35,1.07,2,3.21a51.94,51.94,0,0,1-44.19,43.93,2.07,2.07,0,0,1-2.7-1.67c-.86-2.69-1.72-5.38-2.56-8.07-.3-.94-.75-1.7-1.86-1.73s-1.65.75-2,1.74q-1.2,3.93-2.46,7.85c-.54,1.7-1.18,2.09-2.93,1.84A51.89,51.89,0,0,1,12.91,73.45c-.06-.35-.09-.71-.15-1.06-.51-2.83-.29-3.2,2.4-4,2.35-.74,4.7-1.49,7.06-2.2,1-.3,1.77-.8,1.82-1.92s-.78-1.6-1.69-1.9c-2.53-.82-5.07-1.62-7.61-2.43-2.09-.66-2.42-1.14-2.09-3.3A50.94,50.94,0,0,1,24.47,30.53,51.7,51.7,0,0,1,56.32,12.8c1.83-.3,2.91.29,3.41,2.13.69,2.53,1.58,5,2.35,7.51.31,1,.8,1.76,2,1.75s1.58-.75,1.88-1.7c.81-2.63,1.64-5.24,2.46-7.86.57-1.79,1.1-2.12,3-1.82,17.56,2.82,30.5,12.11,38.87,27.75a49.41,49.41,0,0,1,5.12,15.95C115.41,56.9,115.43,57.3,115.47,57.7Zm-43.88,54c22-3.38,37.43-21.36,39.9-39.95-.65-.2-1.33-.4-2-.63-2.1-.72-4.26-1.31-6.28-2.21a4.81,4.81,0,0,1-2.94-4.67,5,5,0,0,1,2.9-4.82,34.09,34.09,0,0,1,4.22-1.63c1.38-.46,2.79-.83,4.12-1.22a1.69,1.69,0,0,0,0-.42A48.19,48.19,0,0,0,73.73,17c-2.17-.43-2.12-.42-2.79,1.72A55.7,55.7,0,0,1,68.75,25,4.85,4.85,0,0,1,64,27.91c-2.88,0-4.42-1.78-5.33-4.19-.74-2-1.3-4-1.86-6-.25-.86-.63-1.12-1.53-.93Q30.13,22,19.61,45.39a41.71,41.71,0,0,0-3.17,11.16c.89.27,1.72.51,2.54.78,1.78.58,3.6,1.05,5.3,1.79a5.4,5.4,0,0,1,0,10.07c-1.67.73-3.45,1.19-5.19,1.76-.88.29-1.78.56-2.64.83,3.29,21.71,21.15,37.36,40,39.87.22-.73.42-1.49.68-2.24a41.46,41.46,0,0,1,2.36-6.34,5.15,5.15,0,0,1,9.1,0A21.38,21.38,0,0,1,70.2,107C70.72,108.52,71.12,110.09,71.59,111.71Z" transform="translate(-2.81 -2.97)" fill="#fff"/><path d="M94.58,35.64a9.31,9.31,0,0,1-.39,1Q85,55.51,75.69,74.35a3.6,3.6,0,0,1-1.55,1.54Q55.38,85.16,36.57,94.34A2,2,0,0,1,34,94.22c-.83-.8-.66-1.67-.2-2.62Q43.07,72.82,52.3,54a3.59,3.59,0,0,1,1.53-1.53Q72.6,43.22,91.4,34C93.07,33.21,94.57,33.88,94.58,35.64Zm-5.92,3.91-.93.41Q72,47.64,56.35,55.37a3,3,0,0,0-1.23,1.32q-7.63,15.47-15.21,31c-.15.3-.26.61-.42,1a2.93,2.93,0,0,0,.48-.11q15.92-7.8,31.81-15.63a2.64,2.64,0,0,0,1.07-1.17q4.94-9.94,9.79-19.92Z" transform="translate(-2.81 -2.97)" fill="#fff"/><path d="M57.27,64.14a6.73,6.73,0,1,1,13.46.11,6.73,6.73,0,1,1-13.46-.11Zm9.58.07A3.3,3.3,0,0,0,64,60.93a3.32,3.32,0,0,0-2.84,3.19A3.24,3.24,0,0,0,64,67.37,3.24,3.24,0,0,0,66.85,64.21Z" transform="translate(-2.81 -2.97)" fill="#fff"/></svg>