<?xml version="1.0" encoding="utf-8"?>
<!-- Generator: Adobe Illustrator 24.1.1, SVG Export Plug-In . SVG Version: 6.00 Build 0)  -->
<svg version="1.1" id="Layer_1" xmlns="http://www.w3.org/2000/svg" xmlns:xlink="http://www.w3.org/1999/xlink" x="0px" y="0px"
	 viewBox="0 0 1797.9 967.2" style="enable-background:new 0 0 1797.9 967.2;" xml:space="preserve">
<style type="text/css">
	.st0{fill:#00AEEF;enable-background:new    ;}
	.st1{fill:#00AEEF;}
</style>
<path class="st0" d="M1275.5,21.4l-16.2-6.4c-240.2,9-480.4,9-720.7,0l-16.2,6.4C399.6,16.6,276.9,9.5,154.3,0l-15,5.3
	C320.5,19.6,502,28.8,683.7,32.8l6.5,5.1c139.2,3,278.4,3,417.6,0l6.5-5.1c181.6-4,363.1-13.2,544.4-27.5l-15-5.3
	C1521.1,9.5,1398.3,16.6,1275.5,21.4z"/>
<path class="st0" d="M1107.8,929.3c-139.2-3-278.4-3-417.6,0l-6.5,5.1c-181.6,4-363.1,13.2-544.4,27.5l15,5.3
	c122.6-9.5,245.3-16.6,368.1-21.4l16.2,6.4c240.2-9,480.4-9,720.7,0l16.2-6.4c122.8,4.8,245.5,11.9,368.2,21.4l15-5.3
	c-181.2-14.3-362.7-23.4-544.4-27.5L1107.8,929.3z"/>
<path class="st1" d="M40.5,332.4l-31.7-3.6c-0.1,1.1-0.3,2.3-0.4,3.4l31.8,3.5C40.2,334.6,40.3,333.5,40.5,332.4z"/>
<path class="st1" d="M37.4,362.2l-31.8-2.9c-0.1,1.1-0.2,2.3-0.3,3.4l31.8,2.8L37.4,362.2z"/>
<path class="st1" d="M32.3,452l-31.9-0.8c0,1.1,0,2.3-0.1,3.4l31.9,0.7C32.3,454.2,32.3,453.1,32.3,452z"/>
<path class="st1" d="M35.1,392.1l-31.9-2.2c-0.1,1.1-0.2,2.3-0.2,3.4l31.9,2.1C34.9,394.3,35,393.2,35.1,392.1z"/>
<path class="st1" d="M48.6,272.8l-31.6-5l-0.5,3.4l31.6,4.9C48.2,275,48.4,273.9,48.6,272.8z"/>
<path class="st1" d="M80.4,125.6l-30.8-8.5c-0.3,1.1-0.6,2.2-0.9,3.3l30.8,8.4C79.8,127.8,80.1,126.7,80.4,125.6z"/>
<path class="st1" d="M53.6,243.2l-31.4-5.7l-0.6,3.4l31.4,5.6L53.6,243.2z"/>
<path class="st1" d="M88.8,96.6l-30.6-9.2l-1,3.3l30.6,9.1C88.1,98.7,88.5,97.6,88.8,96.6z"/>
<path class="st1" d="M59.3,213.6L28,207.2l-0.7,3.4l31.3,6.3L59.3,213.6z"/>
<path class="st1" d="M72.7,154.9l-31-7.8l-0.8,3.3l31,7.7C72.2,157,72.4,155.9,72.7,154.9z"/>
<path class="st1" d="M48,691.1L16.5,696l0.5,3.4l31.6-5C48.4,693.3,48.2,692.2,48,691.1z"/>
<path class="st1" d="M71.9,809.1l-31,7.7l0.8,3.3l31-7.8C72.4,811.3,72.2,810.2,71.9,809.1z"/>
<path class="st1" d="M87.8,867.4l-30.6,9.1l1,3.3l30.6-9.2C88.5,869.6,88.1,868.5,87.8,867.4z"/>
<path class="st1" d="M58.6,750.3l-31.3,6.3l0.7,3.3l31.3-6.4L58.6,750.3z"/>
<path class="st1" d="M53,720.7l-31.4,5.6l0.6,3.4l31.4-5.7L53,720.7z"/>
<path class="st1" d="M40.1,631.5L8.3,635c0.1,1.1,0.3,2.3,0.4,3.4l31.7-3.6C40.3,633.7,40.2,632.6,40.1,631.5z"/>
<path class="st1" d="M79.5,838.3l-30.8,8.4c0.3,1.1,0.6,2.2,0.9,3.3l30.8-8.4C80.1,840.5,79.8,839.4,79.5,838.3z"/>
<path class="st1" d="M37.1,601.7l-31.8,2.8c0.1,1.1,0.2,2.3,0.3,3.4l31.8-2.9L37.1,601.7z"/>
<path class="st1" d="M32,481.9l-32,0v3.4h32V481.9z"/>
<path class="st1" d="M32.2,511.9l-31.9,0.7c0,1.1,0,2.3,0.1,3.4l31.9-0.8C32.3,514.1,32.3,513,32.2,511.9z"/>
<path class="st1" d="M34.8,571.8L3,573.9c0.1,1.1,0.2,2.3,0.2,3.4l31.9-2.2C35,574,34.9,572.9,34.8,571.8z"/>
<path class="st1" d="M66.8,906c0.3,1.1,0.7,2.2,1.1,3.3l60.8-19.7c-0.3-1-0.7-2.1-1-3.1L66.8,906z"/>
<path class="st1" d="M65.6,540.4l-63.8,2.8l0.2,3.4l63.8-2.9C65.7,542.6,65.6,541.5,65.6,540.4z"/>
<path class="st1" d="M66.8,61.2l60.8,19.6c0.3-1,0.7-2.1,1-3.1L67.9,57.9C67.5,59,67.2,60.1,66.8,61.2z"/>
<path class="st1" d="M76.3,306.9L13,298.3l-0.4,3.4l63.3,8.4C76,309.1,76.1,308,76.3,306.9z"/>
<path class="st1" d="M97.3,191.4L35,177.2c-0.3,1.1-0.5,2.2-0.8,3.3l62.3,14.1L97.3,191.4z"/>
<path class="st1" d="M96.5,772.6l-62.3,14.1c0.3,1.1,0.5,2.2,0.8,3.3l62.3-14.2L96.5,772.6z"/>
<path class="st1" d="M65.7,423.5l-63.8-2.9L1.8,424l63.8,2.8C65.6,425.7,65.7,424.6,65.7,423.5z"/>
<path class="st1" d="M75.9,657l-63.3,8.4l0.4,3.4l63.3-8.6C76.1,659.2,76,658.1,75.9,657z"/>
<path class="st1" d="M1725.2,812.3l31,7.8l0.8-3.3l-31-7.7C1725.8,810.2,1725.5,811.3,1725.2,812.3z"/>
<path class="st1" d="M1717.5,841.6l30.8,8.5c0.3-1.1,0.6-2.2,0.9-3.3l-30.8-8.4C1718.1,839.4,1717.8,840.5,1717.5,841.6z"/>
<path class="st1" d="M1744.3,724l31.4,5.7l0.6-3.4l-31.4-5.6L1744.3,724z"/>
<path class="st1" d="M1738.7,753.6l31.3,6.4l0.7-3.3l-31.3-6.3L1738.7,753.6z"/>
<path class="st1" d="M1709.2,870.6l30.6,9.2l1-3.3l-30.6-9.1C1709.8,868.5,1709.5,869.6,1709.2,870.6z"/>
<path class="st1" d="M1718.4,128.9l30.8-8.4c-0.3-1.1-0.6-2.2-0.9-3.3l-30.8,8.4C1717.8,126.7,1718.1,127.8,1718.4,128.9z"/>
<path class="st1" d="M1710.1,99.8l30.6-9.1l-1-3.3l-30.6,9.2C1709.5,97.6,1709.8,98.7,1710.1,99.8z"/>
<path class="st1" d="M1765.6,515.2l31.9,0.8c0-1.1,0.1-2.3,0.1-3.4l-31.9-0.7C1765.7,513,1765.7,514.1,1765.6,515.2z"/>
<path class="st1" d="M1726,158.1l31-7.7l-0.8-3.3l-31,7.8C1725.5,155.9,1725.8,157,1726,158.1z"/>
<path class="st1" d="M1762.9,575.1l31.9,2.2c0.1-1.1,0.2-2.3,0.2-3.4l-31.9-2.1C1763,572.9,1763,574,1762.9,575.1z"/>
<path class="st1" d="M1766,481.9v3.3h32v-3.4L1766,481.9z"/>
<path class="st1" d="M1757.5,634.8l31.7,3.6c0.1-1.1,0.3-2.3,0.4-3.4l-31.8-3.5C1757.7,632.6,1757.6,633.7,1757.5,634.8z"/>
<path class="st1" d="M1749.4,694.4l31.6,5l0.5-3.4l-31.6-4.9C1749.7,692.2,1749.6,693.3,1749.4,694.4z"/>
<path class="st1" d="M1760.5,605l31.8,2.9c0.1-1.1,0.2-2.3,0.3-3.4l-31.8-2.8L1760.5,605z"/>
<path class="st1" d="M1749.9,276.1l31.6-4.9l-0.5-3.4l-31.6,5C1749.6,273.9,1749.7,275,1749.9,276.1z"/>
<path class="st1" d="M1739.3,216.9l31.3-6.3l-0.7-3.4l-31.3,6.4L1739.3,216.9z"/>
<path class="st1" d="M1757.8,335.7l31.8-3.5c-0.1-1.1-0.3-2.3-0.4-3.4l-31.7,3.6C1757.6,333.5,1757.7,334.6,1757.8,335.7z"/>
<path class="st1" d="M1765.7,455.3l31.9-0.7c0-1.1,0-2.3-0.1-3.4l-31.9,0.8C1765.7,453.1,1765.7,454.2,1765.7,455.3z"/>
<path class="st1" d="M1745,246.5l31.4-5.6l-0.6-3.4l-31.4,5.7L1745,246.5z"/>
<path class="st1" d="M1760.8,365.5l31.8-2.8c-0.1-1.1-0.2-2.3-0.3-3.4l-31.8,2.9L1760.8,365.5z"/>
<path class="st1" d="M1763.1,395.4l31.9-2.1c-0.1-1.1-0.2-2.3-0.2-3.4l-31.9,2.2C1763,393.2,1763,394.3,1763.1,395.4z"/>
<path class="st1" d="M1721.7,660.3l63.3,8.6l0.4-3.4l-63.3-8.4C1722,658.1,1721.8,659.2,1721.7,660.3z"/>
<path class="st1" d="M1732.2,543.7l63.8,2.9l0.2-3.4l-63.8-2.8C1732.3,541.5,1732.3,542.6,1732.2,543.7z"/>
<path class="st1" d="M1722.1,310.1l63.3-8.4l-0.4-3.4l-63.3,8.6C1721.8,308,1722,309.1,1722.1,310.1z"/>
<path class="st1" d="M1732.4,426.8l63.8-2.8l-0.2-3.4l-63.8,2.9C1732.3,424.6,1732.3,425.7,1732.4,426.8z"/>
<path class="st1" d="M1731.1,61.2c-0.3-1.1-0.7-2.2-1.1-3.3l-60.8,19.7c0.3,1,0.7,2.1,1,3.1L1731.1,61.2z"/>
<path class="st1" d="M1669.3,889.6l60.8,19.7c0.4-1.1,0.7-2.2,1.1-3.3l-60.8-19.6C1670,887.5,1669.6,888.5,1669.3,889.6z"/>
<path class="st1" d="M1700.7,775.8L1763,790c0.3-1.1,0.5-2.2,0.8-3.3l-62.3-14.1C1701.2,773.7,1701,774.7,1700.7,775.8z"/>
<path class="st1" d="M1701.4,194.6l62.3-14.1c-0.3-1.1-0.5-2.2-0.8-3.3l-62.3,14.2C1701,192.5,1701.2,193.5,1701.4,194.6z"/>
<path class="st1" d="M1294.8,709c58.7-144.5,58.7-306.3,0-450.8c-1.6-0.8-3.2-1.7-4.8-2.5c60.4,145.9,60.4,309.8,0,455.7
	C1291.6,710.7,1293.2,709.8,1294.8,709z"/>
<path class="st1" d="M503.2,258.2c-58.7,144.5-58.7,306.3,0,450.8c1.6,0.8,3.2,1.7,4.8,2.5c-60.4-145.9-60.4-309.8,0-455.7
	C506.4,256.5,504.8,257.4,503.2,258.2z"/>
</svg>
