<?xml version="1.0" encoding="utf-8"?>
<svg version="1.2" baseProfile="tiny" id="Layer_1" xmlns="http://www.w3.org/2000/svg" xmlns:xlink="http://www.w3.org/1999/xlink"
	 x="0px" y="0px" viewBox="0 0 128 128" xml:space="preserve">
<path fill="#00AEEF" d="M107.5,82.1c-0.3,7-2,13.2-7.1,18.3s-11.3,6.7-18.3,7.1c-7.2,0.4-28.9,0.4-36.1,0c-7-0.3-13.2-2-18.3-7.1
	s-6.7-11.3-7.1-18.3c-0.4-7.2-0.4-28.9,0-36.1c0.4-7,1.9-13.2,7.1-18.3s11.3-6.7,18.3-7c7.2-0.4,28.9-0.4,36.1,0
	c7,0.4,13.2,2,18.3,7.1s6.7,11.3,7.1,18.3C107.9,53.2,107.9,74.8,107.5,82.1z M99.9,64c0-6.4,0.5-20-1.8-25.8
	c-1.5-3.8-4.5-6.8-8.3-8.3c-5.7-2.3-19.4-1.8-25.8-1.8s-20-0.5-25.8,1.8c-3.8,1.5-6.8,4.5-8.3,8.3c-2.3,5.7-1.8,19.4-1.8,25.8
	s-0.5,20,1.8,25.8c1.5,3.8,4.5,6.8,8.3,8.3c5.8,2.3,19.4,1.8,25.8,1.8s20,0.5,25.8-1.8c3.8-1.5,6.8-4.5,8.3-8.3
	C100.4,84.1,99.9,70.4,99.9,64z M86.4,64c0,12.4-10,22.4-22.4,22.4S41.6,76.4,41.6,64c0-12.4,10-22.4,22.4-22.4
	C76.4,41.5,86.4,51.6,86.4,64C86.5,64,86.5,64,86.4,64z M78.6,64c0-8.1-6.5-14.6-14.6-14.6S49.4,55.9,49.4,64
	c0,8.1,6.5,14.6,14.6,14.6C72.1,78.6,78.6,72.1,78.6,64z M87.4,45.9c-2.9,0-5.2-2.3-5.2-5.2c0-2.9,2.3-5.2,5.2-5.2s5.2,2.3,5.2,5.2
	c0,0,0,0,0,0C92.6,43.5,90.3,45.9,87.4,45.9C87.4,45.9,87.4,45.9,87.4,45.9z"/>
</svg>
