<svg xmlns="http://www.w3.org/2000/svg" viewBox="0 0 475 950"><path d="M445,104.08l-4.09-2.93q-50.24,7.77-100.56,11.68-2.22-1.74-4.43-3.49a1320.26,1320.26,0,0,1-196.88,0q-2.2,1.75-4.43,3.49-50.31-3.92-100.56-11.68L30,104.08a1337.53,1337.53,0,0,0,148.71,15l1.77,2.81q57,2.46,114.08,0l1.77-2.81A1337.53,1337.53,0,0,0,445,104.08Z" fill="#00aeef"/><path d="M30,845.92l4.09,2.93q50.24-7.77,100.56-11.68,2.22,1.74,4.43,3.49a1320.26,1320.26,0,0,1,196.88,0q2.21-1.75,4.43-3.49,50.31,3.92,100.56,11.68l4.09-2.93a1337.53,1337.53,0,0,0-148.71-15l-1.77-2.81q-57-2.46-114.08,0l-1.77,2.81A1337.53,1337.53,0,0,0,30,845.92Z" fill="#00aeef"/></svg>