<svg xmlns="http://www.w3.org/2000/svg" viewBox="0 0 512 512"><path d="M82.36,193.08a252.32,252.32,0,0,1,14.53-24.84c2.21,29.15,24.07,42,50.83,54.45A78.29,78.29,0,0,1,172.4,176.9c-18.36-12.11-35.71-26.34-44.09-47.19q7.86-7.91,16.37-15.08l0,.1c4.94,20.41,21.43,34.51,44.71,49.22,11.27-7.22,23.68-13.18,35.75-18.91a105.38,105.38,0,0,0,18.93,13.21l-.5.24c-3.11,1.51-6.22,3-9.3,4.47-10.3,4.9-20,9.53-28.89,14.73a111.35,111.35,0,0,0-13.94,9.36c-15.19,11.95-23,25.88-24.61,44.45,18.34,8.6,36.77,18.63,48.83,34.61a117.47,117.47,0,0,1,18.76-35.72,89.78,89.78,0,0,1,14.31,14.72c-12.93,18.06-19.29,39.13-19.35,64.36v21.42h0a60.33,60.33,0,0,1,7.28-3.68c7-3,18-8.62,24.86-11.89s14.42-6.48,20.95-10.76c-1-28.38-10-50.88-28.21-70.46a133.57,133.57,0,0,0-11-10.6c-12.61-10.85-27.28-20-42.47-29.09a107.52,107.52,0,0,1,18.8-12.13c11.58,7.11,24.61,15.58,36.41,25.66,14.84-12.69,31.82-23,47.15-32.17-7.82-4.37-16.26-8.42-25.16-12.66l-.3-.14c-8.13-3.86-15.46-7.38-22.78-11.25-6.07-3.23-11.33-6.28-16.06-9.33-24.55-15.83-39.62-34.95-46.7-59.41q9.06-4.65,18.5-8.57c7.38,29.1,26.77,44.13,45.34,54.91,18.58-10.79,38-25.82,45.34-54.91q9.44,3.93,18.49,8.57c-6.74,23.3-20.76,41.75-43.29,57.12l6.27,3,3.55,1.69c12.22,5.8,24.81,11.83,36.25,19.15,23.27-14.7,39.77-28.81,44.71-49.21l0-.09q8.49,7.17,16.35,15.07c-8.76,21.78-27.31,36.36-46.58,48.82-4.56,3-9.38,5.93-13.93,8.68-1.59.94-3.16,1.89-4.74,2.84l-3.28,2c-15.28,9.16-31,18.64-44.61,30a119.74,119.74,0,0,1,25.76,44.15c12-16,30.46-26,48.79-34.62-1.26-14.08-6.07-25.48-14.86-35.36a176.23,176.23,0,0,0,16.94-11.3,77,77,0,0,1,17.11,37.83c26.76-12.47,48.61-25.3,50.83-54.43a254.23,254.23,0,0,1,14.52,24.84c-11.95,27.4-40.36,40.36-66.15,52.11-31,14.13-58,26.42-60.55,59.34v0a38.66,38.66,0,0,1-.19,5.82s0,0,0,.06h0c-.62,5.5-2.5,10.46-5.87,13.89-3.17,3.24-8.3,6.7-14.24,10h0c-5.26,2.95-11.15,5.81-16.88,8.36-12.25,5.44-25.67,11.21-36.48,20.62L226.38,366a57.64,57.64,0,0,0-13.54,20.34c-3-8.48-4.37-17-3.56-24.9V312.12h0v-2.48c-.09-36.78-28.2-49.6-60.75-64.43C122.72,233.46,94.31,220.49,82.36,193.08ZM277.84,74.4,256.78,37.92,235.72,74.4l21.06,36.48Zm-21.4,115.9,23.16-13.37-23.16-13.37-23.15,13.37ZM193,117.38l-24-11.79,1.79,26.68,24,11.79Zm-50.89,79.35-1.79-26.67-22.21,14.88Zm-24-11.79,22.21-14.88-24-11.79Zm104.14,52.77L212,213l-26.52-3.45,10.27,24.69Zm69.05,0,26.52-3.45,10.26-24.69L301.57,213Zm77.17-41,24-11.79,1.79-26.67-24,11.79Zm-55.59-52.67,24-11.79,1.78-26.68-24,11.79ZM432.13,263.67A179.16,179.16,0,0,1,309.41,402.93V399A162.92,162.92,0,0,0,418.85,245.16c0-1.58,0-3.15-.07-4.72A162.93,162.93,0,0,1,309.41,389.6V320.73c0,11.68-8.46,17.18-14.59,21.06a238.7,238.7,0,0,1-29.12,15.56c-18.56,8.24-39.61,17.31-53.21,35.34A162.93,162.93,0,0,1,93.22,240.44c0,1.57-.07,3.14-.07,4.72A162.92,162.92,0,0,0,207.36,400.62c-.59,1.06-1.16,2.13-1.69,3.24A179.16,179.16,0,0,1,79.87,263.67a180.75,180.75,0,0,0-2.76,31.51,178.89,178.89,0,1,0,357.78,0A180.75,180.75,0,0,0,432.13,263.67Z" fill="#286b3d"/></svg>