<svg xmlns="http://www.w3.org/2000/svg" viewBox="0 0 512 512"><path d="M322.23,172.7l-21.08,36.52-13.49-23.36L353.41,72h-10L282.65,177.18l-8.54-14.78,34.15-59.13h-9l-29.62,51.3-9.52-16.48,39.15-67.81h-8.11L256,131.07l0,0,0,0-35.1-60.78h-8.12l39.16,67.8-9.51,16.48-29.63-51.29h-9l34.15,59.12-8.53,14.77L168.63,72h-10l65.76,113.84-13.5,23.38L189.77,172.7H83.61L256,471.25,428.39,172.7ZM98.48,181.28h86.33l21,36.33H158.6l23.71,41.05-.09.14h.17L256,386.3l73.61-127.5h.16l-.08-.14,23.7-41.05H306.22l21-36.33h86.33L256,454.09ZM223.16,428.51l12.24,21.21A172.17,172.17,0,0,1,94.11,280.35c0-3.17.09-6.3.25-9.43A172.16,172.16,0,0,0,223.16,428.51ZM417.07,270.9c.16,3.13.25,6.26.25,9.41A172.17,172.17,0,0,1,275.74,449.72L288,428.55A172.18,172.18,0,0,0,417.07,270.9ZM231.7,65.05A24.3,24.3,0,1,1,256,89.36,24.3,24.3,0,0,1,231.7,65.05Z" fill="#764500"/></svg>