<svg id="Layer_1" data-name="Layer 1" xmlns="http://www.w3.org/2000/svg" viewBox="0 0 150 50"><path d="M60.68,29.66H58.57V20.34h2.11V21.7a4,4,0,0,1,3.25-1.56c2.13,0,3.38,1.43,3.38,3.65v5.87H65.2V24.2c0-1.42-.75-2.17-1.9-2.17-1.58,0-2.62,1.42-2.62,3.55Zm8-4.65A4.65,4.65,0,1,1,78,25a4.65,4.65,0,1,1-9.3,0Zm7.14,0c0-1.79-1-3-2.49-3s-2.48,1.21-2.48,3,1,3,2.48,3,2.49-1.2,2.49-3Zm5.74,4.65H79.45V20.34h2.11V21.7a3.24,3.24,0,0,1,2.77-1.56A3,3,0,0,1,87.16,22a3.83,3.83,0,0,1,3.25-1.84c1.79,0,3,1.27,3,3.44v6.08H91.34V24.08c0-1.35-.59-2.07-1.66-2.07-1.42,0-2.21,1.29-2.21,3.57v4.08H85.35V24.08c0-1.4-.61-2.07-1.61-2.07-1.36,0-2.17,1.32-2.17,3.57ZM95.4,20.34h2.11v9.32H95.4ZM99,25a4.52,4.52,0,0,1,4.63-4.85,4.24,4.24,0,0,1,4.23,2.95l-2,.81A2.14,2.14,0,0,0,103.66,22c-1.53,0-2.52,1.18-2.52,3s1,3,2.53,3a2.13,2.13,0,0,0,2.2-1.88l1.95.81a4.16,4.16,0,0,1-4.18,2.95A4.54,4.54,0,0,1,99,25Zm10,2.21,1.92-.87a2.28,2.28,0,0,0,2.41,1.75c.94,0,1.67-.44,1.67-1,0-1.58-5.61-.91-5.61-4.1,0-1.76,1.55-2.77,3.66-2.77s3.63,1,4,2.31l-2,.88c-.06-.76-.88-1.41-2-1.41-.85,0-1.5.35-1.5.86,0,1.51,5.63.81,5.63,4.15,0,1.69-1.5,2.88-3.86,2.88S109.33,28.81,109,27.2Z" fill="#fff"/><path d="M37.06,15.75A4.23,4.23,0,0,0,32.9,20V30a4.23,4.23,0,0,0,7.21,3L43,30.15A4.22,4.22,0,0,0,51.41,30V20a4.23,4.23,0,0,0-7.21-3l-2.86,2.87A4.23,4.23,0,0,0,37.06,15.75Z" fill="#00e08e"/><circle cx="47.19" cy="19.97" r="4.22" fill="#fff"/></svg>