<svg xmlns="http://www.w3.org/2000/svg" viewBox="0 0 512 512"><path d="M231.91,341.58s-14.14,4.08-38.47,6.12c-26.12,2.16-54.53,8.28-108.8-8.28S33,278.9,53.93,247.94c-3.82,4.59-87.52,102.43,2.55,121.54,56.69,12.11,110.84-3.94,143.2-14.9A293.62,293.62,0,0,0,231.91,341.58Z" fill="#d400a6"/><path d="M279.69,169.08S293.83,165,318.17,163c26.11-2.16,60.89-6.49,108.8,8.41s51.6,60.39,30.7,91.48c3.82-4.59,88.42-107.78-2.55-121.54-57.33-8.67-110.84,3.95-143.2,14.9A262,262,0,0,0,279.69,169.08Z" fill="#d400a6"/><path d="M440.6,216.6a149.33,149.33,0,0,0-51.47-24.71c-105.87-28-208.69,36.05-208.69,36.05S244.78,127,384.8,118.37c-76.06-70.83-195.18-66.5-265.89,9.56A188.34,188.34,0,0,0,73,297.12c10.32,8,25.48,15.93,48.42,21.91,105.87,28,208.81-36,208.81-36s-64,100.14-202.95,109.44a188.09,188.09,0,0,0,202.31,36.94,212,212,0,0,0,55.42-35.92A188,188,0,0,0,440.6,216.6Z" fill="#7f16d3"/></svg>