<svg id="Layer_1" data-name="Layer 1" xmlns="http://www.w3.org/2000/svg" viewBox="0 0 150 50"><path d="M36.5,30.29a.87.87,0,0,1-.62-.18.83.83,0,0,1-.17-.57V20.81a.74.74,0,0,1,.19-.57.79.79,0,0,1,.6-.2h3.69a4.6,4.6,0,0,1,3.11.89,3.38,3.38,0,0,1,1,2.65,3.36,3.36,0,0,1-1,2.64,4.57,4.57,0,0,1-3.11.88H38.76v2.44a.78.78,0,0,1-.18.57.87.87,0,0,1-.62.18ZM40,24.91a1.29,1.29,0,0,0,.95-.33,1.32,1.32,0,0,0,.35-1,1.34,1.34,0,0,0-.35-1,1.29,1.29,0,0,0-.95-.33H38.76v2.67Z" fill="#fff"/><path d="M47.85,30.52a3,3,0,0,1-2.27-.91A3.62,3.62,0,0,1,44.73,27a4.13,4.13,0,0,1,.58-2.22A3.88,3.88,0,0,1,47,23.36a5.5,5.5,0,0,1,2.46-.53,7.28,7.28,0,0,1,2,.26,6.08,6.08,0,0,1,1.63.7v6a.48.48,0,0,1-.11.37.68.68,0,0,1-.42.09H51a.62.62,0,0,1-.26,0,.45.45,0,0,1-.15-.18l-.19-.46a2.48,2.48,0,0,1-1.06.68A4.22,4.22,0,0,1,47.85,30.52ZM49,28.47a1.34,1.34,0,0,0,.91-.29,1,1,0,0,0,.34-.81V25a1.73,1.73,0,0,0-.73-.14,1.62,1.62,0,0,0-1.28.56A2.37,2.37,0,0,0,47.76,27C47.76,28,48.17,28.47,49,28.47Z" fill="#fff"/><path d="M55.15,30.29a.84.84,0,0,1-.61-.18.78.78,0,0,1-.18-.57v-6a.52.52,0,0,1,.09-.36.61.61,0,0,1,.42-.1h1.55a.49.49,0,0,1,.27.06.2.2,0,0,1,.12.18l.08.45a2.91,2.91,0,0,1,1.1-.66,4.4,4.4,0,0,1,1.54-.26,2.8,2.8,0,0,1,2,.69,2.61,2.61,0,0,1,.76,2v4a.78.78,0,0,1-.18.57.84.84,0,0,1-.61.18H60a.91.91,0,0,1-.63-.18.78.78,0,0,1-.18-.57v-3.8a.9.9,0,0,0-.2-.65.85.85,0,0,0-.62-.19,1,1,0,0,0-.72.24.87.87,0,0,0-.26.66v3.74a.78.78,0,0,1-.18.57.8.8,0,0,1-.6.18Z" fill="#fff"/><path d="M67.59,30.52a4.88,4.88,0,0,1-3.26-1,3.52,3.52,0,0,1-1.15-2.85,3.85,3.85,0,0,1,.53-2,3.54,3.54,0,0,1,1.52-1.36,5.54,5.54,0,0,1,2.39-.48,6.61,6.61,0,0,1,1.74.2,3.92,3.92,0,0,1,1.29.6.31.31,0,0,1,.16.27.67.67,0,0,1-.12.32l-.62,1.07c-.07.14-.15.21-.25.21a.67.67,0,0,1-.29-.12,3.65,3.65,0,0,0-.77-.38,2.68,2.68,0,0,0-.87-.12,1.61,1.61,0,0,0-1.22.48,2.13,2.13,0,0,0,0,2.66,1.77,1.77,0,0,0,1.28.45,2.71,2.71,0,0,0,.88-.14,4.7,4.7,0,0,0,.8-.37.74.74,0,0,1,.3-.12q.14,0,.24.21l.68,1.16a.56.56,0,0,1,.07.24c0,.09-.06.17-.18.26a4.68,4.68,0,0,1-1.39.6A6.51,6.51,0,0,1,67.59,30.52Z" fill="#fff"/><path d="M74.76,30.52a3,3,0,0,1-2.28-.91A3.67,3.67,0,0,1,71.63,27a4.22,4.22,0,0,1,.58-2.22,3.88,3.88,0,0,1,1.64-1.46,5.5,5.5,0,0,1,2.46-.53,7.23,7.23,0,0,1,2,.26,6.08,6.08,0,0,1,1.63.7v6a.48.48,0,0,1-.11.37.68.68,0,0,1-.42.09H77.89a.57.57,0,0,1-.25,0,.47.47,0,0,1-.16-.18l-.19-.46a2.43,2.43,0,0,1-1.06.68A4.2,4.2,0,0,1,74.76,30.52Zm1.13-2.05a1.37,1.37,0,0,0,.92-.29,1,1,0,0,0,.33-.81V25a1.69,1.69,0,0,0-.73-.14,1.62,1.62,0,0,0-1.28.56A2.37,2.37,0,0,0,74.67,27C74.67,28,75.07,28.47,75.89,28.47Z" fill="#fff"/><path d="M89.43,29.72a.39.39,0,0,1,.1.27.32.32,0,0,1-.09.23.36.36,0,0,1-.24.07H86.87a1.22,1.22,0,0,1-.32,0,.66.66,0,0,1-.2-.16l-2-2.79v2.23a.78.78,0,0,1-.18.57.87.87,0,0,1-.62.18H82a.87.87,0,0,1-.62-.18.83.83,0,0,1-.16-.57V20.81A.68.68,0,0,1,82,20H83.5a.82.82,0,0,1,.62.2.78.78,0,0,1,.18.57v5.05l2-2.59a.52.52,0,0,1,.2-.17.85.85,0,0,1,.32,0h2.33a.29.29,0,0,1,.23.09.26.26,0,0,1,.09.21.4.4,0,0,1-.11.27l-2.57,2.95Z" fill="#fff"/><path d="M94.32,30.52a5.8,5.8,0,0,1-2.26-.42,3.52,3.52,0,0,1-1.55-1.27,3.6,3.6,0,0,1-.57-2.07A3.8,3.8,0,0,1,91,23.84a4.45,4.45,0,0,1,3.12-1,4.18,4.18,0,0,1,3,1,3.6,3.6,0,0,1,1,2.73c0,.51-.22.76-.66.76H92.8a1.15,1.15,0,0,0,.48,1,2.66,2.66,0,0,0,1.5.35,4.12,4.12,0,0,0,1-.11,4.31,4.31,0,0,0,.85-.34.9.9,0,0,1,.24-.08c.09,0,.16.06.22.18l.52,1a.53.53,0,0,1,.07.22.33.33,0,0,1-.18.26,4.28,4.28,0,0,1-1.4.59A8.06,8.06,0,0,1,94.32,30.52Zm1.17-4.7a1.13,1.13,0,0,0-.34-.89,1.34,1.34,0,0,0-1-.32,1.41,1.41,0,0,0-1,.33,1.13,1.13,0,0,0-.35.88Z" fill="#fff"/><path d="M103.37,30.52a10.83,10.83,0,0,1-2.4-.26,5.39,5.39,0,0,1-1.82-.75c-.18-.11-.26-.23-.26-.35a.45.45,0,0,1,.09-.25l.74-1.18q.12-.18.24-.18a.61.61,0,0,1,.26.1,5.12,5.12,0,0,0,1.26.52,5.24,5.24,0,0,0,1.4.19,2,2,0,0,0,1.05-.21.72.72,0,0,0,.34-.68.82.82,0,0,0-.37-.71,7.44,7.44,0,0,0-1.38-.64,8.7,8.7,0,0,1-2.38-1.28,2.48,2.48,0,0,1-.84-2,2.62,2.62,0,0,1,1.07-2.27,4.72,4.72,0,0,1,2.85-.79,8.61,8.61,0,0,1,2.11.23,4.25,4.25,0,0,1,1.51.66.52.52,0,0,1,.25.37.45.45,0,0,1-.09.24l-.74,1.17q-.14.18-.24.18a.66.66,0,0,1-.26-.1,3.7,3.7,0,0,0-2.08-.57,1.92,1.92,0,0,0-1,.21.75.75,0,0,0-.35.69.8.8,0,0,0,.18.54,1.63,1.63,0,0,0,.49.38q.31.15,1,.39l.29.11a10.71,10.71,0,0,1,1.75.84,2.79,2.79,0,0,1,1,1,2.88,2.88,0,0,1,.33,1.45,2.6,2.6,0,0,1-1,2.14A4.66,4.66,0,0,1,103.37,30.52Z" fill="#fff"/><path d="M110.52,30.29a.68.68,0,0,1-.35-.07.48.48,0,0,1-.18-.3l-1.94-6.52a.45.45,0,0,1,0-.13q0-.21.3-.21h2a.46.46,0,0,1,.29.07.31.31,0,0,1,.12.21l.81,3.42,1-2.75a.68.68,0,0,1,.15-.25.47.47,0,0,1,.3-.07H114a.42.42,0,0,1,.29.07.57.57,0,0,1,.16.25l1,2.75.83-3.42a.42.42,0,0,1,.12-.21.38.38,0,0,1,.27-.07h2q.3,0,.3.21a.45.45,0,0,1,0,.13l-2,6.52a.48.48,0,0,1-.18.3.58.58,0,0,1-.33.07H115a.56.56,0,0,1-.32-.07.7.7,0,0,1-.18-.3l-1-2.73-1,2.73a.55.55,0,0,1-.18.3.56.56,0,0,1-.32.07Z" fill="#fff"/><path d="M122.77,30.52a3,3,0,0,1-2.27-.91,3.62,3.62,0,0,1-.85-2.57,4.22,4.22,0,0,1,.57-2.22,3.91,3.91,0,0,1,1.65-1.46,5.48,5.48,0,0,1,2.45-.53,7.18,7.18,0,0,1,2,.26,5.82,5.82,0,0,1,1.63.7v6a.48.48,0,0,1-.1.37.68.68,0,0,1-.42.09h-1.54a.62.62,0,0,1-.26,0,.45.45,0,0,1-.15-.18l-.2-.46a2.45,2.45,0,0,1-1,.68A4.26,4.26,0,0,1,122.77,30.52Zm1.13-2.05a1.37,1.37,0,0,0,.92-.29,1,1,0,0,0,.33-.81V25a1.68,1.68,0,0,0-.72-.14,1.62,1.62,0,0,0-1.28.56,2.37,2.37,0,0,0-.47,1.57C122.68,28,123.09,28.47,123.9,28.47Z" fill="#fff"/><path d="M130.06,33.34a.87.87,0,0,1-.62-.18.83.83,0,0,1-.17-.57V24a5.78,5.78,0,0,1,1.71-.8,7.2,7.2,0,0,1,2.14-.32q4.55,0,4.55,3.86a3.94,3.94,0,0,1-1,2.79,3.57,3.57,0,0,1-2.73,1,3.91,3.91,0,0,1-1-.12,2.36,2.36,0,0,1-.75-.33v2.52a.78.78,0,0,1-.18.57.87.87,0,0,1-.62.18Zm3.27-4.86a1.07,1.07,0,0,0,1-.48,2.36,2.36,0,0,0,.34-1.33,1.92,1.92,0,0,0-.4-1.37,1.52,1.52,0,0,0-1.17-.4,2.07,2.07,0,0,0-.82.13v2.4a1,1,0,0,0,.29.78A1.12,1.12,0,0,0,133.33,28.48Z" fill="#fff"/><path d="M15.77,18.34a2.56,2.56,0,1,1,5.07-.47V21c.35,0,.71,0,1.08,0s.69,0,1,0V17.87a2.56,2.56,0,1,1,5.08.47l-.7,3.71c2.38,1,4.18,2.84,4.18,5.1v1.37a5.45,5.45,0,0,1-3,4.48,12.88,12.88,0,0,1-6.63,1.69A12.94,12.94,0,0,1,15.28,33a5.46,5.46,0,0,1-2.95-4.48V27.15c0-2.25,1.78-4,4.13-5.08Zm10.68,4.2.81-4.34a1.78,1.78,0,1,0-3.52-.33v4c-.26,0-.52-.06-.79-.08s-.68,0-1,0-.73,0-1.08,0l-.78.08v-4a1.78,1.78,0,1,0-3.52.33l.81,4.35c-2.54.94-4.24,2.65-4.24,4.6v1.37c0,3,3.94,5.38,8.81,5.38s8.8-2.41,8.8-5.38V27.15C30.72,25.19,29,23.48,26.45,22.54Z" fill="#633001" fill-rule="evenodd"/><path d="M30.72,28.52c0,3-3.94,5.38-8.8,5.38s-8.81-2.41-8.81-5.38V27.15H30.72Z" fill="#fedc90"/><path d="M16.54,18.2a1.78,1.78,0,1,1,3.52-.33v4a14.06,14.06,0,0,1,1.86-.12,13.57,13.57,0,0,1,1.82.12v-4a1.78,1.78,0,1,1,3.52.33l-.81,4.34c2.56.94,4.27,2.65,4.27,4.61,0,3-3.94,5.38-8.8,5.38s-8.81-2.41-8.81-5.38c0-1.95,1.7-3.66,4.24-4.6Z" fill="#d1884f" fill-rule="evenodd"/><path d="M19.47,26.76c0,.81-.44,1.47-1,1.47s-1-.66-1-1.47.44-1.47,1-1.47S19.47,26,19.47,26.76Z" fill="#633001"/><path d="M26.22,26.76c0,.81-.43,1.47-1,1.47s-1-.66-1-1.47.43-1.47,1-1.47S26.22,26,26.22,26.76Z" fill="#633001"/></svg>