<svg xmlns="http://www.w3.org/2000/svg" viewBox="0 0 120.86 120.86"><path d="M3.57,14.9V12.54a31.84,31.84,0,0,1,2.1-4.9c1.55-2.45,4.1-3.52,6.87-4.07H14.9c.06.05.12.12.19.13,4.27.79,7.13,3.25,8.24,7.44a9.47,9.47,0,0,1-3.09,10c-.53.47-.39.83-.15,1.32l4,8.4c.38.81.76,1.61,1.11,2.33,12.95-3.68,22.84.23,30.07,11.42l22-9.34a23.58,23.58,0,0,1-.3-14L70.55,19l-.61.79A10,10,0,1,1,54.28,7.23a10.84,10.84,0,0,1,6.65-3.66h2.13a.33.33,0,0,0,.1.06,10.17,10.17,0,0,1,8.85,11,1,1,0,0,0,.48.76c1.93.75,3.88,1.45,5.85,2.17.18-.3.32-.53.45-.77A23.9,23.9,0,0,1,91.32,5.34,57.37,57.37,0,0,1,98,3.57h4.72c.3.08.58.19.88.24,9.45,1.63,16,6.89,19.38,15.83a50.87,50.87,0,0,1,1.46,5.65V30a10.84,10.84,0,0,0-.25,1.13C122.34,44,110.69,52.9,98.51,51.76c-1.5-.14-3-.39-4.58-.6-3.25,9-6.51,18.07-9.79,27.17a25.16,25.16,0,0,1,9,7.13c3.7-2.4,7.31-4.77,11-7.09a1.25,1.25,0,0,0,.61-1.71,10,10,0,0,1,4.08-11,10.14,10.14,0,0,1,11.78.47A11,11,0,0,1,124.43,73v2.36c-.05.06-.12.12-.13.19a10,10,0,0,1-16.54,6.07c-.53-.46-.87-.27-1.33,0-2.59,1.7-5.2,3.39-7.8,5.08-1.08.7-2.15,1.42-3.25,2.14.25.54.45,1,.67,1.46a24.08,24.08,0,0,1-13.54,32.55c-1.94.7-4,1.06-6,1.58H71.79a3.13,3.13,0,0,0-.66-.2,23.1,23.1,0,0,1-15.89-9,76.9,76.9,0,0,1-4.49-7.34c.17,0,0,0-.14,0-2.71.63-5.43,1.24-8.13,2-.3.08-.63.71-.67,1.1a10,10,0,1,1-19.2-4.73,9.66,9.66,0,0,1,8.8-5.91,9.51,9.51,0,0,1,9,5,1,1,0,0,0,1.41.56c1.55-.43,3.13-.74,4.7-1.12l3.64-.9a24.41,24.41,0,0,1,6.22-20.06L48.5,75.13C40.8,80.61,32.61,81.55,23.85,78c-1.1,2-2.14,3.9-3.25,5.79a1.08,1.08,0,0,0,.22,1.52,12.41,12.41,0,0,1,1.5,2,9.93,9.93,0,0,1-2.93,13.18A10.17,10.17,0,0,1,6.19,99a12,12,0,0,1-2.62-5.68V91.15c.07-.26.15-.51.2-.77a9.9,9.9,0,0,1,5.2-7,9.93,9.93,0,0,1,7.69-.71l3.65-6.56C6.12,66.52,5.75,44.31,21.59,35L16.07,23.42c-4.5.76-8-.44-10.45-3.85A23.94,23.94,0,0,1,3.57,14.9ZM78.88,39l-22.1,9.37c2.56,9,.82,17-5.3,24,2.5,2.76,5,5.49,7.48,8.22.13.14.28.26.48.44a24.47,24.47,0,0,1,9.89-4.51,24.75,24.75,0,0,1,11,.39c3.3-9.13,6.55-18.16,9.83-27.26A24.73,24.73,0,0,1,78.88,39ZM66.75,105.31c-3.76-5.85-3.53-11,.61-14.56a10,10,0,0,1,13.43.08c4,3.54,4.26,8.73.53,14.48a14.69,14.69,0,0,1,7.9,8,19.87,19.87,0,0,0-1-27.39,20.12,20.12,0,0,0-28.85.6c-7.88,8.58-6.26,20.73-.44,26.67A14.57,14.57,0,0,1,66.75,105.31Zm48.67-64.56c4.49-4.64,6.78-13.22,3.27-21.09a20.13,20.13,0,0,0-38.11,3.78c-1.59,7,1.23,14.41,4.57,17.21A14.64,14.64,0,0,1,93,32.77c-4.54-5.39-2.84-11.28.28-14.26a10,10,0,0,1,16.81,5.19,10.15,10.15,0,0,1-2.63,9.07A14.69,14.69,0,0,1,115.42,40.75ZM18.6,68.94a14.61,14.61,0,0,1,7.9-8c-4.31-5-3.13-10.92.21-14.19a10.07,10.07,0,0,1,12.88-1,9.85,9.85,0,0,1,4,6.2A10.07,10.07,0,0,1,41,61,14.82,14.82,0,0,1,49,69,20.07,20.07,0,0,0,19,42.27C11.38,50.51,12.56,62.62,18.6,68.94Zm27,3.21c-1.19-4.63-4.3-7.6-8.69-8a28.2,28.2,0,0,0-6.81.1c-4,.64-6.63,3.15-7.92,7a1.06,1.06,0,0,0,.51,1.44A19.88,19.88,0,0,0,45.56,72.15Zm28.65,36.2c-1,0-1.7,0-2.45,0a9.87,9.87,0,0,0-9,6.3c-.75,1.67-.68,1.88.89,2.78,7.29,4.14,14.49,4,21.6-.48a.94.94,0,0,0,.46-1.25,10.21,10.21,0,0,0-3.56-5.27A10.93,10.93,0,0,0,74.21,108.35Zm26.07-60.46a20.41,20.41,0,0,0,11.08-3.38,1.06,1.06,0,0,0,.52-1.44c-1.08-3.32-3.17-5.86-6.56-6.65a30.88,30.88,0,0,0-7.93-.49A9.82,9.82,0,0,0,88.64,43a1.16,1.16,0,0,0,.6,1.53A20.45,20.45,0,0,0,100.28,47.89ZM62,19.66a6,6,0,1,0-6-6A6,6,0,0,0,62,19.66Zm44.29,6.08a6,6,0,1,0-6,6A6,6,0,0,0,106.27,25.74ZM13.7,86.18a6,6,0,1,0,5.95,6A6,6,0,0,0,13.7,86.18Zm12.05,24.19a6,6,0,1,0,6-6.05A6,6,0,0,0,25.75,110.37Zm-6.1-96.7a6,6,0,1,0-6,6A6.05,6.05,0,0,0,19.65,13.67Zm94.71,66.41a6.05,6.05,0,0,0,6-6,6.12,6.12,0,0,0-6-6.07,6.05,6.05,0,0,0-6.06,6.07A6,6,0,0,0,114.36,80.08ZM68,98.19a6,6,0,1,0,6-6A6.06,6.06,0,0,0,68,98.19ZM39.75,53.89a6,6,0,0,0-6-6,6.06,6.06,0,0,0-6,6A6.13,6.13,0,0,0,33.81,60,6,6,0,0,0,39.75,53.89Z" transform="translate(-3.57 -3.57)" fill="#00aeef"/></svg>