<?xml version="1.0" encoding="utf-8"?>
<svg version="1.2" baseProfile="tiny" id="Layer_1" xmlns="http://www.w3.org/2000/svg" xmlns:xlink="http://www.w3.org/1999/xlink"
	 x="0px" y="0px" viewBox="0 0 128 128" xml:space="preserve">
<path fill="#00AEEF" d="M112.4,64c0,26.8-21.7,48.4-48.4,48.4S15.6,90.8,15.6,64c0-26.8,21.7-48.4,48.4-48.4
	C90.7,15.6,112.4,37.2,112.4,64C112.4,64,112.4,64,112.4,64z M84.4,44.9L37.7,63c-3.2,1.3-3.1,3-0.5,3.8l12,3.7l27.7-17.5
	c1.3-0.9,2.5-0.4,1.5,0.5L55.9,73.8l-0.9,12.3c0.9,0,1.9-0.4,2.5-1.2l5.8-5.6l12.1,8.9c2.2,1.3,3.8,0.6,4.4-2.1l8-37.5
	C88.5,45.5,86.6,44.2,84.4,44.9L84.4,44.9z"/>
</svg>
