<svg xmlns="http://www.w3.org/2000/svg" viewBox="0 0 512 512"><path d="M246.51,37.75v436.5h-17l-7.23-61-29.61-7.93L172,426.68l-29.46-17L150.68,381,129,359.36l-28.63,8.17c-9.13-15.8-7.89-13.65-17-29.45l21.4-20.71c-3.55-13.29-4.37-16.32-7.93-29.61l-47.61-7.23v-34l47.61-7.23c3.56-13.28,4.38-16.32,7.93-29.61L83.35,189c9.12-15.8,7.88-13.66,17-29.46L129,167.68c9.73-9.73,11.95-12,21.69-21.68l-8.19-28.64c15.81-9.11,13.65-7.88,29.46-17l20.71,21.4,13.78-3.68v35.65a119.06,119.06,0,0,0-75.65,133,43.52,43.52,0,0,0,80-2.52c0,.09.06.18.1.27L245.53,38.94A1.56,1.56,0,0,1,246.51,37.75ZM462.79,280.53v-34l-47.61-7.23c-3.56-13.28-4.38-16.32-7.93-29.61l21.4-20.7c-9.12-15.8-7.88-13.66-17-29.46L383,167.68c-9.73-9.73-11.95-12-21.69-21.68l8.19-28.64c-15.81-9.11-13.65-7.88-29.46-17l-20.71,21.4-13.78-3.68v35.65a119.06,119.06,0,0,1,75.65,133,43.52,43.52,0,0,1-80-2.52c0,.09-.06.18-.1.27L266.47,38.94a1.56,1.56,0,0,0-1-1.19v436.5h17l7.23-61,29.61-7.93,20.71,21.4,29.46-17L361.32,381,383,359.36l28.63,8.17c9.13-15.8,7.89-13.65,17-29.45l-21.4-20.71c3.55-13.29,4.37-16.32,7.93-29.61Z" fill="#961010" fill-rule="evenodd"/></svg>