<?xml version="1.0" encoding="utf-8"?>
<svg version="1.2" baseProfile="tiny" id="Layer_1" xmlns="http://www.w3.org/2000/svg" xmlns:xlink="http://www.w3.org/1999/xlink"
	 x="0px" y="0px" viewBox="0 0 128 128" xml:space="preserve">
<path fill="#00AEEF" d="M107.8,29.6v68.8c0,5.2-4.2,9.4-9.4,9.4H29.6c-5.2,0-9.4-4.2-9.4-9.4V29.6c0-5.2,4.2-9.4,9.4-9.4h68.8
	C103.6,20.3,107.8,24.5,107.8,29.6z M95.3,44.6c-2.3,1-4.8,1.7-7.4,2c2.7-1.6,4.7-4.1,5.6-7c-2.5,1.5-5.3,2.5-8.1,3.1
	c-4.9-5.2-13-5.4-18.2-0.6c-3.3,3.1-4.7,7.8-3.7,12.3C53.2,53.9,43.6,49,37.1,41c-1.2,2-1.8,4.2-1.7,6.5l0,0c0,4.3,2.2,8.3,5.7,10.7
	c-2-0.1-4-0.6-5.8-1.6v0.2c0,6.1,4.3,11.3,10.2,12.5c-1.9,0.5-3.9,0.6-5.8,0.2c1.7,5.2,6.5,8.8,12,8.9c-4.5,3.6-10.1,5.5-15.9,5.5
	c-1,0-2.1,0-3.1-0.2c5.9,3.8,12.7,5.8,19.7,5.7c23.5,0,36.4-19.5,36.4-36.4c0-0.5,0-1.1,0-1.7C91.4,49.4,93.5,47.2,95.3,44.6z"/>
</svg>
