<svg xmlns="http://www.w3.org/2000/svg" viewBox="0 0 150 50"><path d="M141,35.2c-4.2-4.5-8.8-8.77-13.12-13.2-6-.3-12.2,0-18.27-.1-.15,0-.19-.08-.17-.22.08-.89,0-1.79,0-2.67,0-.21-.16-.61.18-.59,3.7,0,7.41,0,11.11,0,2.47,0,4.93,0,7.4,0a.93.93,0,0,1,.78.28c1.12,1.1,2.28,2.15,3.41,3.23,1.78,1.7,3.58,3.39,5.37,5.08.14.11.42.58.49.21,0-2.71,0-5.41,0-8.12.05-.19-.17-.59.17-.55,1.2,0,2.42,0,3.6,0V35.2Z" fill="#fff"/><path d="M29.15,14.8c-2.13,2.84-4.33,5.63-6.53,8.41-1.49,1.88-1.13,1.15.16,3,1.16,1.44,2.26,2.93,3.41,4.37l2,2.61,1.3,1.65c.17.25-.18.23-.35.2-1-.14-5.11.33-5.38-.29-1.44-1.91-3-3.76-4.41-5.66C15.69,24.33,11.94,19.6,8.32,14.8H14c1.39,2.11,3.11,4.09,4.67,6.09.25,0,.34-.34.5-.49.8-1,1.61-2.08,2.43-3.12L23.39,15c0-.05.11-.11,0-.19Z" fill="#fff"/><path d="M34.33,35.07c-.19-3.4,0-6.94-.07-10.38,0-.16,0-.19.19-.19h3.32c.2,0,.23,0,.23.2-.08,3.44.15,7-.09,10.37C36.73,35.1,35.5,35.11,34.33,35.07Z" fill="#fff"/><path d="M127.75,35.2c.12-3.35.12-6.75.11-10.1,1.26,1.11,2.34,2.46,3.56,3.65.19.19.09.46.09.69,0,1.92,0,3.84,0,5.76Z" fill="#fff"/><path d="M99.4,22a9.18,9.18,0,0,1,1.16,2.27c0,.14.08.18.21.18h4.62c.18,0,.22,0,.22.22v10c0,.37,0,.37-.37.37-2.89-.07-5.79.14-8.67-.12-.66,0-1.28-.48-1.93-.25a10.84,10.84,0,0,1-3.55.36H84.72c-.16,0-.37,0-.35-.23,0-3.28,0-6.55,0-9.82,0-.45,0-.54.47-.49h4.32c.2,0,.23,0,.31-.24a13.44,13.44,0,0,1,1.13-2.28q-3,0-6.06,0c-.25-.05-.35-.36-.49-.54-.61-.94-1.21-1.9-1.84-2.82-.18-.29.33-.15.47-.16,3.08,0,6.17,0,9.25,0a9.94,9.94,0,0,1,2.76.38c.59.16,1.16-.19,1.75-.23,3.76-.32,7.64-.15,11.37-.12-.58,1.12-1.42,2.18-2.07,3.29a.42.42,0,0,1-.38.22c-2,0-4,0-5.94,0Zm-6.53,6a5.18,5.18,0,0,0,2,2.67c.9-.08,1.91-1.68,2.23-2.51.11-.29-.28-.19-.44-.2C95.4,28,94.12,27.88,92.87,28Zm9.07,1.76h0c-.08-.32.2-1.88-.21-1.79-1.36-.09-.73.22-1.2,1.38a7.26,7.26,0,0,1-.78,1.58c-.07.16-.58.57-.21.61C102.17,31.33,102,32.3,101.94,29.73ZM89.36,31.49h0c2.52.13.26-.22-.21-3.43-.15-.28-.65-.06-.93-.12-.1,0-.14.06-.13.16.07,1,0,2.09,0,3.14C88.05,31.72,89,31.41,89.36,31.49Zm5.63-7h0a7.35,7.35,0,0,0,1.63-.06c0-.13-.16-.27-.23-.37-.27-.32-1.11-1.37-1.51-1.23a7,7,0,0,0-1.53,1.59A7.46,7.46,0,0,0,95,24.47Z" fill="red"/><path d="M117.31,35h-7.65c-.37,0-.1-.53-.15-.77,0-.75,0-1.51,0-2.27,0-2,0-3.92,0-5.89V24.61c0-.33.44-.1.63-.15,4.4,0,8.8,0,13.2,0,.47-.23.09,2.91.22,3.32s-.3.15-.46.17c-3.26,0-6.52,0-9.79,0-.11,0-.15.06-.15.17,0,1,0,2.08,0,3.12,0,.42.53.21.78.26,3.63,0,7.27,0,10.9,0,.17,0,.25,0,.25.21,0,1.06,0,2.11,0,3.17,0,.15,0,.17-.17.18Z" fill="#fff"/><path d="M54.58,35H47.23c-.19,0-.5.06-.47-.23,0-3.31,0-6.63,0-9.94-.08-.45.1-.4.47-.39H60.61c.18,0,.21,0,.21.2,0,1,0,2,0,3,0,.24,0,.28-.3.27-3.29,0-6.58,0-9.86,0-.17,0-.2.1-.2.24,0,1.05,0,2.11,0,3.17,0,.12,0,.17.16.17,3.75,0,7.51,0,11.26,0,.18,0,.52-.11.5.19s.22,3.49-.2,3.3c-2.53,0-5.07,0-7.6,0Z" fill="#fff"/><path d="M75.45,27.42c.06-2.88,0-5.78,0-8.67,0-.31.28-.22.49-.22,1,0,2,0,3,0,.42-.06.22.55.27.79V34.8c0,.41-.44.18-.69.25-.57-.06-1.33-1.17-1.86-1.53-3-2.88-6-5.73-9-8.59-3.27-3-2.52-1.7-2.57-6.11-.15-.59.37-.37.75-.4a16,16,0,0,1,2.32,2.06C70.54,22.79,73,25.12,75.45,27.42Z" fill="#fff"/><path d="M35.41,22.07c-2.88-.07-5.81.13-8.67-.09.31-.71.69-1.39,1-2.1.28-.37.35-1.4.92-1.31,5,.2,10.65-.34,15.44.19,0,1,0,2.06,0,3.09,0,.17,0,.21-.2.21-2.84,0-5.67,0-8.5,0Z" fill="#fff"/><path d="M54.6,22.07c-2.56,0-5.11,0-7.66,0-.3,0-.16-.25-.18-.44,0-.87,0-1.75,0-2.63,0-.14-.08-.41.15-.41h1.53c4.58,0,9.16,0,13.73,0,.25-.06.21.22.2.38,0,1,0,1.95,0,2.93,0,.15,0,.19-.19.19-2.54,0-5.07,0-7.6,0Z" fill="#fff"/><path d="M65,30.62c0-1.52,0-3.07,0-4.58.94.72,1.75,1.65,2.64,2.44.35.44,1,.74,1.1,1.32,0,1.67-.05,3.34,0,5,0,.15-.06.23-.22.24-1,0-2.09,0-3.14,0-.16,0-.42.08-.39-.18,0-1.41,0-2.82,0-4.24Z" fill="#fff"/><path d="M10.26,35H8.38c-.17,0-.54,0-.35-.23,1.27-1.64,2.56-3.26,3.81-4.91.24-.19,1.29-1.95,1.45-1.55.74,1,1.5,1.92,2.26,2.88a.17.17,0,0,1,0,.23c-.87,1.1-1.72,2.22-2.57,3.34-.24.39-.67.22-1.05.24Z" fill="red"/></svg>