<?xml version="1.0" encoding="utf-8"?>
<svg version="1.2" baseProfile="tiny" id="Layer_1" xmlns="http://www.w3.org/2000/svg" xmlns:xlink="http://www.w3.org/1999/xlink"
	 x="0px" y="0px" viewBox="0 0 128 128" xml:space="preserve">
<path fill="#00AEEF" d="M117.3,64.1c0,0,0,17.5-2.2,25.8c-1.2,4.6-4.8,8.1-9.4,9.3c-8.3,2.2-41.7,2.2-41.7,2.2s-33.3,0-41.7-2.2
	c-4.6-1.2-8.2-4.8-9.4-9.3c-2.2-8.4-2.2-25.8-2.2-25.8s0-17.5,2.2-25.8c1.2-4.6,4.8-8.2,9.4-9.5c8.3-2.2,41.7-2.2,41.7-2.2
	s33.4,0,41.7,2.2c4.6,1.3,8.2,4.9,9.4,9.5C117.3,46.6,117.3,64.1,117.3,64.1z M81,64.1L53.1,48.2v31.7L81,64.1z"/>
</svg>
